Akatab-Black.ufo
<glyph name="exclam" format="2">
  <advance width="764"/>
  <unicode hex="0021"/>
  <outline>
    <contour>
      <point x="340" y="432" type="curve" smooth="yes"/>
      <point x="254" y="364"/>
      <point x="196" y="265"/>
      <point x="109" y="196" type="curve" smooth="yes"/>
      <point x="88" y="179"/>
      <point x="90" y="140"/>
      <point x="107" y="118" type="curve" smooth="yes"/>
      <point x="176" y="31"/>
      <point x="275" y="-27"/>
      <point x="343" y="-113" type="curve" smooth="yes"/>
      <point x="360" y="-135"/>
      <point x="400" y="-134"/>
      <point x="422" y="-117" type="curve" smooth="yes"/>
      <point x="509" y="-48"/>
      <point x="567" y="51"/>
      <point x="653" y="119" type="curve" smooth="yes"/>
      <point x="674" y="136"/>
      <point x="675" y="177"/>
      <point x="658" y="199" type="curve" smooth="yes"/>
      <point x="590" y="285"/>
      <point x="491" y="342"/>
      <point x="422" y="429" type="curve" smooth="yes"/>
      <point x="405" y="451"/>
      <point x="361" y="449"/>
    </contour>
    <contour>
      <point x="382" y="365" type="curve"/>
      <point x="437" y="282"/>
      <point x="534" y="241"/>
      <point x="589" y="158" type="curve"/>
      <point x="506" y="104"/>
      <point x="465" y="6"/>
      <point x="382" y="-48" type="curve"/>
      <point x="328" y="35"/>
      <point x="230" y="76"/>
      <point x="176" y="158" type="curve"/>
      <point x="258" y="213"/>
      <point x="299" y="310"/>
    </contour>
    <contour>
      <point x="420" y="932" type="curve" smooth="yes"/>
      <point x="416" y="1063"/>
      <point x="430" y="1163"/>
      <point x="426" y="1293" type="curve" smooth="yes"/>
      <point x="425" y="1323"/>
      <point x="403" y="1342"/>
      <point x="379" y="1342" type="curve" smooth="yes"/>
      <point x="355" y="1342"/>
      <point x="335" y="1321"/>
      <point x="336" y="1289" type="curve" smooth="yes"/>
      <point x="340" y="1159"/>
      <point x="326" y="1059"/>
      <point x="330" y="928" type="curve" smooth="yes"/>
      <point x="331" y="898"/>
      <point x="353" y="879"/>
      <point x="377" y="879" type="curve" smooth="yes"/>
      <point x="401" y="879"/>
      <point x="421" y="900"/>
    </contour>
    <contour>
      <point x="377" y="1449" type="curve"/>
      <point x="464" y="1381"/>
      <point x="491" y="1314"/>
      <point x="578" y="1246" type="curve"/>
      <point x="521" y="999"/>
      <point x="405" y="782"/>
      <point x="348" y="535" type="curve"/>
      <point x="406" y="535" type="line"/>
      <point x="309" y="781"/>
      <point x="273" y="997"/>
      <point x="176" y="1243" type="curve"/>
      <point x="223" y="1312"/>
      <point x="330" y="1380"/>
    </contour>
    <contour>
      <point x="335" y="1509" type="curve" smooth="yes"/>
      <point x="267" y="1432"/>
      <point x="168" y="1356"/>
      <point x="105" y="1280" type="curve" smooth="yes"/>
      <point x="97" y="1270"/>
      <point x="97" y="1247"/>
      <point x="101" y="1235" type="curve" smooth="yes"/>
      <point x="193" y="992"/>
      <point x="233" y="779"/>
      <point x="308" y="581" type="curve" smooth="yes"/>
      <point x="330" y="521"/>
      <point x="358" y="517"/>
      <point x="373" y="517" type="curve" smooth="yes"/>
      <point x="377" y="517" type="line" smooth="yes"/>
      <point x="394" y="517"/>
      <point x="424" y="523"/>
      <point x="440" y="588" type="curve" smooth="yes"/>
      <point x="488" y="782"/>
      <point x="596" y="995"/>
      <point x="656" y="1236" type="curve" smooth="yes"/>
      <point x="659" y="1249"/>
      <point x="654" y="1275"/>
      <point x="643" y="1284" type="curve" smooth="yes"/>
      <point x="555" y="1362"/>
      <point x="507" y="1438"/>
      <point x="423" y="1515" type="curve" smooth="yes"/>
      <point x="405" y="1532"/>
      <point x="351" y="1527"/>
    </contour>
    <component base="_Dot" xScale="0.7" yScale="0.7" xOffset="-89" yOffset="-339"/>
  </outline>
</glyph>
<glyph name="LftParen" format="2">
  <advance width="795"/>
  <unicode hex="0028"/>
  <outline>
    <contour>
      <point x="115" y="994"/>
      <point x="115" y="577" type="curve" smooth="yes"/>
      <point x="115" y="189"/>
      <point x="253" y="-138"/>
      <point x="516" y="-410" type="curve"/>
      <point x="606" y="-272" type="line"/>
      <point x="382" y="-26"/>
      <point x="296" y="246"/>
      <point x="296" y="577" type="curve" smooth="yes"/>
      <point x="296" y="918"/>
      <point x="382" y="1202"/>
      <point x="606" y="1398" type="curve"/>
      <point x="535" y="1546" type="line"/>
      <point x="282" y="1359"/>
    </contour>
  </outline>
</glyph>
<glyph name="Asterisk" format="2">
  <advance width="1028"/>
  <unicode hex="002A"/>
  <outline>
    <contour>
      <point x="528" y="1438"/>
      <point x="540" y="1565" type="curve"/>
      <point x="402" y="1565" type="line"/>
      <point x="420" y="1438"/>
      <point x="432" y="1362"/>
      <point x="435" y="1279" type="curve"/>
      <point x="364" y="1321"/>
      <point x="301" y="1362"/>
      <point x="197" y="1436" type="curve"/>
      <point x="125" y="1317" type="line"/>
      <point x="244" y="1269"/>
      <point x="318" y="1242"/>
      <point x="392" y="1203" type="curve"/>
      <point x="320" y="1161"/>
      <point x="250" y="1126"/>
      <point x="135" y="1074" type="curve"/>
      <point x="201" y="954" type="line"/>
      <point x="301" y="1033"/>
      <point x="365" y="1082"/>
      <point x="435" y="1126" type="curve"/>
      <point x="433" y="1045"/>
      <point x="427" y="967"/>
      <point x="416" y="840" type="curve"/>
      <point x="550" y="840" type="line"/>
      <point x="530" y="967"/>
      <point x="525" y="1042"/>
      <point x="521" y="1126" type="curve"/>
      <point x="592" y="1083"/>
      <point x="655" y="1043"/>
      <point x="759" y="969" type="curve"/>
      <point x="831" y="1088" type="line"/>
      <point x="711" y="1135"/>
      <point x="638" y="1163"/>
      <point x="564" y="1203" type="curve"/>
      <point x="636" y="1242"/>
      <point x="705" y="1278"/>
      <point x="821" y="1331" type="curve"/>
      <point x="755" y="1451" type="line"/>
      <point x="654" y="1370"/>
      <point x="592" y="1325"/>
      <point x="521" y="1279" type="curve"/>
      <point x="522" y="1362"/>
    </contour>
  </outline>
</glyph>
<glyph name="PlusSgn" format="2">
  <advance width="1200"/>
  <unicode hex="002B"/>
  <outline>
    <contour>
      <point x="651" y="1139" type="line"/>
      <point x="508" y="1139" type="line"/>
      <point x="508" y="285" type="line"/>
      <point x="651" y="285" type="line"/>
    </contour>
    <contour>
      <point x="155" y="786" type="line"/>
      <point x="155" y="643" type="line"/>
      <point x="1004" y="643" type="line"/>
      <point x="1004" y="786" type="line"/>
    </contour>
  </outline>
</glyph>
<glyph name="comma" format="2">
  <advance width="676"/>
  <unicode hex="002C"/>
  <outline>
    <contour>
      <point x="104" y="300" type="curve"/>
      <point x="260" y="280"/>
      <point x="416" y="320"/>
      <point x="572" y="300" type="curve"/>
      <point x="474" y="166"/>
      <point x="436" y="31"/>
      <point x="338" y="-103" type="curve"/>
      <point x="280" y="31"/>
      <point x="162" y="166"/>
    </contour>
    <contour>
      <point x="33" y="273" type="curve" smooth="yes"/>
      <point x="96" y="129"/>
      <point x="221" y="-16"/>
      <point x="284" y="-160" type="curve" smooth="yes"/>
      <point x="301" y="-199"/>
      <point x="368" y="-194"/>
      <point x="393" y="-159" type="curve" smooth="yes"/>
      <point x="496" y="-14"/>
      <point x="541" y="129"/>
      <point x="644" y="274" type="curve" smooth="yes"/>
      <point x="669" y="309"/>
      <point x="631" y="370"/>
      <point x="589" y="375" type="curve" smooth="yes"/>
      <point x="422" y="395"/>
      <point x="254" y="355"/>
      <point x="87" y="375" type="curve" smooth="yes"/>
      <point x="45" y="380"/>
      <point x="16" y="312"/>
    </contour>
    <component base="_Dot" xScale="0.7" yScale="0.7" xOffset="-119" yOffset="-339"/>
  </outline>
</glyph>
<glyph name="period" format="2">
  <advance width="632"/>
  <unicode hex="002E"/>
  <outline>
    <contour>
      <point x="93" y="323" type="curve" smooth="yes"/>
      <point x="79" y="214"/>
      <point x="111" y="103"/>
      <point x="97" y="-7" type="curve" smooth="yes"/>
      <point x="93" y="-36"/>
      <point x="122" y="-61"/>
      <point x="151" y="-65" type="curve" smooth="yes"/>
      <point x="261" y="-79"/>
      <point x="372" y="-47"/>
      <point x="481" y="-61" type="curve" smooth="yes"/>
      <point x="510" y="-65"/>
      <point x="535" y="-36"/>
      <point x="539" y="-7" type="curve" smooth="yes"/>
      <point x="553" y="103"/>
      <point x="521" y="214"/>
      <point x="535" y="323" type="curve" smooth="yes"/>
      <point x="539" y="352"/>
      <point x="510" y="377"/>
      <point x="481" y="381" type="curve" smooth="yes"/>
      <point x="373" y="395"/>
      <point x="262" y="363"/>
      <point x="151" y="377" type="curve" smooth="yes"/>
      <point x="122" y="381"/>
      <point x="97" y="352"/>
    </contour>
    <contour>
      <point x="170" y="304" type="curve"/>
      <point x="267" y="284"/>
      <point x="365" y="324"/>
      <point x="462" y="304" type="curve"/>
      <point x="442" y="207"/>
      <point x="482" y="109"/>
      <point x="462" y="12" type="curve"/>
      <point x="365" y="32"/>
      <point x="267" y="-8"/>
      <point x="170" y="12" type="curve"/>
      <point x="190" y="109"/>
      <point x="150" y="207"/>
    </contour>
    <component base="_Dot" xScale="0.7" yScale="0.7" xOffset="-144" yOffset="-339"/>
  </outline>
</glyph>
<glyph name="Solidus" format="2">
  <advance width="1000"/>
  <unicode hex="002F"/>
  <outline>
    <contour>
      <point x="945" y="1515" type="line"/>
      <point x="802" y="1515" type="line"/>
      <point x="10" y="-245" type="line"/>
      <point x="153" y="-245" type="line"/>
    </contour>
  </outline>
</glyph>
<glyph name="DigitZero" format="2">
  <advance width="1200"/>
  <unicode hex="0030"/>
  <anchor x="605" y="-100" name="L"/>
  <anchor x="605" y="1530" name="U"/>
  <outline>
    <contour>
      <point x="872" y="1102"/>
      <point x="872" y="681" type="curve" smooth="yes"/>
      <point x="872" y="293"/>
      <point x="760" y="137"/>
      <point x="577" y="137" type="curve" smooth="yes"/>
      <point x="388" y="137"/>
      <point x="281" y="290"/>
      <point x="281" y="710" type="curve" smooth="yes"/>
      <point x="281" y="1099"/>
      <point x="392" y="1253"/>
      <point x="577" y="1253" type="curve" smooth="yes"/>
      <point x="769" y="1253"/>
    </contour>
    <contour>
      <point x="1063" y="143"/>
      <point x="1063" y="705" type="curve" smooth="yes"/>
      <point x="1063" y="1226"/>
      <point x="863" y="1416"/>
      <point x="586" y="1416" type="curve" smooth="yes"/>
      <point x="310" y="1416"/>
      <point x="90" y="1223"/>
      <point x="90" y="686" type="curve" smooth="yes"/>
      <point x="90" y="147"/>
      <point x="291" y="-25"/>
      <point x="567" y="-25" type="curve" smooth="yes"/>
      <point x="845" y="-25"/>
    </contour>
  </outline>
</glyph>
<glyph name="DigitSix" format="2">
  <advance width="1200"/>
  <unicode hex="0036"/>
  <anchor x="600" y="-100" name="L"/>
  <anchor x="600" y="1530" name="U"/>
  <outline>
    <contour>
      <point x="949" y="1144" type="curve"/>
      <point x="991" y="1330" type="line"/>
      <point x="891" y="1396"/>
      <point x="809" y="1416"/>
      <point x="697" y="1416" type="curve" smooth="yes"/>
      <point x="244" y="1416"/>
      <point x="110" y="1000"/>
      <point x="110" y="648" type="curve" smooth="yes"/>
      <point x="110" y="230"/>
      <point x="282" y="-25"/>
      <point x="577" y="-25" type="curve" smooth="yes"/>
      <point x="870" y="-25"/>
      <point x="1069" y="157"/>
      <point x="1069" y="447" type="curve" smooth="yes"/>
      <point x="1069" y="685"/>
      <point x="905" y="853"/>
      <point x="639" y="853" type="curve" smooth="yes"/>
      <point x="457" y="853"/>
      <point x="318" y="743"/>
      <point x="210" y="595" type="curve"/>
      <point x="272" y="524" type="line"/>
      <point x="350" y="622"/>
      <point x="473" y="686"/>
      <point x="620" y="686" type="curve" smooth="yes"/>
      <point x="791" y="686"/>
      <point x="883" y="582"/>
      <point x="883" y="414" type="curve" smooth="yes"/>
      <point x="883" y="261"/>
      <point x="774" y="142"/>
      <point x="606" y="142" type="curve" smooth="yes"/>
      <point x="395" y="142"/>
      <point x="296" y="374"/>
      <point x="296" y="614" type="curve" smooth="yes"/>
      <point x="296" y="1079"/>
      <point x="461" y="1249"/>
      <point x="687" y="1249" type="curve" smooth="yes"/>
      <point x="779" y="1249"/>
      <point x="867" y="1226"/>
    </contour>
  </outline>
</glyph>
<glyph name="DigitSeven" format="2">
  <advance width="1200"/>
  <unicode hex="0037"/>
  <anchor x="600" y="-100" name="L"/>
  <anchor x="600" y="1530" name="U"/>
  <outline>
    <contour>
      <point x="267" y="0" type="curve"/>
      <point x="443" y="0" type="line"/>
      <point x="567" y="438"/>
      <point x="762" y="854"/>
      <point x="1044" y="1240" type="curve"/>
      <point x="1044" y="1393" type="line"/>
      <point x="100" y="1393" type="line"/>
      <point x="100" y="1216" type="line"/>
      <point x="173" y="1232"/>
      <point x="283" y="1235"/>
      <point x="463" y="1235" type="curve" smooth="yes"/>
      <point x="835" y="1235" type="line"/>
      <point x="588" y="870"/>
      <point x="423" y="540"/>
    </contour>
  </outline>
</glyph>
<glyph name="Colon" format="2">
  <advance width="640"/>
  <unicode hex="003A"/>
  <outline>
    <contour>
      <point x="185" y="823"/>
      <point x="185" y="753" type="curve" smooth="yes"/>
      <point x="185" y="682"/>
      <point x="243" y="624"/>
      <point x="314" y="624" type="curve" smooth="yes"/>
      <point x="384" y="624"/>
      <point x="443" y="682"/>
      <point x="443" y="753" type="curve" smooth="yes"/>
      <point x="443" y="823"/>
      <point x="384" y="881"/>
      <point x="314" y="881" type="curve" smooth="yes"/>
      <point x="243" y="881"/>
    </contour>
    <contour>
      <point x="185" y="174"/>
      <point x="185" y="104" type="curve" smooth="yes"/>
      <point x="185" y="33"/>
      <point x="243" y="-25"/>
      <point x="314" y="-25" type="curve" smooth="yes"/>
      <point x="384" y="-25"/>
      <point x="443" y="33"/>
      <point x="443" y="104" type="curve" smooth="yes"/>
      <point x="443" y="174"/>
      <point x="384" y="233"/>
      <point x="314" y="233" type="curve" smooth="yes"/>
      <point x="243" y="233"/>
    </contour>
  </outline>
</glyph>
<glyph name="LTSgn" format="2">
  <advance width="1200"/>
  <unicode hex="003C"/>
  <outline>
    <contour>
      <point x="1035" y="245" type="line"/>
      <point x="1035" y="417" type="line"/>
      <point x="281" y="708" type="line"/>
      <point x="1035" y="999" type="line"/>
      <point x="1035" y="1170" type="line"/>
      <point x="100" y="789" type="line"/>
      <point x="100" y="627" type="line"/>
    </contour>
  </outline>
</glyph>
<glyph name="GTSgn" format="2">
  <advance width="1200"/>
  <unicode hex="003E"/>
  <outline>
    <contour>
      <point x="120" y="1170" type="line"/>
      <point x="120" y="999" type="line"/>
      <point x="874" y="708" type="line"/>
      <point x="120" y="417" type="line"/>
      <point x="120" y="245" type="line"/>
      <point x="1055" y="627" type="line"/>
      <point x="1055" y="789" type="line"/>
    </contour>
  </outline>
</glyph>
<glyph name="LtnCapA" format="2">
  <advance width="1395"/>
  <unicode hex="0041"/>
  <anchor x="1230" y="0" name="H"/>
  <anchor x="687" y="-100" name="L"/>
  <anchor x="1450" y="0" name="O"/>
  <anchor x="687" y="1530" name="U"/>
  <outline>
    <contour>
      <point x="40" y="0" type="curve"/>
      <point x="236" y="0" type="line"/>
      <point x="363" y="367" type="line"/>
      <point x="950" y="367" type="line"/>
      <point x="1080" y="0" type="line"/>
      <point x="1275" y="0" type="line"/>
      <point x="1242" y="76"/>
      <point x="1206" y="161"/>
      <point x="1142" y="339" type="curve" smooth="yes"/>
      <point x="760" y="1393" type="line"/>
      <point x="555" y="1393" type="line"/>
      <point x="174" y="339" type="line" smooth="yes"/>
      <point x="109" y="160"/>
      <point x="74" y="77"/>
    </contour>
    <contour>
      <point x="655" y="1207" type="line"/>
      <point x="899" y="515" type="line"/>
      <point x="415" y="515" type="line"/>
    </contour>
  </outline>
</glyph>
<glyph name="LtnCapC" format="2">
  <advance width="1355"/>
  <unicode hex="0043"/>
  <anchor x="750" y="0" name="H"/>
  <anchor x="750" y="-100" name="L"/>
  <anchor x="750" y="1530" name="U"/>
  <outline>
    <contour>
      <point x="1178" y="132" type="curve"/>
      <point x="1140" y="318" type="line"/>
      <point x="1033" y="212"/>
      <point x="874" y="142"/>
      <point x="729" y="142" type="curve" smooth="yes"/>
      <point x="471" y="142"/>
      <point x="281" y="358"/>
      <point x="281" y="700" type="curve" smooth="yes"/>
      <point x="281" y="1066"/>
      <point x="473" y="1253"/>
      <point x="739" y="1253" type="curve" smooth="yes"/>
      <point x="854" y="1253"/>
      <point x="987" y="1218"/>
      <point x="1106" y="1110" type="curve"/>
      <point x="1163" y="1282" type="line"/>
      <point x="1027" y="1384"/>
      <point x="875" y="1416"/>
      <point x="739" y="1416" type="curve" smooth="yes"/>
      <point x="403" y="1416"/>
      <point x="95" y="1168"/>
      <point x="95" y="676" type="curve" smooth="yes"/>
      <point x="95" y="247"/>
      <point x="334" y="-25"/>
      <point x="720" y="-25" type="curve" smooth="yes"/>
      <point x="865" y="-25"/>
      <point x="1067" y="29"/>
    </contour>
  </outline>
</glyph>
<glyph name="LtnCapD" format="2">
  <advance width="1435"/>
  <unicode hex="0044"/>
  <anchor x="715" y="-100" name="L"/>
  <anchor x="715" y="1530" name="U"/>
  <outline>
    <contour>
      <point x="174" y="954" type="curve" smooth="yes"/>
      <point x="174" y="434" type="line"/>
      <point x="173" y="245"/>
      <point x="174" y="76"/>
      <point x="160" y="0" type="curve"/>
      <point x="160" y="0"/>
      <point x="453" y="-10"/>
      <point x="575" y="-10" type="curve" smooth="yes"/>
      <point x="855" y="-10"/>
      <point x="1262" y="138"/>
      <point x="1262" y="706" type="curve" smooth="yes"/>
      <point x="1262" y="1329"/>
      <point x="798" y="1402"/>
      <point x="594" y="1402" type="curve" smooth="yes"/>
      <point x="465" y="1402"/>
      <point x="241" y="1398"/>
      <point x="160" y="1392" type="curve"/>
      <point x="174" y="1316"/>
      <point x="174" y="1141"/>
    </contour>
    <contour>
      <point x="356" y="157" type="curve"/>
      <point x="356" y="1245" type="line"/>
      <point x="403" y="1246"/>
      <point x="507" y="1249"/>
      <point x="570" y="1249" type="curve" smooth="yes"/>
      <point x="845" y="1249"/>
      <point x="1076" y="1113"/>
      <point x="1076" y="686" type="curve" smooth="yes"/>
      <point x="1076" y="293"/>
      <point x="821" y="147"/>
      <point x="565" y="147" type="curve" smooth="yes"/>
      <point x="475" y="147"/>
      <point x="400" y="153"/>
    </contour>
  </outline>
</glyph>
<glyph name="LtnCapE" format="2">
  <advance width="1160"/>
  <unicode hex="0045"/>
  <anchor x="600" y="0" name="H"/>
  <anchor x="600" y="-100" name="L"/>
  <anchor x="917" y="0" name="O"/>
  <anchor x="1160" y="1200" name="R"/>
  <anchor x="600" y="1530" name="U"/>
  <outline>
    <contour>
      <point x="899" y="806" type="line"/>
      <point x="356" y="806" type="line"/>
      <point x="356" y="1235" type="line"/>
      <point x="971" y="1235" type="line"/>
      <point x="971" y="1393" type="line"/>
      <point x="160" y="1393" type="line"/>
      <point x="174" y="1317"/>
      <point x="174" y="1166"/>
      <point x="174" y="978" type="curve" smooth="yes"/>
      <point x="174" y="415" type="line" smooth="yes"/>
      <point x="174" y="227"/>
      <point x="174" y="76"/>
      <point x="160" y="0" type="curve"/>
      <point x="1000" y="0" type="line"/>
      <point x="1000" y="172" type="line"/>
      <point x="923" y="158"/>
      <point x="795" y="157"/>
      <point x="607" y="157" type="curve" smooth="yes"/>
      <point x="356" y="157" type="line"/>
      <point x="356" y="653" type="line"/>
      <point x="899" y="653" type="line"/>
    </contour>
  </outline>
</glyph>
<glyph name="LtnCapF" format="2">
  <advance width="1150"/>
  <unicode hex="0046"/>
  <anchor x="595" y="-100" name="L"/>
  <anchor x="595" y="1530" name="U"/>
  <outline>
    <contour>
      <point x="909" y="797" type="line"/>
      <point x="356" y="797" type="line"/>
      <point x="356" y="1235" type="line"/>
      <point x="990" y="1235" type="line"/>
      <point x="990" y="1393" type="line"/>
      <point x="160" y="1393" type="line"/>
      <point x="174" y="1317"/>
      <point x="174" y="1161"/>
      <point x="174" y="973" type="curve" smooth="yes"/>
      <point x="174" y="415" type="line" smooth="yes"/>
      <point x="174" y="227"/>
      <point x="174" y="76"/>
      <point x="160" y="0" type="curve"/>
      <point x="370" y="0" type="line"/>
      <point x="356" y="74"/>
      <point x="356" y="226"/>
      <point x="356" y="415" type="curve" smooth="yes"/>
      <point x="356" y="644" type="line"/>
      <point x="909" y="644" type="line"/>
    </contour>
  </outline>
</glyph>
<glyph name="G" format="2">
  <advance width="1344"/>
  <unicode hex="0047"/>
  <anchor x="768" y="1422" name="aboveUC"/>
  <anchor x="768" y="-46" name="belowLC"/>
  <outline>
    <contour>
      <point x="770" y="-25" type="curve" smooth="yes"/>
      <point x="960" y="-25"/>
      <point x="1127" y="48"/>
      <point x="1222" y="141" type="curve"/>
      <point x="1222" y="772" type="line"/>
      <point x="719" y="772" type="line"/>
      <point x="719" y="523" type="line"/>
      <point x="952" y="523" type="line"/>
      <point x="952" y="280" type="line"/>
      <point x="916" y="253"/>
      <point x="857" y="238"/>
      <point x="800" y="238" type="curve" smooth="yes"/>
      <point x="540" y="238"/>
      <point x="411" y="405"/>
      <point x="411" y="690" type="curve" smooth="yes"/>
      <point x="411" y="968"/>
      <point x="561" y="1137"/>
      <point x="776" y="1137" type="curve" smooth="yes"/>
      <point x="895" y="1137"/>
      <point x="971" y="1101"/>
      <point x="1038" y="1038" type="curve"/>
      <point x="1199" y="1224" type="line"/>
      <point x="1108" y="1319"/>
      <point x="966" y="1401"/>
      <point x="766" y="1401" type="curve" smooth="yes"/>
      <point x="398" y="1401"/>
      <point x="97" y="1135"/>
      <point x="97" y="679" type="curve" smooth="yes"/>
      <point x="97" y="217"/>
      <point x="390" y="-25"/>
    </contour>
  </outline>
</glyph>
<glyph name="LtnCapG" format="2">
  <advance width="1420"/>
  <unicode hex="0047"/>
  <anchor x="745" y="0" name="H"/>
  <anchor x="745" y="-100" name="L"/>
  <anchor x="745" y="1530" name="U"/>
  <outline>
    <contour>
      <point x="1221" y="147" type="curve"/>
      <point x="1221" y="710" type="line"/>
      <point x="706" y="710" type="line"/>
      <point x="706" y="552" type="line"/>
      <point x="1039" y="552" type="line"/>
      <point x="1039" y="233" type="line"/>
      <point x="923" y="162"/>
      <point x="840" y="142"/>
      <point x="727" y="142" type="curve" smooth="yes"/>
      <point x="454" y="142"/>
      <point x="281" y="359"/>
      <point x="281" y="710" type="curve" smooth="yes"/>
      <point x="281" y="1043"/>
      <point x="462" y="1253"/>
      <point x="753" y="1253" type="curve" smooth="yes"/>
      <point x="880" y="1253"/>
      <point x="1002" y="1226"/>
      <point x="1144" y="1110" type="curve"/>
      <point x="1206" y="1282" type="line"/>
      <point x="1039" y="1394"/>
      <point x="908" y="1416"/>
      <point x="753" y="1416" type="curve" smooth="yes"/>
      <point x="388" y="1416"/>
      <point x="95" y="1143"/>
      <point x="95" y="686" type="curve" smooth="yes"/>
      <point x="95" y="229"/>
      <point x="354" y="-25"/>
      <point x="715" y="-25" type="curve" smooth="yes"/>
      <point x="880" y="-25"/>
      <point x="1025" y="9"/>
    </contour>
  </outline>
</glyph>
<glyph name="LtnCapI" format="2">
  <advance width="975"/>
  <unicode hex="0049"/>
  <anchor x="477" y="0" name="H"/>
  <anchor x="477" y="-100" name="L"/>
  <anchor x="673" y="0" name="O"/>
  <anchor x="975" y="1200" name="R"/>
  <anchor x="477" y="1530" name="U"/>
  <outline>
    <contour>
      <point x="784" y="1393" type="line"/>
      <point x="140" y="1393" type="line"/>
      <point x="140" y="1255" type="line"/>
      <point x="369" y="1255" type="line"/>
      <point x="369" y="138" type="line"/>
      <point x="140" y="138" type="line"/>
      <point x="140" y="0" type="line"/>
      <point x="784" y="0" type="line"/>
      <point x="784" y="138" type="line"/>
      <point x="550" y="138" type="line"/>
      <point x="550" y="1255" type="line"/>
      <point x="784" y="1255" type="line"/>
    </contour>
  </outline>
</glyph>
<glyph name="LtnCapK" format="2">
  <advance width="1310"/>
  <unicode hex="004B"/>
  <anchor x="270" y="0" name="H"/>
  <anchor x="695" y="-100" name="L"/>
  <anchor x="650" y="1530" name="U"/>
  <outline>
    <contour>
      <point x="1119" y="1393" type="line"/>
      <point x="890" y="1393" type="line"/>
      <point x="289" y="671" type="line"/>
      <point x="413" y="711" type="line"/>
      <point x="513" y="706" type="line"/>
    </contour>
    <contour>
      <point x="470" y="820" type="line"/>
      <point x="341" y="701" type="line"/>
      <point x="947" y="0" type="line"/>
      <point x="1181" y="0" type="line"/>
    </contour>
    <contour>
      <point x="356" y="0" type="line"/>
      <point x="356" y="1393" type="line"/>
      <point x="160" y="1393" type="line"/>
      <point x="174" y="1317"/>
      <point x="174" y="1166"/>
      <point x="174" y="978" type="curve" smooth="yes"/>
      <point x="174" y="415" type="line" smooth="yes"/>
      <point x="174" y="227"/>
      <point x="174" y="76"/>
      <point x="160" y="0" type="curve"/>
    </contour>
  </outline>
</glyph>
<glyph name="LtnCapL" format="2">
  <advance width="1080"/>
  <unicode hex="004C"/>
  <anchor x="592" y="0" name="H"/>
  <anchor x="592" y="-100" name="L"/>
  <anchor x="540" y="1200" name="R"/>
  <anchor x="592" y="1530" name="U"/>
  <outline>
    <contour>
      <point x="569" y="157" type="curve" smooth="yes"/>
      <point x="356" y="157" type="line"/>
      <point x="356" y="1393" type="line"/>
      <point x="160" y="1393" type="line"/>
      <point x="174" y="1317"/>
      <point x="174" y="1166"/>
      <point x="174" y="978" type="curve" smooth="yes"/>
      <point x="174" y="415" type="line" smooth="yes"/>
      <point x="174" y="227"/>
      <point x="174" y="76"/>
      <point x="160" y="0" type="curve"/>
      <point x="985" y="0" type="line"/>
      <point x="985" y="172" type="line"/>
      <point x="909" y="158"/>
      <point x="757" y="157"/>
    </contour>
  </outline>
</glyph>
<glyph name="LtnCapM" format="2">
  <advance width="1795"/>
  <unicode hex="004D"/>
  <anchor x="885" y="-100" name="L"/>
  <anchor x="885" y="1530" name="U"/>
  <outline>
    <contour>
      <point x="1267" y="1393" type="line"/>
      <point x="852" y="196" type="line"/>
      <point x="441" y="1393" type="line"/>
      <point x="279" y="1393" type="line"/>
      <point x="761" y="0" type="line"/>
      <point x="947" y="0" type="line"/>
      <point x="1426" y="1393" type="line"/>
    </contour>
    <contour>
      <point x="394" y="1393" type="line"/>
      <point x="227" y="1393" type="line"/>
      <point x="227" y="1393"/>
      <point x="185" y="189"/>
      <point x="160" y="0" type="curve"/>
      <point x="336" y="0" type="line"/>
      <point x="367" y="1150" type="line"/>
    </contour>
    <contour>
      <point x="1367" y="0" type="line"/>
      <point x="1543" y="0" type="line"/>
      <point x="1516" y="189"/>
      <point x="1477" y="1393"/>
      <point x="1477" y="1393" type="curve"/>
      <point x="1310" y="1393" type="line"/>
      <point x="1340" y="1150" type="line"/>
    </contour>
  </outline>
</glyph>
<glyph name="M" format="2">
  <advance width="1606"/>
  <unicode hex="004D"/>
  <anchor x="802" y="1422" name="aboveUC"/>
  <anchor x="806" y="-46" name="belowLC"/>
  <outline>
    <contour>
      <point x="162" y="0" type="line"/>
      <point x="436" y="0" type="line"/>
      <point x="436" y="517" type="line" smooth="yes"/>
      <point x="436" y="650"/>
      <point x="413" y="880"/>
      <point x="398" y="1015" type="curve"/>
      <point x="407" y="1015" type="line"/>
      <point x="517" y="656" type="line"/>
      <point x="713" y="120" type="line"/>
      <point x="884" y="120" type="line"/>
      <point x="1082" y="656" type="line"/>
      <point x="1194" y="1015" type="line"/>
      <point x="1203" y="1015" type="line"/>
      <point x="1188" y="880"/>
      <point x="1165" y="650"/>
      <point x="1165" y="517" type="curve" smooth="yes"/>
      <point x="1165" y="0" type="line"/>
      <point x="1441" y="0" type="line"/>
      <point x="1441" y="1376" type="line"/>
      <point x="1108" y="1376" type="line"/>
      <point x="890" y="759" type="line"/>
      <point x="863" y="677"/>
      <point x="838" y="588"/>
      <point x="810" y="504" type="curve"/>
      <point x="802" y="504" type="line"/>
      <point x="774" y="588"/>
      <point x="749" y="677"/>
      <point x="721" y="759" type="curve"/>
      <point x="498" y="1376" type="line"/>
      <point x="162" y="1376" type="line"/>
    </contour>
  </outline>
</glyph>
<glyph name="LtnCapQ" format="2">
  <advance width="1475"/>
  <unicode hex="0051"/>
  <anchor x="717" y="-270" name="L"/>
  <anchor x="717" y="1530" name="U"/>
  <outline>
    <contour>
      <point x="1283" y="448"/>
      <point x="1283" y="697" type="curve" smooth="yes"/>
      <point x="1283" y="1154"/>
      <point x="1009" y="1408"/>
      <point x="701" y="1408" type="curve" smooth="yes"/>
      <point x="393" y="1408"/>
      <point x="95" y="1135"/>
      <point x="95" y="678" type="curve" smooth="yes"/>
      <point x="95" y="221"/>
      <point x="370" y="-33"/>
      <point x="677" y="-33" type="curve" smooth="yes"/>
      <point x="736" y="-33"/>
      <point x="785" y="-26"/>
      <point x="839" y="-9" type="curve"/>
      <point x="905" y="-9"/>
      <point x="1184" y="-190"/>
      <point x="1264" y="-190" type="curve" smooth="yes"/>
      <point x="1315" y="-190"/>
      <point x="1370" y="-86"/>
      <point x="1392" y="-52" type="curve"/>
      <point x="1265" y="-35"/>
      <point x="1154" y="18"/>
      <point x="1035" y="91" type="curve"/>
      <point x="1203" y="216"/>
    </contour>
    <contour>
      <point x="1097" y="1025"/>
      <point x="1097" y="673" type="curve" smooth="yes"/>
      <point x="1097" y="335"/>
      <point x="925" y="134"/>
      <point x="691" y="134" type="curve" smooth="yes"/>
      <point x="443" y="134"/>
      <point x="281" y="354"/>
      <point x="281" y="702" type="curve" smooth="yes"/>
      <point x="281" y="1032"/>
      <point x="450" y="1241"/>
      <point x="691" y="1241" type="curve" smooth="yes"/>
      <point x="934" y="1241"/>
    </contour>
  </outline>
</glyph>
<glyph name="LtnCapT" format="2">
  <advance width="1265"/>
  <unicode hex="0054"/>
  <anchor x="622" y="0" name="H"/>
  <anchor x="622" y="-100" name="L"/>
  <anchor x="622" y="1530" name="U"/>
  <outline>
    <contour>
      <point x="1147" y="1393" type="line"/>
      <point x="45" y="1393" type="line"/>
      <point x="45" y="1216" type="line"/>
      <point x="121" y="1233"/>
      <point x="194" y="1235"/>
      <point x="279" y="1235" type="curve" smooth="yes"/>
      <point x="503" y="1235" type="line"/>
      <point x="503" y="415" type="line" smooth="yes"/>
      <point x="503" y="227"/>
      <point x="500" y="76"/>
      <point x="484" y="0" type="curve"/>
      <point x="703" y="0" type="line"/>
      <point x="687" y="76"/>
      <point x="684" y="227"/>
      <point x="684" y="415" type="curve" smooth="yes"/>
      <point x="684" y="1235" type="line"/>
      <point x="913" y="1235" type="line" smooth="yes"/>
      <point x="999" y="1235"/>
      <point x="1071" y="1233"/>
      <point x="1147" y="1216" type="curve"/>
    </contour>
  </outline>
</glyph>
<glyph name="LtnCapX" format="2">
  <advance width="1325"/>
  <unicode hex="0058"/>
  <anchor x="650" y="-100" name="L"/>
  <anchor x="650" y="1530" name="U"/>
  <outline>
    <contour>
      <point x="317" y="1059" type="curve"/>
      <point x="514" y="745" type="line"/>
      <point x="255" y="324" type="line" smooth="yes"/>
      <point x="132" y="126"/>
      <point x="100" y="82"/>
      <point x="40" y="0" type="curve"/>
      <point x="259" y="0" type="line"/>
      <point x="614" y="586" type="line"/>
      <point x="984" y="0" type="line"/>
      <point x="1204" y="0" type="line"/>
      <point x="1146" y="78"/>
      <point x="1113" y="121"/>
      <point x="987" y="321" type="curve" smooth="yes"/>
      <point x="728" y="732" type="line"/>
      <point x="929" y="1059" type="line" smooth="yes"/>
      <point x="1048" y="1253"/>
      <point x="1097" y="1319"/>
      <point x="1156" y="1393" type="curve"/>
      <point x="932" y="1393" type="line"/>
      <point x="628" y="891" type="line"/>
      <point x="312" y="1393" type="line"/>
      <point x="88" y="1393" type="line"/>
      <point x="149" y="1313"/>
      <point x="194" y="1255"/>
    </contour>
  </outline>
</glyph>
<glyph name="ReverseSolidus" format="2">
  <advance width="1025"/>
  <unicode hex="005C"/>
  <outline>
    <contour>
      <point x="353" y="1521" type="line"/>
      <point x="210" y="1492" type="line"/>
      <point x="663" y="-115" type="line"/>
      <point x="801" y="-86" type="line"/>
    </contour>
  </outline>
</glyph>
<glyph name="RtSqrBrac" format="2">
  <advance width="790"/>
  <unicode hex="005D"/>
  <outline>
    <contour>
      <point x="150" y="-410" type="line"/>
      <point x="570" y="-410" type="line"/>
      <point x="570" y="1508" type="line"/>
      <point x="150" y="1508" type="line"/>
      <point x="150" y="1364" type="line"/>
      <point x="393" y="1364" type="line"/>
      <point x="393" y="-267" type="line"/>
      <point x="150" y="-267" type="line"/>
    </contour>
  </outline>
</glyph>
<glyph name="bracketright" format="2">
  <advance width="721"/>
  <unicode hex="005D"/>
  <outline>
    <contour>
      <point x="94" y="-320" type="line"/>
      <point x="538" y="-320" type="line"/>
      <point x="538" y="1494" type="line"/>
      <point x="94" y="1494" type="line"/>
      <point x="94" y="1332" type="line"/>
      <point x="312" y="1332" type="line"/>
      <point x="312" y="-158" type="line"/>
      <point x="94" y="-158" type="line"/>
    </contour>
  </outline>
</glyph>
<glyph name="LowLine" format="2">
  <advance width="1274"/>
  <unicode hex="005F"/>
  <outline>
    <contour>
      <point x="0" y="-177" type="line"/>
      <point x="0" y="-320" type="line"/>
      <point x="1215" y="-320" type="line"/>
      <point x="1215" y="-177" type="line"/>
    </contour>
  </outline>
</glyph>
<glyph name="underscore" format="2">
  <advance width="1055"/>
  <unicode hex="005F"/>
  <outline>
    <contour>
      <point x="25" y="-295" type="line"/>
      <point x="1030" y="-295" type="line"/>
      <point x="1030" y="-122" type="line"/>
      <point x="25" y="-122" type="line"/>
    </contour>
  </outline>
</glyph>
<glyph name="LtnSmB" format="2">
  <advance width="1155"/>
  <unicode hex="0062"/>
  <anchor x="590" y="0" name="H"/>
  <anchor x="590" y="-100" name="L"/>
  <anchor x="1155" y="1000" name="R"/>
  <anchor x="590" y="1635" name="U"/>
  <outline>
    <contour>
      <point x="321" y="1525" type="curve"/>
      <point x="130" y="1525" type="line"/>
      <point x="144" y="1418"/>
      <point x="144" y="1213"/>
      <point x="144" y="1077" type="curve" smooth="yes"/>
      <point x="144" y="892"/>
      <point x="144" y="216"/>
      <point x="144" y="61" type="curve"/>
      <point x="265" y="24"/>
      <point x="400" y="-25"/>
      <point x="555" y="-25" type="curve" smooth="yes"/>
      <point x="836" y="-25"/>
      <point x="1017" y="187"/>
      <point x="1017" y="514" type="curve" smooth="yes"/>
      <point x="1017" y="793"/>
      <point x="881" y="991"/>
      <point x="688" y="991" type="curve" smooth="yes"/>
      <point x="528" y="991"/>
      <point x="410" y="902"/>
      <point x="321" y="786" type="curve"/>
      <point x="321" y="873"/>
      <point x="321" y="1525"/>
    </contour>
    <contour>
      <point x="321" y="175" type="curve"/>
      <point x="321" y="557" type="line"/>
      <point x="386" y="715"/>
      <point x="513" y="824"/>
      <point x="631" y="824" type="curve" smooth="yes"/>
      <point x="768" y="824"/>
      <point x="846" y="692"/>
      <point x="846" y="481" type="curve" smooth="yes"/>
      <point x="846" y="266"/>
      <point x="723" y="123"/>
      <point x="555" y="123" type="curve" smooth="yes"/>
      <point x="472" y="123"/>
      <point x="414" y="136"/>
    </contour>
  </outline>
</glyph>
<glyph name="LtnSmD" format="2">
  <advance width="1190"/>
  <unicode hex="0064"/>
  <anchor x="605" y="0" name="H"/>
  <anchor x="605" y="-100" name="L"/>
  <anchor x="1190" y="1000" name="R"/>
  <anchor x="605" y="1635" name="U"/>
  <outline>
    <contour>
      <point x="987" y="504" type="curve"/>
      <point x="987" y="1525" type="line"/>
      <point x="787" y="1525" type="line"/>
      <point x="805" y="1445"/>
      <point x="811" y="1330"/>
      <point x="811" y="1177" type="curve"/>
      <point x="811" y="910" type="line"/>
      <point x="737" y="952"/>
      <point x="639" y="991"/>
      <point x="558" y="991" type="curve" smooth="yes"/>
      <point x="302" y="991"/>
      <point x="105" y="775"/>
      <point x="105" y="438" type="curve" smooth="yes"/>
      <point x="105" y="158"/>
      <point x="254" y="-25"/>
      <point x="487" y="-25" type="curve" smooth="yes"/>
      <point x="627" y="-25"/>
      <point x="744" y="47"/>
      <point x="835" y="175" type="curve"/>
      <point x="851" y="105"/>
      <point x="873" y="31"/>
      <point x="887" y="-1" type="curve"/>
      <point x="1059" y="-1" type="line"/>
      <point x="1018" y="106"/>
      <point x="987" y="264"/>
    </contour>
    <contour>
      <point x="811" y="757" type="curve"/>
      <point x="811" y="380" type="line"/>
      <point x="758" y="255"/>
      <point x="636" y="128"/>
      <point x="520" y="128" type="curve" smooth="yes"/>
      <point x="354" y="128"/>
      <point x="281" y="245"/>
      <point x="281" y="466" type="curve" smooth="yes"/>
      <point x="281" y="692"/>
      <point x="414" y="829"/>
      <point x="558" y="829" type="curve" smooth="yes"/>
      <point x="655" y="829"/>
      <point x="717" y="808"/>
    </contour>
  </outline>
</glyph>
<glyph name="LtnSmE" format="2">
  <advance width="1095"/>
  <unicode hex="0065"/>
  <anchor x="545" y="0" name="H"/>
  <anchor x="569" y="-100" name="L"/>
  <anchor x="900" y="0" name="O"/>
  <anchor x="1095" y="1000" name="R"/>
  <anchor x="569" y="1100" name="U"/>
  <outline>
    <contour>
      <point x="238" y="462" type="line"/>
      <point x="948" y="462" type="line"/>
      <point x="949" y="479"/>
      <point x="949" y="519"/>
      <point x="949" y="536" type="curve" smooth="yes"/>
      <point x="949" y="751"/>
      <point x="868" y="991"/>
      <point x="553" y="991" type="curve" smooth="yes"/>
      <point x="271" y="991"/>
      <point x="95" y="787"/>
      <point x="95" y="471" type="curve" smooth="yes"/>
      <point x="95" y="147"/>
      <point x="310" y="-25"/>
      <point x="553" y="-25" type="curve" smooth="yes"/>
      <point x="700" y="-25"/>
      <point x="818" y="1"/>
      <point x="954" y="70" type="curve"/>
      <point x="935" y="228" type="line"/>
      <point x="818" y="157"/>
      <point x="700" y="132"/>
      <point x="577" y="132" type="curve" smooth="yes"/>
      <point x="399" y="132"/>
      <point x="271" y="245"/>
      <point x="271" y="481" type="curve" smooth="yes"/>
      <point x="271" y="733"/>
      <point x="372" y="848"/>
      <point x="539" y="848" type="curve" smooth="yes"/>
      <point x="677" y="848"/>
      <point x="777" y="759"/>
      <point x="777" y="595" type="curve"/>
      <point x="238" y="595" type="line"/>
    </contour>
  </outline>
</glyph>
<glyph name="e" format="2">
  <advance width="1091"/>
  <unicode hex="0065"/>
  <anchor x="565" y="1093" name="aboveLC"/>
  <anchor x="565" y="0" name="baseLC"/>
  <anchor x="565" y="-46" name="belowLC"/>
  <anchor x="751" y="0" name="ogonekLC"/>
  <outline>
    <contour>
      <point x="603" y="-25" type="curve" smooth="yes"/>
      <point x="730" y="-25"/>
      <point x="867" y="16"/>
      <point x="975" y="92" type="curve"/>
      <point x="878" y="274" type="line"/>
      <point x="802" y="230"/>
      <point x="726" y="206"/>
      <point x="645" y="206" type="curve" smooth="yes"/>
      <point x="504" y="206"/>
      <point x="398" y="280"/>
      <point x="371" y="434" type="curve"/>
      <point x="1000" y="434" type="line"/>
      <point x="1006" y="460"/>
      <point x="1013" y="515"/>
      <point x="1013" y="569" type="curve" smooth="yes"/>
      <point x="1013" y="857"/>
      <point x="865" y="1072"/>
      <point x="569" y="1072" type="curve" smooth="yes"/>
      <point x="318" y="1072"/>
      <point x="75" y="861"/>
      <point x="75" y="523" type="curve" smooth="yes"/>
      <point x="75" y="177"/>
      <point x="308" y="-25"/>
    </contour>
    <contour>
      <point x="367" y="635" type="line"/>
      <point x="388" y="770"/>
      <point x="474" y="840"/>
      <point x="576" y="840" type="curve" smooth="yes"/>
      <point x="700" y="840"/>
      <point x="753" y="755"/>
      <point x="753" y="635" type="curve"/>
    </contour>
  </outline>
</glyph>
<glyph name="LtnSmI" format="2">
  <advance width="565"/>
  <unicode hex="0069"/>
  <anchor x="282" y="0" name="H"/>
  <anchor x="285" y="-100" name="L"/>
  <anchor x="500" y="0" name="O"/>
  <anchor x="555" y="1000" name="R"/>
  <anchor x="282" y="1100" name="U"/>
  <outline>
    <contour>
      <point x="365" y="453" type="curve" smooth="yes"/>
      <point x="365" y="973" type="line"/>
      <point x="174" y="973" type="line"/>
      <point x="186" y="873"/>
      <point x="188" y="692"/>
      <point x="188" y="506" type="curve" smooth="yes"/>
      <point x="188" y="321"/>
      <point x="188" y="0"/>
      <point x="188" y="0" type="curve"/>
      <point x="384" y="0" type="line"/>
      <point x="372" y="102"/>
      <point x="365" y="330"/>
    </contour>
    <contour>
      <point x="155" y="1354"/>
      <point x="155" y="1283" type="curve" smooth="yes"/>
      <point x="155" y="1213"/>
      <point x="204" y="1154"/>
      <point x="274" y="1154" type="curve" smooth="yes"/>
      <point x="346" y="1154"/>
      <point x="398" y="1213"/>
      <point x="398" y="1283" type="curve" smooth="yes"/>
      <point x="398" y="1354"/>
      <point x="346" y="1412"/>
      <point x="274" y="1412" type="curve" smooth="yes"/>
      <point x="204" y="1412"/>
    </contour>
  </outline>
</glyph>
<glyph name="LtnSmL" format="2">
  <advance width="565"/>
  <unicode hex="006C"/>
  <anchor x="290" y="0" name="H"/>
  <anchor x="290" y="-100" name="L"/>
  <anchor x="550" y="1000" name="R"/>
  <anchor x="282" y="1635" name="U"/>
  <outline>
    <contour>
      <point x="366" y="453" type="curve" smooth="yes"/>
      <point x="366" y="1526" type="line"/>
      <point x="170" y="1526" type="line"/>
      <point x="182" y="1417"/>
      <point x="189" y="1263"/>
      <point x="189" y="1078" type="curve"/>
      <point x="189" y="0" type="line"/>
      <point x="385" y="0" type="line"/>
      <point x="372" y="104"/>
      <point x="366" y="330"/>
    </contour>
  </outline>
</glyph>
<glyph name="LtnSmM" format="2">
  <advance width="1685"/>
  <unicode hex="006D"/>
  <anchor x="865" y="0" name="H"/>
  <anchor x="865" y="-100" name="L"/>
  <anchor x="865" y="1100" name="U"/>
  <outline>
    <contour>
      <point x="907" y="0" type="line"/>
      <point x="907" y="630" type="line"/>
      <point x="963" y="749"/>
      <point x="1057" y="825"/>
      <point x="1151" y="825" type="curve" smooth="yes"/>
      <point x="1257" y="825"/>
      <point x="1289" y="771"/>
      <point x="1289" y="525" type="curve" smooth="yes"/>
      <point x="1289" y="0" type="line"/>
      <point x="1465" y="0" type="line"/>
      <point x="1465" y="630" type="line" smooth="yes"/>
      <point x="1465" y="865"/>
      <point x="1401" y="992"/>
      <point x="1208" y="992" type="curve" smooth="yes"/>
      <point x="1108" y="992"/>
      <point x="1004" y="961"/>
      <point x="884" y="832" type="curve"/>
      <point x="853" y="916"/>
      <point x="775" y="992"/>
      <point x="650" y="992" type="curve" smooth="yes"/>
      <point x="540" y="992"/>
      <point x="444" y="960"/>
      <point x="327" y="825" type="curve"/>
      <point x="321" y="871"/>
      <point x="311" y="933"/>
      <point x="297" y="973" type="curve"/>
      <point x="125" y="973" type="line"/>
      <point x="145" y="907"/>
      <point x="173" y="774"/>
      <point x="173" y="587" type="curve" smooth="yes"/>
      <point x="173" y="0" type="line"/>
      <point x="349" y="0" type="line"/>
      <point x="349" y="630" type="line"/>
      <point x="400" y="744"/>
      <point x="499" y="825"/>
      <point x="592" y="825" type="curve" smooth="yes"/>
      <point x="699" y="825"/>
      <point x="731" y="780"/>
      <point x="731" y="544" type="curve" smooth="yes"/>
      <point x="731" y="0" type="line"/>
    </contour>
  </outline>
</glyph>
<glyph name="LtnSmO" format="2">
  <advance width="1140"/>
  <unicode hex="006F"/>
  <anchor x="570" y="0" name="H"/>
  <anchor x="570" y="-100" name="L"/>
  <anchor x="790" y="0" name="O"/>
  <anchor x="1140" y="1000" name="R"/>
  <anchor x="570" y="1100" name="U"/>
  <outline>
    <contour>
      <point x="95" y="809"/>
      <point x="95" y="481" type="curve" smooth="yes"/>
      <point x="95" y="152"/>
      <point x="277" y="-25"/>
      <point x="539" y="-25" type="curve" smooth="yes"/>
      <point x="790" y="-25"/>
      <point x="1001" y="152"/>
      <point x="1001" y="481" type="curve" smooth="yes"/>
      <point x="1001" y="809"/>
      <point x="820" y="991"/>
      <point x="558" y="991" type="curve" smooth="yes"/>
      <point x="307" y="991"/>
    </contour>
    <contour>
      <point x="271" y="258"/>
      <point x="271" y="481" type="curve" smooth="yes"/>
      <point x="271" y="704"/>
      <point x="394" y="838"/>
      <point x="548" y="838" type="curve" smooth="yes"/>
      <point x="712" y="838"/>
      <point x="825" y="704"/>
      <point x="825" y="481" type="curve" smooth="yes"/>
      <point x="825" y="258"/>
      <point x="702" y="128"/>
      <point x="548" y="128" type="curve" smooth="yes"/>
      <point x="384" y="128"/>
    </contour>
  </outline>
</glyph>
<glyph name="LtnSmP" format="2">
  <advance width="1170"/>
  <unicode hex="0070"/>
  <anchor x="265" y="-435" name="H"/>
  <anchor x="590" y="-500" name="L"/>
  <anchor x="1170" y="1000" name="R"/>
  <anchor x="590" y="1100" name="U"/>
  <outline>
    <contour>
      <point x="277" y="951" type="curve"/>
      <point x="105" y="951" type="line"/>
      <point x="148" y="843"/>
      <point x="153" y="678"/>
      <point x="153" y="440" type="curve" smooth="yes"/>
      <point x="153" y="255"/>
      <point x="153" y="-490"/>
      <point x="153" y="-490" type="curve"/>
      <point x="353" y="-490" type="line"/>
      <point x="337" y="-409"/>
      <point x="329" y="-318"/>
      <point x="329" y="-166" type="curve"/>
      <point x="329" y="59" type="line"/>
      <point x="420" y="-5"/>
      <point x="494" y="-46"/>
      <point x="596" y="-46" type="curve" smooth="yes"/>
      <point x="836" y="-46"/>
      <point x="1030" y="162"/>
      <point x="1030" y="488" type="curve" smooth="yes"/>
      <point x="1030" y="767"/>
      <point x="885" y="970"/>
      <point x="668" y="970" type="curve" smooth="yes"/>
      <point x="527" y="970"/>
      <point x="405" y="888"/>
      <point x="315" y="769" type="curve"/>
      <point x="306" y="857"/>
      <point x="291" y="918"/>
    </contour>
    <contour>
      <point x="329" y="226" type="curve"/>
      <point x="329" y="526" type="line"/>
      <point x="400" y="710"/>
      <point x="525" y="807"/>
      <point x="634" y="807" type="curve" smooth="yes"/>
      <point x="772" y="807"/>
      <point x="854" y="671"/>
      <point x="854" y="459" type="curve" smooth="yes"/>
      <point x="854" y="244"/>
      <point x="731" y="111"/>
      <point x="596" y="111" type="curve" smooth="yes"/>
      <point x="509" y="111"/>
      <point x="460" y="134"/>
    </contour>
  </outline>
</glyph>
<glyph name="u" format="2">
  <advance width="1196"/>
  <unicode hex="0075"/>
  <anchor x="599" y="1093" name="aboveLC"/>
  <anchor x="531" y="0" name="baseLC"/>
  <anchor x="586" y="-46" name="belowLC"/>
  <anchor x="907" y="1068" name="hornLC"/>
  <anchor x="867" y="0" name="ogonekLC"/>
  <outline>
    <contour>
      <point x="451" y="-25" type="curve" smooth="yes"/>
      <point x="595" y="-25"/>
      <point x="694" y="42"/>
      <point x="781" y="145" type="curve"/>
      <point x="789" y="145" type="line"/>
      <point x="810" y="0" type="line"/>
      <point x="1059" y="0" type="line"/>
      <point x="1059" y="1047" type="line"/>
      <point x="755" y="1047" type="line"/>
      <point x="755" y="352" type="line"/>
      <point x="692" y="268"/>
      <point x="643" y="234"/>
      <point x="565" y="234" type="curve" smooth="yes"/>
      <point x="472" y="234"/>
      <point x="432" y="282"/>
      <point x="432" y="434" type="curve" smooth="yes"/>
      <point x="432" y="1047" type="line"/>
      <point x="128" y="1047" type="line"/>
      <point x="128" y="396" type="line" smooth="yes"/>
      <point x="128" y="135"/>
      <point x="225" y="-25"/>
    </contour>
  </outline>
</glyph>
<glyph name="LtnSmV" format="2">
  <advance width="1070"/>
  <unicode hex="0076"/>
  <anchor x="549" y="0" name="H"/>
  <anchor x="535" y="-100" name="L"/>
  <anchor x="725" y="0" name="O"/>
  <anchor x="535" y="1100" name="U"/>
  <outline>
    <contour>
      <point x="1003" y="973" type="curve"/>
      <point x="802" y="973" type="line"/>
      <point x="511" y="191" type="line"/>
      <point x="220" y="973" type="line"/>
      <point x="20" y="973" type="line"/>
      <point x="72" y="863"/>
      <point x="137" y="712"/>
      <point x="168" y="634" type="curve" smooth="yes"/>
      <point x="227" y="487"/>
      <point x="421" y="0"/>
      <point x="421" y="0" type="curve"/>
      <point x="602" y="0" type="line"/>
      <point x="602" y="0"/>
      <point x="804" y="511"/>
      <point x="855" y="634" type="curve" smooth="yes"/>
      <point x="886" y="710"/>
      <point x="948" y="863"/>
    </contour>
  </outline>
</glyph>
<glyph name="w" format="2">
  <advance width="1631"/>
  <unicode hex="0077"/>
  <anchor x="816" y="1093" name="aboveLC"/>
  <anchor x="816" y="-46" name="belowLC"/>
  <outline>
    <contour>
      <point x="314" y="0" type="line"/>
      <point x="662" y="0" type="line"/>
      <point x="755" y="424" type="line"/>
      <point x="776" y="521"/>
      <point x="791" y="618"/>
      <point x="810" y="730" type="curve"/>
      <point x="819" y="730" type="line"/>
      <point x="838" y="618"/>
      <point x="854" y="521"/>
      <point x="876" y="424" type="curve"/>
      <point x="973" y="0" type="line"/>
      <point x="1329" y="0" type="line"/>
      <point x="1581" y="1047" type="line"/>
      <point x="1300" y="1047" type="line"/>
      <point x="1199" y="557" type="line"/>
      <point x="1180" y="453"/>
      <point x="1167" y="352"/>
      <point x="1150" y="246" type="curve"/>
      <point x="1142" y="246" type="line"/>
      <point x="1118" y="352"/>
      <point x="1099" y="453"/>
      <point x="1074" y="557" type="curve"/>
      <point x="956" y="1047" type="line"/>
      <point x="690" y="1047" type="line"/>
      <point x="574" y="557" type="line"/>
      <point x="548" y="458"/>
      <point x="529" y="352"/>
      <point x="512" y="246" type="curve"/>
      <point x="504" y="246" type="line"/>
      <point x="485" y="352"/>
      <point x="474" y="453"/>
      <point x="455" y="557" type="curve"/>
      <point x="352" y="1047" type="line"/>
      <point x="50" y="1047" type="line"/>
    </contour>
  </outline>
</glyph>
<glyph name="LtnSmY" format="2">
  <advance width="1060"/>
  <unicode hex="0079"/>
  <anchor x="795" y="-100" name="L"/>
  <anchor x="1120" y="1000" name="R"/>
  <anchor x="535" y="1100" name="U"/>
  <outline>
    <contour>
      <point x="500" y="-179" type="line"/>
      <point x="581" y="36" type="line"/>
      <point x="219" y="951" type="line"/>
      <point x="28" y="951" type="line"/>
      <point x="101" y="803"/>
      <point x="145" y="700"/>
      <point x="180" y="613" type="curve" smooth="yes"/>
    </contour>
    <contour>
      <point x="624" y="-22" type="curve"/>
      <point x="853" y="613" type="line"/>
      <point x="884" y="702"/>
      <point x="925" y="804"/>
      <point x="991" y="951" type="curve"/>
      <point x="800" y="951" type="line"/>
      <point x="800" y="951"/>
      <point x="537" y="198"/>
      <point x="476" y="31" type="curve" smooth="yes"/>
      <point x="372" y="-258"/>
      <point x="300" y="-308"/>
      <point x="214" y="-308" type="curve" smooth="yes"/>
      <point x="151" y="-308"/>
      <point x="77" y="-270"/>
      <point x="37" y="-236" type="curve"/>
      <point x="-20" y="-389" type="line"/>
      <point x="50" y="-440"/>
      <point x="127" y="-470"/>
      <point x="214" y="-470" type="curve" smooth="yes"/>
      <point x="376" y="-470"/>
      <point x="491" y="-387"/>
    </contour>
  </outline>
</glyph>
<glyph name="LtnSmZ" format="2">
  <advance width="1040"/>
  <unicode hex="007A"/>
  <anchor x="525" y="0" name="H"/>
  <anchor x="525" y="-100" name="L"/>
  <anchor x="525" y="1100" name="U"/>
  <outline>
    <contour>
      <point x="892" y="973" type="line"/>
      <point x="134" y="973" type="line"/>
      <point x="134" y="816" type="line"/>
      <point x="169" y="830"/>
      <point x="225" y="830"/>
      <point x="281" y="830" type="curve" smooth="yes"/>
      <point x="654" y="830" type="line"/>
      <point x="105" y="105" type="line"/>
      <point x="105" y="0" type="line"/>
      <point x="906" y="0" type="line"/>
      <point x="906" y="157" type="line"/>
      <point x="849" y="143"/>
      <point x="790" y="143"/>
      <point x="735" y="143" type="curve" smooth="yes"/>
      <point x="324" y="143" type="line"/>
      <point x="892" y="882" type="line"/>
    </contour>
  </outline>
</glyph>
<glyph name="LftCurlyBrac" format="2">
  <advance width="1000"/>
  <unicode hex="007B"/>
  <outline>
    <contour>
      <point x="210" y="598"/>
      <point x="210" y="568" type="curve" smooth="yes"/>
      <point x="210" y="537"/>
      <point x="375" y="445"/>
      <point x="401" y="410" type="curve" smooth="yes"/>
      <point x="424" y="380"/>
      <point x="414" y="-214"/>
      <point x="482" y="-291" type="curve" smooth="yes"/>
      <point x="520" y="-334"/>
      <point x="674" y="-384"/>
      <point x="773" y="-410" type="curve"/>
      <point x="811" y="-276" type="line"/>
      <point x="747" y="-254"/>
      <point x="630" y="-208"/>
      <point x="611" y="-181" type="curve" smooth="yes"/>
      <point x="579" y="-136"/>
      <point x="592" y="408"/>
      <point x="573" y="444" type="curve" smooth="yes"/>
      <point x="554" y="478"/>
      <point x="424" y="547"/>
      <point x="420" y="568" type="curve"/>
      <point x="424" y="589"/>
      <point x="554" y="658"/>
      <point x="573" y="692" type="curve" smooth="yes"/>
      <point x="592" y="728"/>
      <point x="579" y="1272"/>
      <point x="611" y="1317" type="curve" smooth="yes"/>
      <point x="630" y="1343"/>
      <point x="747" y="1390"/>
      <point x="811" y="1412" type="curve"/>
      <point x="773" y="1546" type="line"/>
      <point x="674" y="1520"/>
      <point x="520" y="1469"/>
      <point x="482" y="1426" type="curve" smooth="yes"/>
      <point x="414" y="1350"/>
      <point x="424" y="756"/>
      <point x="401" y="725" type="curve" smooth="yes"/>
      <point x="375" y="691"/>
    </contour>
  </outline>
</glyph>
<glyph name="RtCurlyBrac" format="2">
  <advance width="1000"/>
  <unicode hex="007D"/>
  <outline>
    <contour>
      <point x="761" y="537"/>
      <point x="761" y="568" type="curve" smooth="yes"/>
      <point x="761" y="598"/>
      <point x="596" y="691"/>
      <point x="570" y="725" type="curve" smooth="yes"/>
      <point x="547" y="756"/>
      <point x="557" y="1350"/>
      <point x="489" y="1426" type="curve" smooth="yes"/>
      <point x="451" y="1469"/>
      <point x="297" y="1520"/>
      <point x="198" y="1546" type="curve"/>
      <point x="160" y="1412" type="line"/>
      <point x="224" y="1390"/>
      <point x="341" y="1343"/>
      <point x="360" y="1317" type="curve" smooth="yes"/>
      <point x="392" y="1272"/>
      <point x="379" y="728"/>
      <point x="399" y="692" type="curve" smooth="yes"/>
      <point x="417" y="658"/>
      <point x="547" y="589"/>
      <point x="551" y="568" type="curve"/>
      <point x="547" y="547"/>
      <point x="417" y="478"/>
      <point x="399" y="444" type="curve" smooth="yes"/>
      <point x="379" y="408"/>
      <point x="392" y="-136"/>
      <point x="360" y="-181" type="curve" smooth="yes"/>
      <point x="341" y="-208"/>
      <point x="224" y="-254"/>
      <point x="160" y="-276" type="curve"/>
      <point x="198" y="-410" type="line"/>
      <point x="297" y="-384"/>
      <point x="451" y="-334"/>
      <point x="489" y="-291" type="curve" smooth="yes"/>
      <point x="557" y="-214"/>
      <point x="547" y="380"/>
      <point x="570" y="410" type="curve" smooth="yes"/>
      <point x="596" y="445"/>
    </contour>
  </outline>
</glyph>
<glyph name="cent" format="2">
  <advance width="1112"/>
  <unicode hex="00A2"/>
  <outline>
    <contour>
      <point x="677" y="109" type="curve" smooth="yes"/>
      <point x="791" y="109"/>
      <point x="924" y="151"/>
      <point x="1025" y="240" type="curve"/>
      <point x="903" y="432" type="line"/>
      <point x="850" y="392"/>
      <point x="787" y="354"/>
      <point x="711" y="354" type="curve" smooth="yes"/>
      <point x="527" y="354"/>
      <point x="422" y="470"/>
      <point x="422" y="648" type="curve" smooth="yes"/>
      <point x="422" y="827"/>
      <point x="523" y="941"/>
      <point x="721" y="941" type="curve" smooth="yes"/>
      <point x="772" y="941"/>
      <point x="821" y="922"/>
      <point x="869" y="880" type="curve"/>
      <point x="1011" y="1068" type="line"/>
      <point x="939" y="1137"/>
      <point x="833" y="1188"/>
      <point x="705" y="1188" type="curve" smooth="yes"/>
      <point x="382" y="1188"/>
      <point x="126" y="992"/>
      <point x="126" y="648" type="curve" smooth="yes"/>
      <point x="126" y="306"/>
      <point x="348" y="109"/>
    </contour>
    <contour>
      <point x="580" y="-84" type="line"/>
      <point x="747" y="-84" type="line"/>
      <point x="747" y="1382" type="line"/>
      <point x="580" y="1382" type="line"/>
    </contour>
  </outline>
</glyph>
<glyph name="PoundSgn" format="2">
  <advance width="1200"/>
  <unicode hex="00A3"/>
  <outline>
    <contour>
      <point x="559" y="157" type="curve" smooth="yes"/>
      <point x="365" y="157" type="line"/>
      <point x="439" y="232"/>
      <point x="464" y="325"/>
      <point x="464" y="444" type="curve" smooth="yes"/>
      <point x="464" y="606"/>
      <point x="431" y="857"/>
      <point x="431" y="1026" type="curve" smooth="yes"/>
      <point x="431" y="1198"/>
      <point x="513" y="1264"/>
      <point x="632" y="1264" type="curve" smooth="yes"/>
      <point x="687" y="1264"/>
      <point x="777" y="1242"/>
      <point x="824" y="1207" type="curve"/>
      <point x="868" y="1350" type="line"/>
      <point x="809" y="1392"/>
      <point x="706" y="1417"/>
      <point x="632" y="1417" type="curve" smooth="yes"/>
      <point x="406" y="1417"/>
      <point x="255" y="1274"/>
      <point x="255" y="987" type="curve" smooth="yes"/>
      <point x="255" y="810"/>
      <point x="287" y="570"/>
      <point x="287" y="374" type="curve" smooth="yes"/>
      <point x="287" y="267"/>
      <point x="221" y="179"/>
      <point x="145" y="124" type="curve"/>
      <point x="145" y="0" type="line"/>
      <point x="975" y="0" type="line"/>
      <point x="975" y="172" type="line"/>
      <point x="899" y="158"/>
      <point x="747" y="157"/>
    </contour>
    <contour>
      <point x="155" y="797" type="line"/>
      <point x="155" y="658" type="line"/>
      <point x="736" y="658" type="line"/>
      <point x="736" y="797" type="line"/>
    </contour>
  </outline>
</glyph>
<glyph name="sterling" format="2">
  <advance width="1112"/>
  <unicode hex="00A3"/>
  <outline>
    <contour>
      <point x="101" y="0" type="line"/>
      <point x="1044" y="0" type="line"/>
      <point x="1044" y="255" type="line"/>
      <point x="496" y="255" type="line"/>
      <point x="496" y="263" type="line"/>
      <point x="563" y="341"/>
      <point x="593" y="409"/>
      <point x="593" y="510" type="curve" smooth="yes"/>
      <point x="593" y="660"/>
      <point x="525" y="787"/>
      <point x="525" y="918" type="curve" smooth="yes"/>
      <point x="525" y="1047"/>
      <point x="597" y="1120"/>
      <point x="713" y="1120" type="curve" smooth="yes"/>
      <point x="785" y="1120"/>
      <point x="838" y="1093"/>
      <point x="886" y="1034" type="curve"/>
      <point x="1044" y="1186" type="line"/>
      <point x="964" y="1291"/>
      <point x="846" y="1365"/>
      <point x="677" y="1365" type="curve" smooth="yes"/>
      <point x="422" y="1365"/>
      <point x="232" y="1201"/>
      <point x="232" y="935" type="curve" smooth="yes"/>
      <point x="232" y="802"/>
      <point x="325" y="654"/>
      <point x="325" y="515" type="curve" smooth="yes"/>
      <point x="325" y="363"/>
      <point x="227" y="246"/>
      <point x="101" y="187" type="curve"/>
    </contour>
    <contour>
      <point x="109" y="574" type="line"/>
      <point x="863" y="574" type="line"/>
      <point x="863" y="762" type="line"/>
      <point x="253" y="762" type="line"/>
      <point x="109" y="751" type="line"/>
    </contour>
  </outline>
</glyph>
<glyph name="CurrSgn" format="2">
  <advance width="1200"/>
  <unicode hex="00A4"/>
  <outline>
    <contour>
      <point x="1022" y="318" type="line"/>
      <point x="1111" y="407" type="line"/>
      <point x="910" y="608" type="line"/>
      <point x="963" y="679"/>
      <point x="991" y="759"/>
      <point x="991" y="851" type="curve" smooth="yes"/>
      <point x="991" y="943"/>
      <point x="958" y="1031"/>
      <point x="908" y="1099" type="curve"/>
      <point x="1111" y="1303" type="line"/>
      <point x="1022" y="1392" type="line"/>
      <point x="815" y="1185" type="line"/>
      <point x="748" y="1237"/>
      <point x="668" y="1268"/>
      <point x="578" y="1268" type="curve" smooth="yes"/>
      <point x="486" y="1268"/>
      <point x="401" y="1239"/>
      <point x="332" y="1187" type="curve"/>
      <point x="127" y="1392" type="line"/>
      <point x="37" y="1303" type="line"/>
      <point x="242" y="1097" type="line"/>
      <point x="184" y="1029"/>
      <point x="157" y="939"/>
      <point x="157" y="848" type="curve" smooth="yes"/>
      <point x="157" y="757"/>
      <point x="186" y="679"/>
      <point x="238" y="608" type="curve"/>
      <point x="37" y="407" type="line"/>
      <point x="127" y="318" type="line"/>
      <point x="328" y="519" type="line"/>
      <point x="400" y="461"/>
      <point x="481" y="432"/>
      <point x="578" y="432" type="curve" smooth="yes"/>
      <point x="668" y="432"/>
      <point x="750" y="463"/>
      <point x="820" y="519" type="curve"/>
    </contour>
    <contour>
      <point x="865" y="1013"/>
      <point x="865" y="851" type="curve" smooth="yes"/>
      <point x="865" y="687"/>
      <point x="744" y="557"/>
      <point x="578" y="557" type="curve" smooth="yes"/>
      <point x="410" y="557"/>
      <point x="282" y="681"/>
      <point x="282" y="848" type="curve" smooth="yes"/>
      <point x="282" y="1019"/>
      <point x="408" y="1142"/>
      <point x="578" y="1142" type="curve" smooth="yes"/>
      <point x="742" y="1142"/>
    </contour>
  </outline>
</glyph>
<glyph name="NotSgn" format="2">
  <advance width="1200"/>
  <unicode hex="00AC"/>
  <outline>
    <contour>
      <point x="878" y="340" type="line"/>
      <point x="1021" y="340" type="line"/>
      <point x="1021" y="779" type="line"/>
      <point x="110" y="779" type="line"/>
      <point x="110" y="636" type="line"/>
      <point x="878" y="636" type="line"/>
    </contour>
  </outline>
</glyph>
<glyph name="Macron" format="2">
  <advance width="710"/>
  <unicode hex="00AF"/>
  <outline>
    <contour>
      <point x="0" y="1383" type="line"/>
      <point x="0" y="1240" type="line"/>
      <point x="677" y="1240" type="line"/>
      <point x="677" y="1383" type="line"/>
    </contour>
  </outline>
</glyph>
<glyph name="PlusMinusSgn" format="2">
  <advance width="1200"/>
  <unicode hex="00B1"/>
  <outline>
    <contour>
      <point x="155" y="949" type="line"/>
      <point x="155" y="806" type="line"/>
      <point x="508" y="806" type="line"/>
      <point x="508" y="458" type="line"/>
      <point x="651" y="458" type="line"/>
      <point x="651" y="806" type="line"/>
      <point x="1004" y="806" type="line"/>
      <point x="1004" y="949" type="line"/>
      <point x="651" y="949" type="line"/>
      <point x="651" y="1311" type="line"/>
      <point x="508" y="1311" type="line"/>
      <point x="508" y="949" type="line"/>
    </contour>
    <contour>
      <point x="155" y="343" type="line"/>
      <point x="155" y="200" type="line"/>
      <point x="1004" y="200" type="line"/>
      <point x="1004" y="343" type="line"/>
    </contour>
  </outline>
</glyph>
<glyph name="MicroSgn" format="2">
  <advance width="1185"/>
  <unicode hex="00B5"/>
  <outline>
    <contour>
      <point x="884" y="-23" type="curve"/>
      <point x="1046" y="-23" type="line"/>
      <point x="1006" y="84"/>
      <point x="984" y="222"/>
      <point x="984" y="407" type="curve" smooth="yes"/>
      <point x="984" y="594"/>
      <point x="984" y="951"/>
      <point x="984" y="951" type="curve"/>
      <point x="788" y="951" type="line"/>
      <point x="806" y="834"/>
      <point x="808" y="771"/>
      <point x="808" y="645" type="curve" smooth="yes"/>
      <point x="808" y="378" type="line"/>
      <point x="767" y="259"/>
      <point x="640" y="111"/>
      <point x="544" y="111" type="curve" smooth="yes"/>
      <point x="438" y="111"/>
      <point x="331" y="205"/>
      <point x="331" y="421" type="curve" smooth="yes"/>
      <point x="331" y="553"/>
      <point x="331" y="951"/>
      <point x="331" y="951" type="curve"/>
      <point x="135" y="951" type="line"/>
      <point x="152" y="836"/>
      <point x="154" y="766"/>
      <point x="154" y="645" type="curve" smooth="yes"/>
      <point x="154" y="627"/>
      <point x="154" y="382"/>
      <point x="154" y="364" type="curve" smooth="yes"/>
      <point x="154" y="-490" type="line"/>
      <point x="354" y="-490" type="line"/>
      <point x="338" y="-409"/>
      <point x="331" y="-318"/>
      <point x="331" y="-166" type="curve"/>
      <point x="331" y="54" type="line"/>
      <point x="366" y="3"/>
      <point x="438" y="-46"/>
      <point x="526" y="-46" type="curve" smooth="yes"/>
      <point x="649" y="-46"/>
      <point x="771" y="73"/>
      <point x="831" y="168" type="curve"/>
      <point x="841" y="97"/>
      <point x="866" y="21"/>
    </contour>
  </outline>
</glyph>
<glyph name="VulgFracOneHalf" format="2">
  <advance width="1600"/>
  <unicode hex="00BD"/>
  <outline>
    <contour>
      <point x="1345" y="1524" type="line"/>
      <point x="1221" y="1524" type="line"/>
      <point x="199" y="-50" type="line"/>
      <point x="323" y="-50" type="line"/>
    </contour>
    <contour>
      <point x="256" y="1400" type="line"/>
      <point x="256" y="775" type="line"/>
      <point x="80" y="775" type="line"/>
      <point x="80" y="675" type="line"/>
      <point x="552" y="675" type="line"/>
      <point x="552" y="775" type="line"/>
      <point x="380" y="775" type="line"/>
      <point x="380" y="1524" type="line"/>
      <point x="270" y="1524" type="line"/>
      <point x="70" y="1405" type="line"/>
      <point x="89" y="1300" type="line"/>
    </contour>
    <contour>
      <point x="1482" y="-2" type="line"/>
      <point x="1482" y="107" type="line"/>
      <point x="1436" y="100"/>
      <point x="1346" y="98"/>
      <point x="1234" y="98" type="curve" smooth="yes"/>
      <point x="1096" y="98" type="line"/>
      <point x="1221" y="195"/>
      <point x="1444" y="416"/>
      <point x="1444" y="608" type="curve" smooth="yes"/>
      <point x="1444" y="756"/>
      <point x="1323" y="852"/>
      <point x="1185" y="852" type="curve" smooth="yes"/>
      <point x="1089" y="852"/>
      <point x="980" y="801"/>
      <point x="933" y="737" type="curve"/>
      <point x="962" y="632" type="line"/>
      <point x="1013" y="694"/>
      <point x="1097" y="737"/>
      <point x="1167" y="737" type="curve" smooth="yes"/>
      <point x="1249" y="737"/>
      <point x="1320" y="707"/>
      <point x="1320" y="599" type="curve" smooth="yes"/>
      <point x="1320" y="440"/>
      <point x="1089" y="214"/>
      <point x="933" y="103" type="curve"/>
      <point x="933" y="-2" type="line"/>
    </contour>
  </outline>
</glyph>
<glyph name="VulgFracThreeQuarters" format="2">
  <advance width="1600"/>
  <unicode hex="00BE"/>
  <outline>
    <contour>
      <point x="364" y="661" type="curve" smooth="yes"/>
      <point x="529" y="661"/>
      <point x="650" y="784"/>
      <point x="650" y="918" type="curve" smooth="yes"/>
      <point x="650" y="1060"/>
      <point x="540" y="1135"/>
      <point x="459" y="1143" type="curve"/>
      <point x="540" y="1153"/>
      <point x="621" y="1225"/>
      <point x="621" y="1319" type="curve" smooth="yes"/>
      <point x="621" y="1441"/>
      <point x="525" y="1529"/>
      <point x="383" y="1529" type="curve" smooth="yes"/>
      <point x="299" y="1529"/>
      <point x="230" y="1503"/>
      <point x="163" y="1453" type="curve"/>
      <point x="187" y="1352" type="line"/>
      <point x="264" y="1408"/>
      <point x="312" y="1419"/>
      <point x="373" y="1419" type="curve" smooth="yes"/>
      <point x="446" y="1419"/>
      <point x="507" y="1391"/>
      <point x="507" y="1314" type="curve" smooth="yes"/>
      <point x="507" y="1244"/>
      <point x="434" y="1185"/>
      <point x="321" y="1185" type="curve" smooth="yes"/>
      <point x="278" y="1185" type="line"/>
      <point x="278" y="1080" type="line"/>
      <point x="321" y="1080" type="line" smooth="yes"/>
      <point x="456" y="1080"/>
      <point x="530" y="1021"/>
      <point x="530" y="928" type="curve" smooth="yes"/>
      <point x="530" y="817"/>
      <point x="455" y="770"/>
      <point x="359" y="770" type="curve" smooth="yes"/>
      <point x="277" y="770"/>
      <point x="192" y="811"/>
      <point x="139" y="871" type="curve"/>
      <point x="125" y="747" type="line"/>
      <point x="179" y="699"/>
      <point x="268" y="661"/>
    </contour>
    <contour>
      <point x="1372" y="1524" type="line"/>
      <point x="1247" y="1524" type="line"/>
      <point x="225" y="-50" type="line"/>
      <point x="349" y="-50" type="line"/>
    </contour>
    <contour>
      <point x="1198" y="346" type="line"/>
      <point x="955" y="346" type="line"/>
      <point x="1198" y="685" type="line"/>
    </contour>
    <contour>
      <point x="1341" y="-2" type="line"/>
      <point x="1332" y="60"/>
      <point x="1327" y="204"/>
      <point x="1327" y="246" type="curve"/>
      <point x="1451" y="246" type="line"/>
      <point x="1451" y="346" type="line"/>
      <point x="1327" y="346" type="line"/>
      <point x="1327" y="847" type="line"/>
      <point x="1198" y="847" type="line"/>
      <point x="826" y="345" type="line"/>
      <point x="826" y="246" type="line"/>
      <point x="1198" y="246" type="line"/>
      <point x="1198" y="-2" type="line"/>
    </contour>
  </outline>
</glyph>
<glyph name="LtnCapARingAbv" format="2">
  <advance width="1395"/>
  <unicode hex="00C5"/>
  <anchor x="1230" y="0" name="H"/>
  <anchor x="687" y="-100" name="L"/>
  <anchor x="1450" y="0" name="O"/>
  <anchor x="689" y="2065" name="U"/>
  <outline>
    <contour>
      <point x="40" y="0" type="curve"/>
      <point x="236" y="0" type="line"/>
      <point x="363" y="367" type="line"/>
      <point x="950" y="367" type="line"/>
      <point x="1080" y="0" type="line"/>
      <point x="1275" y="0" type="line"/>
      <point x="1242" y="76"/>
      <point x="1206" y="161"/>
      <point x="1142" y="339" type="curve" smooth="yes"/>
      <point x="760" y="1393" type="line"/>
      <point x="555" y="1393" type="line"/>
      <point x="174" y="339" type="line" smooth="yes"/>
      <point x="109" y="160"/>
      <point x="74" y="77"/>
    </contour>
    <contour>
      <point x="655" y="1207" type="line"/>
      <point x="899" y="515" type="line"/>
      <point x="415" y="515" type="line"/>
    </contour>
    <contour>
      <point x="755" y="1789"/>
      <point x="755" y="1732" type="curve" smooth="yes"/>
      <point x="755" y="1674"/>
      <point x="716" y="1636"/>
      <point x="659" y="1636" type="curve" smooth="yes"/>
      <point x="602" y="1636"/>
      <point x="564" y="1674"/>
      <point x="564" y="1732" type="curve" smooth="yes"/>
      <point x="564" y="1789"/>
      <point x="602" y="1827"/>
      <point x="659" y="1827" type="curve" smooth="yes"/>
      <point x="716" y="1827"/>
    </contour>
    <contour>
      <point x="454" y="1846"/>
      <point x="454" y="1732" type="curve" smooth="yes"/>
      <point x="454" y="1617"/>
      <point x="545" y="1526"/>
      <point x="659" y="1526" type="curve" smooth="yes"/>
      <point x="774" y="1526"/>
      <point x="864" y="1617"/>
      <point x="864" y="1732" type="curve" smooth="yes"/>
      <point x="864" y="1846"/>
      <point x="774" y="1937"/>
      <point x="659" y="1937" type="curve" smooth="yes"/>
      <point x="545" y="1937"/>
    </contour>
  </outline>
</glyph>
<glyph name="LtnCapAe" format="2">
  <advance width="1805"/>
  <unicode hex="00C6"/>
  <anchor x="1015" y="-100" name="L"/>
  <anchor x="1015" y="1530" name="U"/>
  <outline>
    <contour>
      <point x="1219" y="157" type="curve" smooth="yes"/>
      <point x="1063" y="157" type="line"/>
      <point x="1063" y="653" type="line"/>
      <point x="1511" y="653" type="line"/>
      <point x="1511" y="806" type="line"/>
      <point x="1063" y="806" type="line"/>
      <point x="1063" y="1235" type="line"/>
      <point x="1583" y="1235" type="line"/>
      <point x="1583" y="1393" type="line"/>
      <point x="776" y="1393" type="line"/>
      <point x="285" y="381" type="line" smooth="yes"/>
      <point x="219" y="245"/>
      <point x="166" y="141"/>
      <point x="80" y="0" type="curve"/>
      <point x="271" y="0" type="line"/>
      <point x="452" y="367" type="line"/>
      <point x="881" y="367" type="line"/>
      <point x="881" y="116"/>
      <point x="875" y="44"/>
      <point x="867" y="0" type="curve"/>
      <point x="1611" y="0" type="line"/>
      <point x="1611" y="172" type="line"/>
      <point x="1535" y="158"/>
      <point x="1407" y="157"/>
    </contour>
    <contour>
      <point x="881" y="1235" type="line"/>
      <point x="881" y="515" type="line"/>
      <point x="525" y="515" type="line"/>
    </contour>
  </outline>
</glyph>
<glyph name="Eth" format="2">
  <advance width="1391"/>
  <unicode hex="00D0"/>
  <outline>
    <contour>
      <point x="56" y="610" type="line"/>
      <point x="787" y="610" type="line"/>
      <point x="787" y="812" type="line"/>
      <point x="219" y="812" type="line"/>
      <point x="56" y="802" type="line"/>
    </contour>
    <component base="D" xOffset="52"/>
  </outline>
</glyph>
<glyph name="multiply" format="2">
  <advance width="1112"/>
  <unicode hex="00D7"/>
  <outline>
    <contour>
      <point x="253" y="236" type="line"/>
      <point x="555" y="542" type="line"/>
      <point x="857" y="236" type="line"/>
      <point x="1011" y="390" type="line"/>
      <point x="709" y="694" type="line"/>
      <point x="1011" y="998" type="line"/>
      <point x="857" y="1152" type="line"/>
      <point x="555" y="846" type="line"/>
      <point x="253" y="1152" type="line"/>
      <point x="101" y="998" type="line"/>
      <point x="403" y="694" type="line"/>
      <point x="101" y="390" type="line"/>
    </contour>
  </outline>
</glyph>
<glyph name="Oslash" format="2">
  <advance width="1441"/>
  <unicode hex="00D8"/>
  <anchor x="736" y="1422" name="aboveUC"/>
  <outline>
    <contour>
      <point x="242" y="-86" type="line"/>
      <point x="1389" y="1340" type="line"/>
      <point x="1230" y="1462" type="line"/>
      <point x="84" y="35" type="line"/>
    </contour>
    <component base="O" xOffset="2"/>
  </outline>
</glyph>
<glyph name="LtnSmACircum" format="2">
  <advance width="1150"/>
  <unicode hex="00E2"/>
  <anchor x="980" y="0" name="H"/>
  <anchor x="595" y="-100" name="L"/>
  <anchor x="1180" y="0" name="O"/>
  <anchor x="1150" y="1000" name="R"/>
  <anchor x="595" y="1635" name="U"/>
  <outline>
    <contour>
      <point x="844" y="-1" type="curve"/>
      <point x="1011" y="-1" type="line"/>
      <point x="974" y="106"/>
      <point x="949" y="264"/>
      <point x="949" y="504" type="curve" smooth="yes"/>
      <point x="949" y="948" type="line"/>
      <point x="853" y="973"/>
      <point x="743" y="991"/>
      <point x="620" y="991" type="curve" smooth="yes"/>
      <point x="263" y="991"/>
      <point x="105" y="693"/>
      <point x="105" y="390" type="curve" smooth="yes"/>
      <point x="105" y="120"/>
      <point x="231" y="-25"/>
      <point x="391" y="-25" type="curve" smooth="yes"/>
      <point x="591" y="-25"/>
      <point x="726" y="193"/>
      <point x="801" y="390" type="curve"/>
      <point x="801" y="314" type="line" smooth="yes"/>
      <point x="801" y="230"/>
      <point x="817" y="59"/>
    </contour>
    <contour>
      <point x="773" y="821" type="curve"/>
      <point x="773" y="700" type="line"/>
      <point x="773" y="565"/>
      <point x="588" y="137"/>
      <point x="420" y="137" type="curve" smooth="yes"/>
      <point x="344" y="137"/>
      <point x="281" y="242"/>
      <point x="281" y="390" type="curve" smooth="yes"/>
      <point x="281" y="620"/>
      <point x="357" y="838"/>
      <point x="606" y="838" type="curve" smooth="yes"/>
      <point x="701" y="838"/>
      <point x="741" y="828"/>
    </contour>
    <contour>
      <point x="167" y="1115" type="line"/>
      <point x="310" y="1115" type="line"/>
      <point x="572" y="1382" type="line"/>
      <point x="835" y="1115" type="line"/>
      <point x="978" y="1115" type="line"/>
      <point x="654" y="1525" type="line"/>
      <point x="491" y="1525" type="line"/>
    </contour>
  </outline>
</glyph>
<glyph name="LtnSmAe" format="2">
  <advance width="1745"/>
  <unicode hex="00E6"/>
  <anchor x="1215" y="0" name="H"/>
  <anchor x="865" y="-100" name="L"/>
  <anchor x="1465" y="0" name="O"/>
  <anchor x="1745" y="1000" name="R"/>
  <anchor x="865" y="1100" name="U"/>
  <outline>
    <contour>
      <point x="1488" y="991"/>
      <point x="1192" y="991" type="curve" smooth="yes"/>
      <point x="1054" y="991"/>
      <point x="930" y="929"/>
      <point x="844" y="824" type="curve"/>
      <point x="777" y="937"/>
      <point x="649" y="991"/>
      <point x="520" y="991" type="curve" smooth="yes"/>
      <point x="375" y="991"/>
      <point x="303" y="947"/>
      <point x="205" y="905" type="curve"/>
      <point x="199" y="864"/>
      <point x="196" y="761"/>
      <point x="195" y="719" type="curve"/>
      <point x="307" y="797"/>
      <point x="375" y="838"/>
      <point x="477" y="838" type="curve" smooth="yes"/>
      <point x="620" y="838"/>
      <point x="725" y="792"/>
      <point x="725" y="676" type="curve" smooth="yes"/>
      <point x="725" y="595" type="line"/>
      <point x="686" y="592"/>
      <point x="533" y="589"/>
      <point x="467" y="581" type="curve" smooth="yes"/>
      <point x="183" y="542"/>
      <point x="95" y="387"/>
      <point x="95" y="242" type="curve" smooth="yes"/>
      <point x="95" y="101"/>
      <point x="226" y="-25"/>
      <point x="405" y="-25" type="curve" smooth="yes"/>
      <point x="523" y="-25"/>
      <point x="641" y="17"/>
      <point x="753" y="137" type="curve" smooth="yes"/>
      <point x="768" y="153"/>
      <point x="783" y="170"/>
      <point x="796" y="186" type="curve"/>
      <point x="879" y="47"/>
      <point x="1025" y="-25"/>
      <point x="1183" y="-25" type="curve" smooth="yes"/>
      <point x="1329" y="-25"/>
      <point x="1438" y="1"/>
      <point x="1574" y="70" type="curve"/>
      <point x="1555" y="228" type="line"/>
      <point x="1438" y="157"/>
      <point x="1329" y="132"/>
      <point x="1206" y="132" type="curve" smooth="yes"/>
      <point x="1034" y="132"/>
      <point x="899" y="238"/>
      <point x="892" y="462" type="curve"/>
      <point x="1569" y="462" type="line"/>
      <point x="1569" y="538" type="line"/>
      <point x="1569" y="753"/>
    </contour>
    <contour>
      <point x="677" y="460"/>
      <point x="725" y="462" type="curve"/>
      <point x="725" y="416"/>
      <point x="730" y="372"/>
      <point x="739" y="333" type="curve"/>
      <point x="736" y="323"/>
      <point x="730" y="317"/>
      <point x="725" y="309" type="curve" smooth="yes"/>
      <point x="619" y="155"/>
      <point x="531" y="132"/>
      <point x="434" y="132" type="curve" smooth="yes"/>
      <point x="338" y="132"/>
      <point x="271" y="191"/>
      <point x="271" y="266" type="curve" smooth="yes"/>
      <point x="271" y="354"/>
      <point x="317" y="419"/>
      <point x="477" y="447" type="curve" smooth="yes"/>
      <point x="537" y="458"/>
    </contour>
    <contour>
      <point x="1039" y="848"/>
      <point x="1178" y="848" type="curve" smooth="yes"/>
      <point x="1297" y="848"/>
      <point x="1397" y="759"/>
      <point x="1397" y="595" type="curve"/>
      <point x="901" y="595" type="line"/>
      <point x="933" y="768"/>
    </contour>
  </outline>
</glyph>
<glyph name="LtnSmIAcute" format="2">
  <advance width="565"/>
  <unicode hex="00ED"/>
  <anchor x="285" y="0" name="H"/>
  <anchor x="285" y="-100" name="L"/>
  <anchor x="520" y="0" name="O"/>
  <anchor x="550" y="1000" name="R"/>
  <anchor x="285" y="1635" name="U"/>
  <outline>
    <contour>
      <point x="363" y="453" type="curve" smooth="yes"/>
      <point x="363" y="973" type="line"/>
      <point x="172" y="973" type="line"/>
      <point x="184" y="873"/>
      <point x="186" y="692"/>
      <point x="186" y="506" type="curve" smooth="yes"/>
      <point x="186" y="321"/>
      <point x="186" y="0"/>
      <point x="186" y="0" type="curve"/>
      <point x="382" y="0" type="line"/>
      <point x="369" y="102"/>
      <point x="363" y="330"/>
    </contour>
    <contour>
      <point x="658" y="1526" type="line"/>
      <point x="439" y="1526" type="line"/>
      <point x="105" y="1116" type="line"/>
      <point x="258" y="1116" type="line"/>
    </contour>
  </outline>
</glyph>
<glyph name="LtnSmIDiaer" format="2">
  <advance width="565"/>
  <unicode hex="00EF"/>
  <anchor x="285" y="0" name="H"/>
  <anchor x="285" y="-100" name="L"/>
  <anchor x="520" y="0" name="O"/>
  <anchor x="550" y="1000" name="R"/>
  <anchor x="285" y="1505" name="U"/>
  <outline>
    <contour>
      <point x="355" y="453" type="curve" smooth="yes"/>
      <point x="355" y="973" type="line"/>
      <point x="164" y="973" type="line"/>
      <point x="177" y="873"/>
      <point x="179" y="692"/>
      <point x="179" y="506" type="curve" smooth="yes"/>
      <point x="179" y="321"/>
      <point x="179" y="0"/>
      <point x="179" y="0" type="curve"/>
      <point x="374" y="0" type="line"/>
      <point x="362" y="102"/>
      <point x="355" y="330"/>
    </contour>
    <contour>
      <point x="346" y="1354"/>
      <point x="346" y="1283" type="curve" smooth="yes"/>
      <point x="346" y="1213"/>
      <point x="399" y="1154"/>
      <point x="470" y="1154" type="curve" smooth="yes"/>
      <point x="541" y="1154"/>
      <point x="594" y="1213"/>
      <point x="594" y="1283" type="curve" smooth="yes"/>
      <point x="594" y="1354"/>
      <point x="541" y="1412"/>
      <point x="470" y="1412" type="curve" smooth="yes"/>
      <point x="399" y="1412"/>
    </contour>
    <contour>
      <point x="-55" y="1354"/>
      <point x="-55" y="1283" type="curve" smooth="yes"/>
      <point x="-55" y="1213"/>
      <point x="-2" y="1154"/>
      <point x="69" y="1154" type="curve" smooth="yes"/>
      <point x="141" y="1154"/>
      <point x="193" y="1213"/>
      <point x="193" y="1283" type="curve" smooth="yes"/>
      <point x="193" y="1354"/>
      <point x="141" y="1412"/>
      <point x="69" y="1412" type="curve" smooth="yes"/>
      <point x="-2" y="1412"/>
    </contour>
  </outline>
</glyph>
<glyph name="LtnSmThorn" format="2">
  <advance width="1170"/>
  <unicode hex="00FE"/>
  <anchor x="590" y="-500" name="L"/>
  <anchor x="620" y="1635" name="U"/>
  <outline>
    <contour>
      <point x="331" y="1504" type="line"/>
      <point x="135" y="1504" type="line"/>
      <point x="147" y="1394"/>
      <point x="154" y="1241"/>
      <point x="154" y="1055" type="curve" smooth="yes"/>
      <point x="154" y="-490" type="line"/>
      <point x="354" y="-490" type="line"/>
      <point x="338" y="-409"/>
      <point x="331" y="-318"/>
      <point x="331" y="-166" type="curve" smooth="yes"/>
      <point x="331" y="-84"/>
      <point x="331" y="-52"/>
      <point x="331" y="59" type="curve"/>
      <point x="421" y="-5"/>
      <point x="496" y="-46"/>
      <point x="598" y="-46" type="curve" smooth="yes"/>
      <point x="837" y="-46"/>
      <point x="1032" y="162"/>
      <point x="1032" y="488" type="curve" smooth="yes"/>
      <point x="1032" y="767"/>
      <point x="887" y="970"/>
      <point x="669" y="970" type="curve" smooth="yes"/>
      <point x="528" y="970"/>
      <point x="404" y="882"/>
      <point x="331" y="787" type="curve"/>
    </contour>
    <contour>
      <point x="331" y="226" type="curve"/>
      <point x="331" y="526" type="line"/>
      <point x="401" y="710"/>
      <point x="526" y="807"/>
      <point x="636" y="807" type="curve" smooth="yes"/>
      <point x="773" y="807"/>
      <point x="855" y="671"/>
      <point x="855" y="459" type="curve" smooth="yes"/>
      <point x="855" y="244"/>
      <point x="732" y="111"/>
      <point x="598" y="111" type="curve" smooth="yes"/>
      <point x="510" y="111"/>
      <point x="461" y="134"/>
    </contour>
  </outline>
</glyph>
<glyph name="Eng" format="2">
  <advance width="1403"/>
  <unicode hex="014A"/>
  <anchor x="764" y="1422" name="aboveUC"/>
  <anchor x="688" y="-46" name="belowLC"/>
  <outline>
    <contour>
      <point x="869" y="-25" type="curve" smooth="yes"/>
      <point x="1165" y="-25"/>
      <point x="1304" y="206"/>
      <point x="1304" y="700" type="curve" smooth="yes"/>
      <point x="1304" y="1211"/>
      <point x="1101" y="1401"/>
      <point x="831" y="1401" type="curve" smooth="yes"/>
      <point x="692" y="1401"/>
      <point x="561" y="1340"/>
      <point x="458" y="1226" type="curve"/>
      <point x="458" y="1376" type="line"/>
      <point x="162" y="1376" type="line"/>
      <point x="162" y="0" type="line"/>
      <point x="468" y="0" type="line"/>
      <point x="468" y="962" type="line"/>
      <point x="538" y="1076"/>
      <point x="654" y="1137"/>
      <point x="740" y="1137" type="curve" smooth="yes"/>
      <point x="897" y="1137"/>
      <point x="992" y="1019"/>
      <point x="992" y="700" type="curve" smooth="yes"/>
      <point x="992" y="339"/>
      <point x="920" y="259"/>
      <point x="833" y="259" type="curve" smooth="yes"/>
      <point x="797" y="259"/>
      <point x="770" y="263"/>
      <point x="747" y="274" type="curve"/>
      <point x="679" y="12" type="line"/>
      <point x="721" y="-10"/>
      <point x="808" y="-25"/>
    </contour>
  </outline>
</glyph>
<glyph name="LtnCapEng.UCStyle" format="2">
  <advance width="1460"/>
  <unicode hex="014A"/>
  <anchor x="740" y="-500" name="L"/>
  <anchor x="740" y="1530" name="U"/>
  <outline>
    <contour>
      <point x="311" y="1366" type="curve"/>
      <point x="135" y="1366" type="line"/>
      <point x="162" y="1272"/>
      <point x="197" y="1084"/>
      <point x="197" y="818" type="curve" smooth="yes"/>
      <point x="197" y="389" type="line" smooth="yes"/>
      <point x="197" y="201"/>
      <point x="197" y="55"/>
      <point x="183" y="-22" type="curve"/>
      <point x="378" y="-22" type="line"/>
      <point x="378" y="780" type="line"/>
      <point x="431" y="965"/>
      <point x="602" y="1204"/>
      <point x="784" y="1204" type="curve" smooth="yes"/>
      <point x="990" y="1204"/>
      <point x="1041" y="1068"/>
      <point x="1041" y="727" type="curve" smooth="yes"/>
      <point x="1041" y="55" type="line" smooth="yes"/>
      <point x="1041" y="-204"/>
      <point x="938" y="-308"/>
      <point x="836" y="-308" type="curve" smooth="yes"/>
      <point x="777" y="-308"/>
      <point x="720" y="-298"/>
      <point x="688" y="-274" type="curve"/>
      <point x="626" y="-422" type="line"/>
      <point x="657" y="-442"/>
      <point x="734" y="-470"/>
      <point x="812" y="-470" type="curve" smooth="yes"/>
      <point x="1065" y="-470"/>
      <point x="1223" y="-289"/>
      <point x="1223" y="117" type="curve" smooth="yes"/>
      <point x="1223" y="829" type="line" smooth="yes"/>
      <point x="1223" y="1203"/>
      <point x="1082" y="1395"/>
      <point x="846" y="1395" type="curve" smooth="yes"/>
      <point x="677" y="1395"/>
      <point x="512" y="1311"/>
      <point x="359" y="1104" type="curve"/>
      <point x="351" y="1170"/>
      <point x="330" y="1309"/>
    </contour>
  </outline>
</glyph>
<glyph name="LtnCapLigOe" format="2">
  <advance width="1950"/>
  <unicode hex="0152"/>
  <anchor x="962" y="-100" name="L"/>
  <anchor x="962" y="1530" name="U"/>
  <outline>
    <contour>
      <point x="1020" y="-1" type="line"/>
      <point x="1750" y="-1" type="line"/>
      <point x="1750" y="171" type="line"/>
      <point x="1674" y="157"/>
      <point x="1546" y="156"/>
      <point x="1358" y="156" type="curve" smooth="yes"/>
      <point x="1202" y="156" type="line"/>
      <point x="1202" y="652" type="line"/>
      <point x="1650" y="652" type="line"/>
      <point x="1650" y="805" type="line"/>
      <point x="1202" y="805" type="line"/>
      <point x="1202" y="1234" type="line"/>
      <point x="1722" y="1234" type="line"/>
      <point x="1722" y="1392" type="line"/>
      <point x="1020" y="1392" type="line"/>
      <point x="1020" y="1235" type="line"/>
      <point x="935" y="1341"/>
      <point x="818" y="1416"/>
      <point x="663" y="1416" type="curve" smooth="yes"/>
      <point x="364" y="1416"/>
      <point x="95" y="1143"/>
      <point x="95" y="686" type="curve" smooth="yes"/>
      <point x="95" y="229"/>
      <point x="346" y="-25"/>
      <point x="644" y="-25" type="curve" smooth="yes"/>
      <point x="786" y="-25"/>
      <point x="920" y="47"/>
      <point x="1020" y="156" type="curve"/>
    </contour>
    <contour>
      <point x="1030" y="1033"/>
      <point x="1030" y="681" type="curve" smooth="yes"/>
      <point x="1030" y="342"/>
      <point x="887" y="142"/>
      <point x="653" y="142" type="curve" smooth="yes"/>
      <point x="424" y="142"/>
      <point x="281" y="361"/>
      <point x="281" y="710" type="curve" smooth="yes"/>
      <point x="281" y="1040"/>
      <point x="431" y="1249"/>
      <point x="653" y="1249" type="curve" smooth="yes"/>
      <point x="895" y="1249"/>
    </contour>
  </outline>
</glyph>
<glyph name="OE" format="2">
  <advance width="1836"/>
  <unicode hex="0152"/>
  <anchor x="1116" y="1422" name="aboveUC"/>
  <outline>
    <contour>
      <point x="785" y="0" type="curve" smooth="yes"/>
      <point x="1724" y="0" type="line"/>
      <point x="1724" y="255" type="line"/>
      <point x="1177" y="255" type="line"/>
      <point x="1177" y="580" type="line"/>
      <point x="1621" y="580" type="line"/>
      <point x="1621" y="838" type="line"/>
      <point x="1177" y="838" type="line"/>
      <point x="1177" y="1120" type="line"/>
      <point x="1703" y="1120" type="line"/>
      <point x="1703" y="1376" type="line"/>
      <point x="802" y="1376" type="line" smooth="yes"/>
      <point x="394" y="1376"/>
      <point x="97" y="1165"/>
      <point x="97" y="694" type="curve" smooth="yes"/>
      <point x="97" y="221"/>
      <point x="394" y="0"/>
    </contour>
    <contour>
      <point x="821" y="244" type="line" smooth="yes"/>
      <point x="576" y="244"/>
      <point x="411" y="360"/>
      <point x="411" y="694" type="curve" smooth="yes"/>
      <point x="411" y="1028"/>
      <point x="576" y="1131"/>
      <point x="821" y="1131" type="curve" smooth="yes"/>
      <point x="873" y="1131" type="line"/>
      <point x="873" y="244" type="line"/>
    </contour>
  </outline>
</glyph>
<glyph name="LtnCapZCaron" format="2">
  <advance width="1230"/>
  <unicode hex="017D"/>
  <anchor x="605" y="-100" name="L"/>
  <anchor x="605" y="2065" name="U"/>
  <outline>
    <contour>
      <point x="1058" y="1269" type="line"/>
      <point x="1058" y="1393" type="line"/>
      <point x="132" y="1393" type="line"/>
      <point x="132" y="1216" type="line"/>
      <point x="209" y="1233"/>
      <point x="321" y="1235"/>
      <point x="509" y="1235" type="curve" smooth="yes"/>
      <point x="833" y="1235" type="line"/>
      <point x="75" y="119" type="line"/>
      <point x="75" y="0" type="line"/>
      <point x="1086" y="0" type="line"/>
      <point x="1086" y="176" type="line"/>
      <point x="1010" y="163"/>
      <point x="858" y="157"/>
      <point x="671" y="157" type="curve" smooth="yes"/>
      <point x="299" y="157" type="line"/>
    </contour>
    <contour>
      <point x="318" y="1937" type="line"/>
      <point x="175" y="1937" type="line"/>
      <point x="500" y="1526" type="line"/>
      <point x="662" y="1526" type="line"/>
      <point x="986" y="1937" type="line"/>
      <point x="843" y="1937" type="line"/>
      <point x="581" y="1670" type="line"/>
    </contour>
  </outline>
</glyph>
<glyph name="Ereversed" format="2">
  <advance width="1154"/>
  <unicode hex="018E"/>
  <anchor x="540" y="1422" name="aboveUC"/>
  <anchor x="521" y="-46" name="belowLC"/>
  <outline>
    <contour>
      <point x="992" y="0" type="line"/>
      <point x="992" y="1376" type="line"/>
      <point x="131" y="1376" type="line"/>
      <point x="131" y="1120" type="line"/>
      <point x="686" y="1120" type="line"/>
      <point x="686" y="838" type="line"/>
      <point x="215" y="838" type="line"/>
      <point x="215" y="580" type="line"/>
      <point x="686" y="580" type="line"/>
      <point x="686" y="255" type="line"/>
      <point x="110" y="255" type="line"/>
      <point x="110" y="0" type="line"/>
    </contour>
  </outline>
</glyph>
<glyph name="LtnCapRevE" format="2">
  <advance width="1160"/>
  <unicode hex="018E"/>
  <anchor x="560" y="-100" name="L"/>
  <anchor x="560" y="1530" name="U"/>
  <outline>
    <contour>
      <point x="764" y="806" type="line"/>
      <point x="220" y="806" type="line"/>
      <point x="220" y="653" type="line"/>
      <point x="764" y="653" type="line"/>
      <point x="764" y="157" type="line"/>
      <point x="512" y="157" type="line" smooth="yes"/>
      <point x="324" y="157"/>
      <point x="196" y="158"/>
      <point x="120" y="172" type="curve"/>
      <point x="120" y="0" type="line"/>
      <point x="960" y="0" type="line"/>
      <point x="945" y="76"/>
      <point x="945" y="227"/>
      <point x="945" y="415" type="curve" smooth="yes"/>
      <point x="945" y="978" type="line" smooth="yes"/>
      <point x="945" y="1166"/>
      <point x="945" y="1317"/>
      <point x="960" y="1393" type="curve"/>
      <point x="149" y="1393" type="line"/>
      <point x="149" y="1235" type="line"/>
      <point x="764" y="1235" type="line"/>
    </contour>
  </outline>
</glyph>
<glyph name="Schwa" format="2">
  <advance width="1418"/>
  <unicode hex="018F"/>
  <anchor x="738" y="1418" name="aboveUC"/>
  <anchor x="717" y="-46" name="belowLC"/>
  <outline>
    <contour>
      <point x="713" y="-25" type="curve" smooth="yes"/>
      <point x="1076" y="-25"/>
      <point x="1325" y="219"/>
      <point x="1325" y="688" type="curve" smooth="yes"/>
      <point x="1325" y="1156"/>
      <point x="1080" y="1397"/>
      <point x="692" y="1397" type="curve" smooth="yes"/>
      <point x="468" y="1397"/>
      <point x="282" y="1317"/>
      <point x="143" y="1186" type="curve"/>
      <point x="320" y="966" type="line"/>
      <point x="417" y="1051"/>
      <point x="536" y="1101"/>
      <point x="667" y="1101" type="curve" smooth="yes"/>
      <point x="865" y="1101"/>
      <point x="966" y="979"/>
      <point x="966" y="688" type="curve" smooth="yes"/>
      <point x="966" y="384"/>
      <point x="865" y="270"/>
      <point x="717" y="270" type="curve" smooth="yes"/>
      <point x="572" y="270"/>
      <point x="468" y="341"/>
      <point x="464" y="544" type="curve"/>
      <point x="1059" y="544" type="line"/>
      <point x="1059" y="806" type="line"/>
      <point x="113" y="806" type="line"/>
      <point x="105" y="764"/>
      <point x="101" y="717"/>
      <point x="101" y="679" type="curve" smooth="yes"/>
      <point x="101" y="211"/>
      <point x="337" y="-25"/>
    </contour>
  </outline>
</glyph>
<glyph name="LtnSmTurnedE" format="2">
  <advance width="1078"/>
  <unicode hex="01DD"/>
  <anchor x="541" y="0" name="H"/>
  <anchor x="541" y="-100" name="L"/>
  <anchor x="598" y="0" name="O"/>
  <anchor x="541" y="1100" name="U"/>
  <outline>
    <contour>
      <point x="108" y="869" type="curve"/>
      <point x="127" y="711" type="line"/>
      <point x="232" y="789"/>
      <point x="337" y="830"/>
      <point x="460" y="830" type="curve" smooth="yes"/>
      <point x="637" y="830"/>
      <point x="768" y="706"/>
      <point x="768" y="490" type="curve" smooth="yes"/>
      <point x="768" y="258"/>
      <point x="703" y="111"/>
      <point x="505" y="111" type="curve" smooth="yes"/>
      <point x="356" y="111"/>
      <point x="276" y="204"/>
      <point x="276" y="368" type="curve"/>
      <point x="800" y="368" type="line"/>
      <point x="800" y="502" type="line"/>
      <point x="101" y="502" type="line"/>
      <point x="100" y="483"/>
      <point x="100" y="446"/>
      <point x="100" y="428" type="curve" smooth="yes"/>
      <point x="100" y="202"/>
      <point x="177" y="-27"/>
      <point x="492" y="-27" type="curve" smooth="yes"/>
      <point x="795" y="-27"/>
      <point x="942" y="188"/>
      <point x="942" y="503" type="curve" smooth="yes"/>
      <point x="942" y="818"/>
      <point x="728" y="988"/>
      <point x="484" y="988" type="curve" smooth="yes"/>
      <point x="339" y="988"/>
      <point x="237" y="947"/>
    </contour>
  </outline>
</glyph>
<glyph name="Ogonek" format="2">
  <advance width="445"/>
  <unicode hex="02DB"/>
  <anchor x="355" y="-400" name="L"/>
  <outline>
    <contour>
      <point x="300" y="0" type="curve"/>
      <point x="160" y="0" type="line"/>
      <point x="56" y="-50"/>
      <point x="0" y="-121"/>
      <point x="0" y="-225" type="curve" smooth="yes"/>
      <point x="0" y="-345"/>
      <point x="118" y="-430"/>
      <point x="240" y="-430" type="curve" smooth="yes"/>
      <point x="314" y="-430"/>
      <point x="387" y="-398"/>
      <point x="445" y="-340" type="curve"/>
      <point x="415" y="-240" type="line"/>
      <point x="378" y="-284"/>
      <point x="303" y="-315"/>
      <point x="260" y="-315" type="curve" smooth="yes"/>
      <point x="186" y="-315"/>
      <point x="140" y="-270"/>
      <point x="140" y="-195" type="curve" smooth="yes"/>
      <point x="140" y="-125"/>
      <point x="197" y="-65"/>
    </contour>
  </outline>
</glyph>
<glyph name="gravecmb" format="2">
  <unicode hex="0300"/>
  <anchor x="0" y="1093" name="_aboveLC"/>
  <outline>
    <contour>
      <point x="86" y="1207" type="line"/>
      <point x="236" y="1357" type="line"/>
      <point x="-192" y="1739" type="line"/>
      <point x="-365" y="1538" type="line"/>
    </contour>
  </outline>
</glyph>
<glyph name="CombOverline" format="2">
  <unicode hex="0305"/>
  <anchor x="-570" y="1450" name="U"/>
  <anchor x="-570" y="1100" name="_U"/>
  <outline>
    <contour>
      <point x="-945" y="1383" type="line"/>
      <point x="-945" y="1240" type="line"/>
      <point x="-229" y="1240" type="line"/>
      <point x="-229" y="1383" type="line"/>
    </contour>
  </outline>
</glyph>
<glyph name="CombBreve" format="2">
  <unicode hex="0306"/>
  <anchor x="-570" y="1635" name="U"/>
  <anchor x="-570" y="1100" name="_U"/>
  <outline>
    <contour>
      <point x="-229" y="1347"/>
      <point x="-229" y="1532" type="curve"/>
      <point x="-346" y="1532" type="line"/>
      <point x="-365" y="1403"/>
      <point x="-462" y="1293"/>
      <point x="-587" y="1293" type="curve" smooth="yes"/>
      <point x="-711" y="1293"/>
      <point x="-815" y="1403"/>
      <point x="-831" y="1532" type="curve"/>
      <point x="-945" y="1532" type="line"/>
      <point x="-945" y="1347"/>
      <point x="-811" y="1150"/>
      <point x="-587" y="1150" type="curve" smooth="yes"/>
      <point x="-365" y="1150"/>
    </contour>
  </outline>
</glyph>
<glyph name="CombRingAbv" format="2">
  <unicode hex="030A"/>
  <anchor x="-570" y="1635" name="U"/>
  <anchor x="-572" y="1100" name="_U"/>
  <outline>
    <contour>
      <point x="-484" y="1432"/>
      <point x="-484" y="1375" type="curve" smooth="yes"/>
      <point x="-484" y="1318"/>
      <point x="-523" y="1280"/>
      <point x="-580" y="1280" type="curve" smooth="yes"/>
      <point x="-637" y="1280"/>
      <point x="-675" y="1318"/>
      <point x="-675" y="1375" type="curve" smooth="yes"/>
      <point x="-675" y="1432"/>
      <point x="-637" y="1471"/>
      <point x="-580" y="1471" type="curve" smooth="yes"/>
      <point x="-523" y="1471"/>
    </contour>
    <contour>
      <point x="-785" y="1490"/>
      <point x="-785" y="1375" type="curve" smooth="yes"/>
      <point x="-785" y="1261"/>
      <point x="-694" y="1170"/>
      <point x="-580" y="1170" type="curve" smooth="yes"/>
      <point x="-465" y="1170"/>
      <point x="-375" y="1261"/>
      <point x="-375" y="1375" type="curve" smooth="yes"/>
      <point x="-375" y="1490"/>
      <point x="-465" y="1580"/>
      <point x="-580" y="1580" type="curve" smooth="yes"/>
      <point x="-694" y="1580"/>
    </contour>
  </outline>
</glyph>
<glyph name="hungarumlautcmb" format="2">
  <unicode hex="030B"/>
  <anchor x="0" y="1093" name="_aboveLC"/>
  <outline>
    <contour>
      <point x="-109" y="1192" type="line"/>
      <point x="118" y="1553" type="line"/>
      <point x="-84" y="1646" type="line"/>
      <point x="-270" y="1264" type="line"/>
    </contour>
    <contour>
      <point x="265" y="1192" type="line"/>
      <point x="493" y="1553" type="line"/>
      <point x="291" y="1646" type="line"/>
      <point x="105" y="1264" type="line"/>
    </contour>
  </outline>
</glyph>
<glyph name="haceknosp" format="2">
  <unicode hex="030C"/>
  <anchor x="-570" y="1635" name="U"/>
  <anchor x="-570" y="1100" name="_U"/>
  <outline>
    <contour>
      <point x="-852" y="1580" type="line"/>
      <point x="-995" y="1580" type="line"/>
      <point x="-671" y="1170" type="line"/>
      <point x="-508" y="1170" type="line"/>
      <point x="-184" y="1580" type="line"/>
      <point x="-327" y="1580" type="line"/>
      <point x="-590" y="1313" type="line"/>
    </contour>
  </outline>
</glyph>
<glyph name="CombDotBlw" format="2">
  <advance width="1"/>
  <unicode hex="0323"/>
  <anchor x="-575" y="-500" name="L"/>
  <anchor x="-575" y="-100" name="_L"/>
  <outline>
    <contour>
      <point x="-705" y="-246"/>
      <point x="-705" y="-316" type="curve" smooth="yes"/>
      <point x="-705" y="-387"/>
      <point x="-647" y="-445"/>
      <point x="-576" y="-445" type="curve" smooth="yes"/>
      <point x="-506" y="-445"/>
      <point x="-447" y="-387"/>
      <point x="-447" y="-316" type="curve" smooth="yes"/>
      <point x="-447" y="-246"/>
      <point x="-506" y="-187"/>
      <point x="-576" y="-187" type="curve" smooth="yes"/>
      <point x="-647" y="-187"/>
    </contour>
  </outline>
</glyph>
<glyph name="CombCedilla" format="2">
  <unicode hex="0327"/>
  <anchor x="-460" y="-520" name="L"/>
  <anchor x="-430" y="0" name="_H"/>
  <outline>
    <contour>
      <point x="-389" y="-22" type="line"/>
      <point x="-508" y="-22" type="line"/>
      <point x="-508" y="-218" type="line"/>
      <point x="-488" y="-205"/>
      <point x="-454" y="-194"/>
      <point x="-424" y="-194" type="curve" smooth="yes"/>
      <point x="-372" y="-194"/>
      <point x="-332" y="-230"/>
      <point x="-331" y="-280" type="curve"/>
      <point x="-334" y="-351"/>
      <point x="-403" y="-375"/>
      <point x="-460" y="-375" type="curve" smooth="yes"/>
      <point x="-500" y="-375"/>
      <point x="-528" y="-366"/>
      <point x="-555" y="-346" type="curve"/>
      <point x="-565" y="-442" type="line"/>
      <point x="-526" y="-464"/>
      <point x="-486" y="-480"/>
      <point x="-436" y="-480" type="curve" smooth="yes"/>
      <point x="-323" y="-480"/>
      <point x="-193" y="-400"/>
      <point x="-193" y="-270" type="curve" smooth="yes"/>
      <point x="-193" y="-176"/>
      <point x="-256" y="-108"/>
      <point x="-343" y="-108" type="curve" smooth="yes"/>
      <point x="-364" y="-108"/>
      <point x="-376" y="-110"/>
      <point x="-389" y="-113" type="curve"/>
    </contour>
  </outline>
</glyph>
<glyph name="figuredash" format="2">
  <advance width="1112"/>
  <unicode hex="2012"/>
  <outline>
    <contour>
      <point x="90" y="436" type="line"/>
      <point x="1021" y="436" type="line"/>
      <point x="1021" y="631" type="line"/>
      <point x="90" y="631" type="line"/>
    </contour>
  </outline>
</glyph>
<glyph name="LftSglQuotMrk" format="2">
  <advance width="530"/>
  <unicode hex="2018"/>
  <outline>
    <contour>
      <point x="422" y="1160" type="curve"/>
      <point x="422" y="1256" type="line"/>
      <point x="289" y="1256" type="line"/>
      <point x="289" y="1352"/>
      <point x="362" y="1468"/>
      <point x="417" y="1523" type="curve"/>
      <point x="322" y="1561" type="line"/>
      <point x="210" y="1456"/>
      <point x="155" y="1339"/>
      <point x="155" y="1222" type="curve" smooth="yes"/>
      <point x="155" y="1126"/>
      <point x="217" y="1065"/>
      <point x="293" y="1065" type="curve" smooth="yes"/>
      <point x="348" y="1065"/>
      <point x="410" y="1100"/>
    </contour>
  </outline>
</glyph>
<glyph name="DblLow9QuotMrk" format="2">
  <advance width="990"/>
  <unicode hex="201E"/>
  <outline>
    <contour>
      <point x="215" y="131" type="curve"/>
      <point x="215" y="35" type="line"/>
      <point x="349" y="35" type="line"/>
      <point x="349" y="-61"/>
      <point x="275" y="-177"/>
      <point x="220" y="-232" type="curve"/>
      <point x="315" y="-270" type="line"/>
      <point x="427" y="-165"/>
      <point x="482" y="-48"/>
      <point x="482" y="69" type="curve" smooth="yes"/>
      <point x="482" y="165"/>
      <point x="420" y="226"/>
      <point x="344" y="226" type="curve" smooth="yes"/>
      <point x="289" y="226"/>
      <point x="227" y="191"/>
    </contour>
    <contour>
      <point x="625" y="131" type="curve"/>
      <point x="625" y="35" type="line"/>
      <point x="759" y="35" type="line"/>
      <point x="759" y="-61"/>
      <point x="685" y="-177"/>
      <point x="630" y="-232" type="curve"/>
      <point x="725" y="-270" type="line"/>
      <point x="837" y="-165"/>
      <point x="892" y="-48"/>
      <point x="892" y="69" type="curve" smooth="yes"/>
      <point x="892" y="165"/>
      <point x="830" y="226"/>
      <point x="754" y="226" type="curve" smooth="yes"/>
      <point x="700" y="226"/>
      <point x="638" y="191"/>
    </contour>
  </outline>
</glyph>
<glyph name="DblDagger" format="2">
  <advance width="1024"/>
  <unicode hex="2021"/>
  <outline>
    <contour>
      <point x="747" y="860"/>
      <point x="951" y="852" type="curve"/>
      <point x="951" y="1009" type="line"/>
      <point x="747" y="1000"/>
      <point x="673" y="1000"/>
      <point x="493" y="1000" type="curve" smooth="yes"/>
      <point x="355" y="1000"/>
      <point x="233" y="1000"/>
      <point x="30" y="1009" type="curve"/>
      <point x="30" y="852" type="line"/>
      <point x="233" y="860"/>
      <point x="355" y="862"/>
      <point x="493" y="862" type="curve" smooth="yes"/>
      <point x="630" y="862"/>
    </contour>
    <contour>
      <point x="747" y="159"/>
      <point x="951" y="150" type="curve"/>
      <point x="951" y="308" type="line"/>
      <point x="747" y="299"/>
      <point x="673" y="299"/>
      <point x="493" y="299" type="curve" smooth="yes"/>
      <point x="355" y="299"/>
      <point x="233" y="299"/>
      <point x="30" y="308" type="curve"/>
      <point x="30" y="150" type="line"/>
      <point x="233" y="159"/>
      <point x="355" y="161"/>
      <point x="493" y="161" type="curve" smooth="yes"/>
      <point x="630" y="161"/>
    </contour>
    <contour>
      <point x="416" y="757" type="curve"/>
      <point x="416" y="438" type="line"/>
      <point x="416" y="257"/>
      <point x="416" y="-32"/>
      <point x="397" y="-235" type="curve"/>
      <point x="583" y="-235" type="line"/>
      <point x="564" y="-32"/>
      <point x="564" y="257"/>
      <point x="564" y="438" type="curve"/>
      <point x="564" y="757" type="line"/>
      <point x="564" y="937"/>
      <point x="564" y="1227"/>
      <point x="583" y="1430" type="curve"/>
      <point x="397" y="1430" type="line"/>
      <point x="416" y="1227"/>
      <point x="416" y="937"/>
    </contour>
  </outline>
</glyph>
<glyph name="daggerdbl" format="2">
  <advance width="1072"/>
  <unicode hex="2021"/>
  <outline>
    <contour>
      <point x="413" y="-168" type="line"/>
      <point x="658" y="-168" type="line"/>
      <point x="639" y="196" type="line"/>
      <point x="977" y="177" type="line"/>
      <point x="977" y="422" type="line"/>
      <point x="639" y="396" type="line"/>
      <point x="658" y="667" type="line"/>
      <point x="639" y="937" type="line"/>
      <point x="977" y="911" type="line"/>
      <point x="977" y="1156" type="line"/>
      <point x="639" y="1137" type="line"/>
      <point x="658" y="1503" type="line"/>
      <point x="413" y="1503" type="line"/>
      <point x="430" y="1137" type="line"/>
      <point x="92" y="1156" type="line"/>
      <point x="92" y="911" type="line"/>
      <point x="430" y="937" type="line"/>
      <point x="413" y="667" type="line"/>
      <point x="430" y="396" type="line"/>
      <point x="92" y="422" type="line"/>
      <point x="92" y="177" type="line"/>
      <point x="430" y="196" type="line"/>
    </contour>
  </outline>
</glyph>
<glyph name="PerMilleSgn" format="2">
  <advance width="2201"/>
  <unicode hex="2030"/>
  <outline>
    <contour>
      <point x="1208" y="539"/>
      <point x="1208" y="348" type="curve" smooth="yes"/>
      <point x="1208" y="172"/>
      <point x="1165" y="109"/>
      <point x="1083" y="109" type="curve" smooth="yes"/>
      <point x="998" y="109"/>
      <point x="960" y="172"/>
      <point x="960" y="362" type="curve" smooth="yes"/>
      <point x="960" y="538"/>
      <point x="1000" y="600"/>
      <point x="1083" y="600" type="curve" smooth="yes"/>
      <point x="1169" y="600"/>
    </contour>
    <contour>
      <point x="1365" y="79"/>
      <point x="1365" y="360" type="curve" smooth="yes"/>
      <point x="1365" y="621"/>
      <point x="1254" y="733"/>
      <point x="1087" y="733" type="curve" smooth="yes"/>
      <point x="921" y="733"/>
      <point x="802" y="619"/>
      <point x="802" y="350" type="curve" smooth="yes"/>
      <point x="802" y="81"/>
      <point x="912" y="-25"/>
      <point x="1079" y="-25" type="curve" smooth="yes"/>
      <point x="1246" y="-25"/>
    </contour>
    <contour>
      <point x="1187" y="1411" type="line"/>
      <point x="1028" y="1411" type="line"/>
      <point x="282" y="-25" type="line"/>
      <point x="442" y="-25" type="line"/>
    </contour>
    <contour>
      <point x="505" y="1216"/>
      <point x="505" y="1025" type="curve" smooth="yes"/>
      <point x="505" y="850"/>
      <point x="463" y="786"/>
      <point x="380" y="786" type="curve" smooth="yes"/>
      <point x="296" y="786"/>
      <point x="257" y="849"/>
      <point x="257" y="1040" type="curve" smooth="yes"/>
      <point x="257" y="1215"/>
      <point x="297" y="1277"/>
      <point x="380" y="1277" type="curve" smooth="yes"/>
      <point x="467" y="1277"/>
    </contour>
    <contour>
      <point x="663" y="756"/>
      <point x="663" y="1038" type="curve" smooth="yes"/>
      <point x="663" y="1298"/>
      <point x="552" y="1411"/>
      <point x="385" y="1411" type="curve" smooth="yes"/>
      <point x="219" y="1411"/>
      <point x="100" y="1296"/>
      <point x="100" y="1027" type="curve" smooth="yes"/>
      <point x="100" y="758"/>
      <point x="210" y="652"/>
      <point x="377" y="652" type="curve" smooth="yes"/>
      <point x="544" y="652"/>
    </contour>
    <contour>
      <point x="1852" y="539"/>
      <point x="1852" y="348" type="curve" smooth="yes"/>
      <point x="1852" y="172"/>
      <point x="1809" y="109"/>
      <point x="1727" y="109" type="curve" smooth="yes"/>
      <point x="1642" y="109"/>
      <point x="1604" y="172"/>
      <point x="1604" y="362" type="curve" smooth="yes"/>
      <point x="1604" y="538"/>
      <point x="1644" y="600"/>
      <point x="1727" y="600" type="curve" smooth="yes"/>
      <point x="1813" y="600"/>
    </contour>
    <contour>
      <point x="2009" y="79"/>
      <point x="2009" y="360" type="curve" smooth="yes"/>
      <point x="2009" y="621"/>
      <point x="1898" y="733"/>
      <point x="1731" y="733" type="curve" smooth="yes"/>
      <point x="1565" y="733"/>
      <point x="1446" y="619"/>
      <point x="1446" y="350" type="curve" smooth="yes"/>
      <point x="1446" y="81"/>
      <point x="1556" y="-25"/>
      <point x="1723" y="-25" type="curve" smooth="yes"/>
      <point x="1890" y="-25"/>
    </contour>
  </outline>
</glyph>
<glyph name="SglRtPtngAngQuotMrk" format="2">
  <advance width="790"/>
  <unicode hex="203A"/>
  <outline>
    <contour>
      <point x="75" y="0" type="line"/>
      <point x="232" y="0" type="line"/>
      <point x="647" y="487" type="line"/>
      <point x="232" y="973" type="line"/>
      <point x="75" y="973" type="line"/>
      <point x="428" y="487" type="line"/>
    </contour>
  </outline>
</glyph>
<glyph name="notequal" format="2">
  <advance width="1112"/>
  <unicode hex="2260"/>
  <outline>
    <contour>
      <point x="109" y="86" type="line"/>
      <point x="303" y="86" type="line"/>
      <point x="455" y="344" type="line"/>
      <point x="1040" y="344" type="line"/>
      <point x="1040" y="559" type="line"/>
      <point x="574" y="559" type="line"/>
      <point x="730" y="833" type="line"/>
      <point x="1040" y="833" type="line"/>
      <point x="1040" y="1049" type="line"/>
      <point x="850" y="1049" type="line"/>
      <point x="1002" y="1306" type="line"/>
      <point x="808" y="1306" type="line"/>
      <point x="656" y="1049" type="line"/>
      <point x="71" y="1049" type="line"/>
      <point x="71" y="833" type="line"/>
      <point x="536" y="833" type="line"/>
      <point x="379" y="559" type="line"/>
      <point x="71" y="559" type="line"/>
      <point x="71" y="344" type="line"/>
      <point x="261" y="344" type="line"/>
    </contour>
  </outline>
</glyph>
<glyph name="uni2423" format="2">
  <advance width="600"/>
  <unicode hex="2423"/>
  <outline>
    <contour>
      <point x="600" y="-256" type="line"/>
      <point x="600" y="0" type="line"/>
      <point x="520" y="0" type="line"/>
      <point x="520" y="-176" type="line"/>
      <point x="80" y="-176" type="line"/>
      <point x="80" y="0" type="line"/>
      <point x="0" y="0" type="line"/>
      <point x="0" y="-256" type="line"/>
    </contour>
  </outline>
</glyph>
<glyph name="DottedCirc" format="2">
  <advance width="1106"/>
  <unicode hex="25CC"/>
  <anchor x="553" y="0" name="H"/>
  <anchor x="553" y="-100" name="L"/>
  <anchor x="810" y="0" name="O"/>
  <anchor x="553" y="1000" name="U"/>
  <outline>
    <contour>
      <point x="442" y="850"/>
      <point x="439" y="856" type="curve" smooth="yes"/>
      <point x="431" y="875"/>
      <point x="415" y="885"/>
      <point x="397" y="885" type="curve" smooth="yes"/>
      <point x="370" y="885"/>
      <point x="348" y="861"/>
      <point x="348" y="837" type="curve" smooth="yes"/>
      <point x="348" y="809"/>
      <point x="372" y="789"/>
      <point x="398" y="789" type="curve" smooth="yes"/>
      <point x="425" y="789"/>
      <point x="443" y="812"/>
      <point x="443" y="837" type="curve" smooth="yes"/>
      <point x="443" y="843"/>
    </contour>
    <contour>
      <point x="756" y="91"/>
      <point x="754" y="97" type="curve"/>
      <point x="745" y="115"/>
      <point x="726" y="127"/>
      <point x="707" y="127" type="curve" smooth="yes"/>
      <point x="682" y="127"/>
      <point x="662" y="103"/>
      <point x="662" y="80" type="curve" smooth="yes"/>
      <point x="662" y="52"/>
      <point x="686" y="31"/>
      <point x="710" y="31" type="curve" smooth="yes"/>
      <point x="737" y="31"/>
      <point x="758" y="55"/>
      <point x="758" y="79" type="curve" smooth="yes"/>
      <point x="758" y="85"/>
    </contour>
    <contour>
      <point x="304" y="774"/>
      <point x="295" y="782" type="curve" smooth="yes"/>
      <point x="286" y="791"/>
      <point x="274" y="796"/>
      <point x="262" y="796" type="curve" smooth="yes"/>
      <point x="237" y="796"/>
      <point x="215" y="774"/>
      <point x="215" y="747" type="curve" smooth="yes"/>
      <point x="215" y="722"/>
      <point x="236" y="701"/>
      <point x="263" y="701" type="curve" smooth="yes"/>
      <point x="291" y="701"/>
      <point x="310" y="720"/>
      <point x="310" y="749" type="curve" smooth="yes"/>
      <point x="310" y="762"/>
    </contour>
    <contour>
      <point x="886" y="193"/>
      <point x="877" y="202" type="curve"/>
      <point x="867" y="210"/>
      <point x="854" y="215"/>
      <point x="841" y="215" type="curve" smooth="yes"/>
      <point x="815" y="215"/>
      <point x="795" y="194"/>
      <point x="795" y="168" type="curve" smooth="yes"/>
      <point x="795" y="143"/>
      <point x="816" y="121"/>
      <point x="843" y="121" type="curve" smooth="yes"/>
      <point x="871" y="121"/>
      <point x="891" y="143"/>
      <point x="891" y="168" type="curve" smooth="yes"/>
      <point x="891" y="180"/>
    </contour>
    <contour>
      <point x="210" y="651"/>
      <point x="191" y="659" type="curve" smooth="yes"/>
      <point x="185" y="661"/>
      <point x="179" y="663"/>
      <point x="173" y="663" type="curve" smooth="yes"/>
      <point x="149" y="663"/>
      <point x="126" y="642"/>
      <point x="126" y="615" type="curve" smooth="yes"/>
      <point x="126" y="591"/>
      <point x="145" y="567"/>
      <point x="173" y="567" type="curve" smooth="yes"/>
      <point x="197" y="567"/>
      <point x="222" y="587"/>
      <point x="222" y="613" type="curve" smooth="yes"/>
      <point x="222" y="632"/>
    </contour>
    <contour>
      <point x="968" y="337"/>
      <point x="950" y="345" type="curve" smooth="yes"/>
      <point x="945" y="347"/>
      <point x="939" y="348"/>
      <point x="933" y="348" type="curve" smooth="yes"/>
      <point x="909" y="348"/>
      <point x="884" y="332"/>
      <point x="884" y="301" type="curve" smooth="yes"/>
      <point x="884" y="277"/>
      <point x="902" y="254"/>
      <point x="932" y="254" type="curve" smooth="yes"/>
      <point x="957" y="254"/>
      <point x="980" y="274"/>
      <point x="980" y="301" type="curve" smooth="yes"/>
      <point x="980" y="320"/>
    </contour>
    <contour>
      <point x="167" y="505"/>
      <point x="142" y="505" type="curve" smooth="yes"/>
      <point x="115" y="505"/>
      <point x="95" y="484"/>
      <point x="95" y="458" type="curve" smooth="yes"/>
      <point x="95" y="433"/>
      <point x="115" y="410"/>
      <point x="143" y="410" type="curve" smooth="yes"/>
      <point x="167" y="410"/>
      <point x="191" y="432"/>
      <point x="191" y="459" type="curve" smooth="yes"/>
      <point x="191" y="484"/>
    </contour>
    <contour>
      <point x="989" y="506"/>
      <point x="963" y="506" type="curve"/>
      <point x="939" y="504"/>
      <point x="915" y="484"/>
      <point x="915" y="457" type="curve" smooth="yes"/>
      <point x="915" y="433"/>
      <point x="936" y="411"/>
      <point x="960" y="411" type="curve" smooth="yes"/>
      <point x="964" y="411" type="line" smooth="yes"/>
      <point x="990" y="411"/>
      <point x="1011" y="433"/>
      <point x="1011" y="458" type="curve" smooth="yes"/>
      <point x="1011" y="484"/>
    </contour>
    <contour>
      <point x="161" y="347"/>
      <point x="155" y="344" type="curve" smooth="yes"/>
      <point x="136" y="337"/>
      <point x="126" y="320"/>
      <point x="126" y="302" type="curve" smooth="yes"/>
      <point x="126" y="275"/>
      <point x="149" y="253"/>
      <point x="174" y="253" type="curve" smooth="yes"/>
      <point x="201" y="253"/>
      <point x="222" y="277"/>
      <point x="222" y="302" type="curve" smooth="yes"/>
      <point x="222" y="328"/>
      <point x="200" y="348"/>
      <point x="174" y="348" type="curve" smooth="yes"/>
      <point x="168" y="348"/>
    </contour>
    <contour>
      <point x="920" y="661"/>
      <point x="914" y="659" type="curve" smooth="yes"/>
      <point x="896" y="651"/>
      <point x="885" y="633"/>
      <point x="885" y="614" type="curve" smooth="yes"/>
      <point x="885" y="588"/>
      <point x="907" y="567"/>
      <point x="931" y="567" type="curve" smooth="yes"/>
      <point x="959" y="567"/>
      <point x="980" y="591"/>
      <point x="980" y="615" type="curve" smooth="yes"/>
      <point x="980" y="642"/>
      <point x="956" y="663"/>
      <point x="932" y="663" type="curve" smooth="yes"/>
      <point x="926" y="663"/>
    </contour>
    <contour>
      <point x="238" y="209"/>
      <point x="229" y="200" type="curve" smooth="yes"/>
      <point x="220" y="191"/>
      <point x="215" y="180"/>
      <point x="215" y="168" type="curve" smooth="yes"/>
      <point x="215" y="143"/>
      <point x="238" y="120"/>
      <point x="263" y="120" type="curve" smooth="yes"/>
      <point x="289" y="120"/>
      <point x="310" y="143"/>
      <point x="310" y="168" type="curve" smooth="yes"/>
      <point x="310" y="195"/>
      <point x="289" y="215"/>
      <point x="261" y="215" type="curve" smooth="yes"/>
      <point x="249" y="215"/>
    </contour>
    <contour>
      <point x="819" y="791"/>
      <point x="809" y="782" type="curve"/>
      <point x="801" y="773"/>
      <point x="796" y="760"/>
      <point x="796" y="748" type="curve" smooth="yes"/>
      <point x="796" y="724"/>
      <point x="817" y="700"/>
      <point x="843" y="700" type="curve" smooth="yes"/>
      <point x="869" y="700"/>
      <point x="890" y="722"/>
      <point x="890" y="748" type="curve" smooth="yes"/>
      <point x="890" y="774"/>
      <point x="870" y="796"/>
      <point x="843" y="796" type="curve" smooth="yes"/>
      <point x="831" y="796"/>
    </contour>
    <contour>
      <point x="360" y="114"/>
      <point x="352" y="96" type="curve" smooth="yes"/>
      <point x="350" y="90"/>
      <point x="348" y="84"/>
      <point x="348" y="78" type="curve" smooth="yes"/>
      <point x="348" y="55"/>
      <point x="370" y="31"/>
      <point x="396" y="31" type="curve" smooth="yes"/>
      <point x="420" y="31"/>
      <point x="444" y="51"/>
      <point x="444" y="78" type="curve" smooth="yes"/>
      <point x="444" y="102"/>
      <point x="424" y="126"/>
      <point x="397" y="126" type="curve" smooth="yes"/>
      <point x="381" y="126"/>
    </contour>
    <contour>
      <point x="674" y="873"/>
      <point x="666" y="855" type="curve" smooth="yes"/>
      <point x="664" y="849"/>
      <point x="663" y="844"/>
      <point x="663" y="838" type="curve" smooth="yes"/>
      <point x="663" y="814"/>
      <point x="683" y="789"/>
      <point x="710" y="789" type="curve" smooth="yes"/>
      <point x="734" y="789"/>
      <point x="758" y="809"/>
      <point x="758" y="836" type="curve" smooth="yes"/>
      <point x="758" y="861"/>
      <point x="737" y="885"/>
      <point x="710" y="885" type="curve" smooth="yes"/>
      <point x="691" y="885"/>
    </contour>
    <contour>
      <point x="506" y="73"/>
      <point x="506" y="47" type="curve" smooth="yes"/>
      <point x="506" y="21"/>
      <point x="527" y="0"/>
      <point x="553" y="0" type="curve" smooth="yes"/>
      <point x="579" y="0"/>
      <point x="601" y="21"/>
      <point x="601" y="47" type="curve" smooth="yes"/>
      <point x="601" y="73"/>
      <point x="579" y="95"/>
      <point x="553" y="95" type="curve" smooth="yes"/>
      <point x="527" y="95"/>
    </contour>
    <contour>
      <point x="506" y="894"/>
      <point x="506" y="868" type="curve" smooth="yes"/>
      <point x="506" y="842"/>
      <point x="527" y="821"/>
      <point x="553" y="821" type="curve" smooth="yes"/>
      <point x="579" y="821"/>
      <point x="601" y="842"/>
      <point x="601" y="868" type="curve" smooth="yes"/>
      <point x="601" y="894"/>
      <point x="579" y="916"/>
      <point x="553" y="916" type="curve" smooth="yes"/>
      <point x="527" y="916"/>
    </contour>
  </outline>
</glyph>
<glyph name="ya-tifi" format="2">
  <advance width="756"/>
  <unicode hex="2D30"/>
  <outline>
    <contour>
      <point x="190" y="800"/>
      <point x="190" y="697" type="curve" smooth="yes"/>
      <point x="190" y="594"/>
      <point x="275" y="509"/>
      <point x="378" y="509" type="curve" smooth="yes"/>
      <point x="481" y="509"/>
      <point x="566" y="594"/>
      <point x="566" y="697" type="curve" smooth="yes"/>
      <point x="566" y="800"/>
      <point x="481" y="885"/>
      <point x="378" y="885" type="curve" smooth="yes"/>
      <point x="275" y="885"/>
    </contour>
  </outline>
</glyph>
<glyph name="TifLtrYab" format="2">
  <advance width="1438"/>
  <unicode hex="2D31"/>
  <anchor x="720" y="1393" name="T"/>
  <outline>
    <contour>
      <point x="722" y="1420" type="curve" smooth="yes"/>
      <point x="350" y="1420"/>
      <point x="77" y="1102"/>
      <point x="77" y="675" type="curve" smooth="yes"/>
      <point x="77" y="248"/>
      <point x="330" y="-30"/>
      <point x="702" y="-30" type="curve" smooth="yes"/>
      <point x="1074" y="-30"/>
      <point x="1351" y="288"/>
      <point x="1351" y="715" type="curve" smooth="yes"/>
      <point x="1351" y="1142"/>
      <point x="1094" y="1420"/>
    </contour>
    <contour>
      <point x="694" y="1172" type="curve" smooth="yes"/>
      <point x="858" y="1172"/>
      <point x="978" y="1028"/>
      <point x="1017" y="826" type="curve"/>
      <point x="993" y="826"/>
      <point x="969" y="826"/>
      <point x="945" y="826" type="curve" smooth="yes"/>
      <point x="705" y="826"/>
      <point x="692" y="817"/>
      <point x="472" y="817" type="curve" smooth="yes"/>
      <point x="449" y="817"/>
      <point x="425" y="817"/>
      <point x="402" y="817" type="curve"/>
      <point x="423" y="1036"/>
      <point x="518" y="1172"/>
    </contour>
    <contour>
      <point x="734" y="222" type="curve" smooth="yes"/>
      <point x="573" y="222"/>
      <point x="455" y="361"/>
      <point x="413" y="557" type="curve"/>
      <point x="433" y="557"/>
      <point x="452" y="557"/>
      <point x="472" y="557" type="curve" smooth="yes"/>
      <point x="692" y="557"/>
      <point x="705" y="566"/>
      <point x="945" y="566" type="curve" smooth="yes"/>
      <point x="972" y="566"/>
      <point x="998" y="566"/>
      <point x="1025" y="566" type="curve"/>
      <point x="1002" y="354"/>
      <point x="907" y="222"/>
    </contour>
  </outline>
</glyph>
<glyph name="yab-tifi" format="2">
  <advance width="1438"/>
  <unicode hex="2D31"/>
  <anchor x="717" y="1393" name="T"/>
  <outline>
    <contour>
      <point x="719" y="1420" type="curve" smooth="yes"/>
      <point x="347" y="1420"/>
      <point x="74" y="1102"/>
      <point x="74" y="675" type="curve" smooth="yes"/>
      <point x="74" y="248"/>
      <point x="327" y="-30"/>
      <point x="699" y="-30" type="curve" smooth="yes"/>
      <point x="1071" y="-30"/>
      <point x="1348" y="288"/>
      <point x="1348" y="715" type="curve" smooth="yes"/>
      <point x="1348" y="1142"/>
      <point x="1091" y="1420"/>
    </contour>
    <contour>
      <point x="691" y="1172" type="curve" smooth="yes"/>
      <point x="855" y="1172"/>
      <point x="975" y="1028"/>
      <point x="1014" y="826" type="curve"/>
      <point x="990" y="826"/>
      <point x="966" y="826"/>
      <point x="942" y="826" type="curve" smooth="yes"/>
      <point x="702" y="826"/>
      <point x="689" y="817"/>
      <point x="469" y="817" type="curve" smooth="yes"/>
      <point x="446" y="817"/>
      <point x="422" y="817"/>
      <point x="399" y="817" type="curve"/>
      <point x="420" y="1036"/>
      <point x="515" y="1172"/>
    </contour>
    <contour>
      <point x="731" y="222" type="curve" smooth="yes"/>
      <point x="570" y="222"/>
      <point x="452" y="361"/>
      <point x="410" y="557" type="curve"/>
      <point x="430" y="557"/>
      <point x="449" y="557"/>
      <point x="469" y="557" type="curve" smooth="yes"/>
      <point x="689" y="557"/>
      <point x="702" y="566"/>
      <point x="942" y="566" type="curve" smooth="yes"/>
      <point x="969" y="566"/>
      <point x="995" y="566"/>
      <point x="1022" y="566" type="curve"/>
      <point x="999" y="354"/>
      <point x="904" y="222"/>
    </contour>
  </outline>
</glyph>
<glyph name="yag-tifi" format="2">
  <advance width="1153"/>
  <unicode hex="2D33"/>
  <anchor x="576" y="1393" name="T"/>
  <outline>
    <contour>
      <point x="251" y="-12" type="curve" smooth="yes"/>
      <point x="293" y="-12"/>
      <point x="406" y="17"/>
      <point x="419" y="96" type="curve" smooth="yes"/>
      <point x="473" y="427"/>
      <point x="1063" y="877"/>
      <point x="1063" y="1335" type="curve" smooth="yes"/>
      <point x="1063" y="1367"/>
      <point x="1048" y="1393"/>
      <point x="995" y="1393" type="curve" smooth="yes"/>
      <point x="158" y="1393" type="line" smooth="yes"/>
      <point x="102" y="1393"/>
      <point x="90" y="1369"/>
      <point x="90" y="1318" type="curve" smooth="yes"/>
      <point x="90" y="1017"/>
      <point x="672" y="350"/>
      <point x="750" y="30" type="curve" smooth="yes"/>
      <point x="759" y="-7"/>
      <point x="831" y="-11"/>
      <point x="857" y="-11" type="curve" smooth="yes"/>
      <point x="953" y="-11"/>
      <point x="1036" y="44"/>
      <point x="1036" y="114" type="curve" smooth="yes"/>
      <point x="1036" y="351"/>
      <point x="516" y="928"/>
      <point x="464" y="1155" type="curve"/>
      <point x="533" y="1155"/>
      <point x="652" y="1155"/>
      <point x="721" y="1155" type="curve"/>
      <point x="679" y="829"/>
      <point x="136" y="353"/>
      <point x="136" y="53" type="curve" smooth="yes"/>
      <point x="136" y="4"/>
      <point x="179" y="-12"/>
    </contour>
  </outline>
</glyph>
<glyph name="TifLtrYaghh" format="2">
  <advance width="1093"/>
  <unicode hex="2D34"/>
  <anchor x="538" y="1393" name="T"/>
  <outline>
    <contour>
      <point x="276" y="1404" type="curve" smooth="yes"/>
      <point x="302" y="1404"/>
      <point x="314" y="1400"/>
      <point x="323" y="1363" type="curve" smooth="yes"/>
      <point x="401" y="1043"/>
      <point x="993" y="376"/>
      <point x="993" y="75" type="curve" smooth="yes"/>
      <point x="993" y="24"/>
      <point x="981" y="0"/>
      <point x="925" y="0" type="curve" smooth="yes"/>
      <point x="168" y="0" type="line" smooth="yes"/>
      <point x="115" y="0"/>
      <point x="100" y="26"/>
      <point x="100" y="58" type="curve" smooth="yes"/>
      <point x="100" y="466"/>
      <point x="682" y="917"/>
      <point x="749" y="1327" type="curve" smooth="yes"/>
      <point x="757" y="1376"/>
      <point x="820" y="1405"/>
      <point x="862" y="1405" type="curve" smooth="yes"/>
      <point x="904" y="1405"/>
      <point x="917" y="1389"/>
      <point x="917" y="1360" type="curve" smooth="yes"/>
      <point x="917" y="1080"/>
      <point x="314" y="464"/>
      <point x="272" y="138" type="curve"/>
      <point x="802" y="138" type="line"/>
      <point x="750" y="365"/>
      <point x="157" y="1072"/>
      <point x="157" y="1309" type="curve" smooth="yes"/>
      <point x="157" y="1349"/>
      <point x="220" y="1404"/>
    </contour>
  </outline>
</glyph>
<glyph name="yaghh-tifi" format="2">
  <advance width="1133"/>
  <unicode hex="2D34"/>
  <anchor x="558" y="1393" name="T"/>
  <outline>
    <contour>
      <point x="296" y="1404" type="curve" smooth="yes"/>
      <point x="322" y="1404"/>
      <point x="394" y="1400"/>
      <point x="403" y="1363" type="curve" smooth="yes"/>
      <point x="481" y="1043"/>
      <point x="1043" y="376"/>
      <point x="1043" y="75" type="curve" smooth="yes"/>
      <point x="1043" y="24"/>
      <point x="1031" y="0"/>
      <point x="975" y="0" type="curve" smooth="yes"/>
      <point x="158" y="0" type="line" smooth="yes"/>
      <point x="105" y="0"/>
      <point x="90" y="26"/>
      <point x="90" y="58" type="curve" smooth="yes"/>
      <point x="90" y="516"/>
      <point x="660" y="966"/>
      <point x="714" y="1297" type="curve" smooth="yes"/>
      <point x="727" y="1376"/>
      <point x="840" y="1405"/>
      <point x="882" y="1405" type="curve" smooth="yes"/>
      <point x="954" y="1405"/>
      <point x="997" y="1389"/>
      <point x="997" y="1340" type="curve" smooth="yes"/>
      <point x="997" y="1040"/>
      <point x="484" y="586"/>
      <point x="442" y="260" type="curve"/>
      <point x="511" y="260"/>
      <point x="580" y="260"/>
      <point x="649" y="260" type="curve"/>
      <point x="597" y="487"/>
      <point x="117" y="1042"/>
      <point x="117" y="1279" type="curve" smooth="yes"/>
      <point x="117" y="1349"/>
      <point x="200" y="1404"/>
    </contour>
  </outline>
</glyph>
<glyph name="yajBerberAcademy-tifi" format="2">
  <advance width="1153"/>
  <unicode hex="2D35"/>
  <anchor x="576" y="1393" name="T"/>
  <outline>
    <contour>
      <point x="472" y="819" type="curve"/>
      <point x="609" y="619" type="line"/>
      <point x="519" y="490"/>
      <point x="447" y="355"/>
      <point x="432" y="238" type="curve"/>
      <point x="689" y="238" type="line"/>
      <point x="637" y="465"/>
      <point x="90" y="1081"/>
      <point x="90" y="1318" type="curve" smooth="yes"/>
      <point x="90" y="1369"/>
      <point x="102" y="1393"/>
      <point x="158" y="1393" type="curve" smooth="yes"/>
      <point x="975" y="1393" type="line" smooth="yes"/>
      <point x="1028" y="1393"/>
      <point x="1043" y="1367"/>
      <point x="1043" y="1335" type="curve" smooth="yes"/>
      <point x="1043" y="1142"/>
      <point x="818" y="869"/>
      <point x="649" y="639" type="curve"/>
      <point x="512" y="839" type="line"/>
      <point x="614" y="963"/>
      <point x="700" y="1092"/>
      <point x="713" y="1155" type="curve"/>
      <point x="454" y="1155" type="line"/>
      <point x="458" y="1038"/>
      <point x="1063" y="321"/>
      <point x="1063" y="75" type="curve" smooth="yes"/>
      <point x="1063" y="24"/>
      <point x="1051" y="0"/>
      <point x="995" y="0" type="curve" smooth="yes"/>
      <point x="158" y="0" type="line" smooth="yes"/>
      <point x="105" y="0"/>
      <point x="90" y="26"/>
      <point x="90" y="58" type="curve" smooth="yes"/>
      <point x="90" y="301"/>
      <point x="303" y="598"/>
    </contour>
  </outline>
</glyph>
<glyph name="yad-tifi" format="2">
  <advance width="1322"/>
  <unicode hex="2D37"/>
  <anchor x="699" y="1393" name="T"/>
  <outline>
    <contour>
      <point x="794" y="1405"/>
      <point x="740" y="1405" type="curve" smooth="yes"/>
      <point x="690" y="1405"/>
      <point x="586" y="1376"/>
      <point x="524" y="1291" type="curve" smooth="yes"/>
      <point x="349" y="1051"/>
      <point x="49" y="328"/>
      <point x="49" y="57" type="curve" smooth="yes"/>
      <point x="49" y="5"/>
      <point x="89" y="-30"/>
      <point x="146" y="-30" type="curve" smooth="yes"/>
      <point x="185" y="-30"/>
      <point x="349" y="-1"/>
      <point x="365" y="114" type="curve" smooth="yes"/>
      <point x="407" y="418"/>
      <point x="567" y="859"/>
      <point x="784" y="1224" type="curve"/>
      <point x="549" y="1213" type="line"/>
      <point x="722" y="954"/>
      <point x="885" y="277"/>
      <point x="912" y="124" type="curve" smooth="yes"/>
      <point x="934" y="0"/>
      <point x="994" y="-19"/>
      <point x="1102" y="-19" type="curve" smooth="yes"/>
      <point x="1189" y="-19"/>
      <point x="1291" y="25"/>
      <point x="1291" y="86" type="curve" smooth="yes"/>
      <point x="1291" y="137"/>
      <point x="1257" y="115"/>
      <point x="1225" y="257" type="curve" smooth="yes"/>
      <point x="1121" y="715"/>
      <point x="1029" y="1007"/>
      <point x="870" y="1307" type="curve" smooth="yes"/>
      <point x="831" y="1381"/>
    </contour>
  </outline>
</glyph>
<glyph name="TifLtrYadh" format="2">
  <advance width="1336"/>
  <unicode hex="2D38"/>
  <anchor x="702" y="1393" name="T"/>
  <outline>
    <contour>
      <point x="267" y="1381" type="curve" smooth="yes"/>
      <point x="267" y="1400"/>
      <point x="237" y="1408"/>
      <point x="216" y="1408" type="curve" smooth="yes"/>
      <point x="165" y="1408"/>
      <point x="100" y="1370"/>
      <point x="100" y="1313" type="curve" smooth="yes"/>
      <point x="100" y="1030"/>
      <point x="473" y="431"/>
      <point x="581" y="4" type="curve" smooth="yes"/>
      <point x="586" y="-14"/>
      <point x="602" y="-30"/>
      <point x="626" y="-30" type="curve" smooth="yes"/>
      <point x="661" y="-30"/>
      <point x="705" y="-19"/>
      <point x="735" y="29" type="curve" smooth="yes"/>
      <point x="1072" y="569"/>
      <point x="1236" y="1103"/>
      <point x="1236" y="1324" type="curve" smooth="yes"/>
      <point x="1236" y="1375"/>
      <point x="1215" y="1407"/>
      <point x="1163" y="1407" type="curve" smooth="yes"/>
      <point x="1111" y="1407"/>
      <point x="1058" y="1345"/>
      <point x="1058" y="1314" type="curve" smooth="yes"/>
      <point x="1058" y="1298"/>
      <point x="1066" y="1289"/>
      <point x="1066" y="1255" type="curve" smooth="yes"/>
      <point x="1066" y="1032"/>
      <point x="860" y="517"/>
      <point x="698" y="236" type="curve"/>
      <point x="603" y="547"/>
      <point x="267" y="1111"/>
    </contour>
  </outline>
</glyph>
<glyph name="yadh-tifi" format="2">
  <advance width="1431"/>
  <unicode hex="2D38"/>
  <anchor x="752" y="1393" name="T"/>
  <outline>
    <contour>
      <point x="407" y="1351" type="curve" smooth="yes"/>
      <point x="407" y="1395"/>
      <point x="374" y="1411"/>
      <point x="317" y="1411" type="curve" smooth="yes"/>
      <point x="207" y="1411"/>
      <point x="90" y="1356"/>
      <point x="90" y="1253" type="curve" smooth="yes"/>
      <point x="90" y="990"/>
      <point x="462" y="431"/>
      <point x="565" y="25" type="curve" smooth="yes"/>
      <point x="575" y="-14"/>
      <point x="622" y="-30"/>
      <point x="676" y="-30" type="curve" smooth="yes"/>
      <point x="711" y="-30"/>
      <point x="810" y="-19"/>
      <point x="858" y="58" type="curve" smooth="yes"/>
      <point x="1177" y="569"/>
      <point x="1341" y="1083"/>
      <point x="1341" y="1304" type="curve" smooth="yes"/>
      <point x="1341" y="1365"/>
      <point x="1305" y="1407"/>
      <point x="1213" y="1407" type="curve" smooth="yes"/>
      <point x="1131" y="1407"/>
      <point x="1038" y="1345"/>
      <point x="1038" y="1294" type="curve" smooth="yes"/>
      <point x="1038" y="1268"/>
      <point x="1046" y="1259"/>
      <point x="1046" y="1225" type="curve" smooth="yes"/>
      <point x="1046" y="990"/>
      <point x="813" y="462"/>
      <point x="648" y="194" type="curve"/>
      <point x="850" y="194" type="line"/>
      <point x="775" y="494"/>
      <point x="407" y="1078"/>
    </contour>
  </outline>
</glyph>
<glyph name="yey-tifi" format="2">
  <advance width="1395"/>
  <unicode hex="2D3B"/>
  <outline>
    <component base="_HorizontalBar" xOffset="-45" yOffset="4"/>
    <contour>
      <point x="646" y="870" type="curve" smooth="yes"/>
      <point x="815" y="870"/>
      <point x="996" y="983"/>
      <point x="996" y="1162" type="curve" smooth="yes"/>
      <point x="996" y="1281"/>
      <point x="899" y="1420"/>
      <point x="713" y="1420" type="curve" smooth="yes"/>
      <point x="567" y="1420"/>
      <point x="391" y="1373"/>
      <point x="391" y="1113" type="curve" smooth="yes"/>
      <point x="391" y="964"/>
      <point x="514" y="870"/>
    </contour>
    <contour>
      <point x="719" y="1018" type="curve" smooth="yes"/>
      <point x="624" y="1018"/>
      <point x="553" y="1065"/>
      <point x="553" y="1169" type="curve" smooth="yes"/>
      <point x="553" y="1187"/>
      <point x="557" y="1202"/>
      <point x="563" y="1217" type="curve"/>
      <point x="581" y="1237"/>
      <point x="609" y="1262"/>
      <point x="649" y="1262" type="curve" smooth="yes"/>
      <point x="766" y="1262"/>
      <point x="816" y="1196"/>
      <point x="816" y="1128" type="curve" smooth="yes"/>
      <point x="816" y="1056"/>
      <point x="791" y="1018"/>
    </contour>
    <contour>
      <point x="714" y="121" type="curve" smooth="yes"/>
      <point x="659" y="121"/>
      <point x="616" y="150"/>
      <point x="585" y="181" type="curve"/>
      <point x="575" y="212"/>
      <point x="571" y="240"/>
      <point x="571" y="261" type="curve" smooth="yes"/>
      <point x="571" y="319"/>
      <point x="622" y="371"/>
      <point x="692" y="371" type="curve" smooth="yes"/>
      <point x="766" y="371"/>
      <point x="826" y="310"/>
      <point x="826" y="243" type="curve" smooth="yes"/>
      <point x="826" y="163"/>
      <point x="784" y="121"/>
    </contour>
    <contour>
      <point x="652" y="-30" type="curve" smooth="yes"/>
      <point x="867" y="-30"/>
      <point x="996" y="122"/>
      <point x="996" y="281" type="curve" smooth="yes"/>
      <point x="996" y="420"/>
      <point x="880" y="520"/>
      <point x="726" y="520" type="curve" smooth="yes"/>
      <point x="552" y="520"/>
      <point x="388" y="380"/>
      <point x="388" y="227" type="curve" smooth="yes"/>
      <point x="388" y="85"/>
      <point x="477" y="-30"/>
    </contour>
  </outline>
</glyph>
<glyph name="yaf-tifi" format="2">
  <advance width="1854"/>
  <unicode hex="2D3C"/>
  <anchor x="924" y="1393" name="T"/>
  <outline>
    <contour>
      <point x="1754" y="1242" type="curve" smooth="yes"/>
      <point x="1754" y="1306"/>
      <point x="1718" y="1393"/>
      <point x="1631" y="1393" type="curve" smooth="yes"/>
      <point x="1582" y="1393"/>
      <point x="1385" y="1391"/>
      <point x="1329" y="1391" type="curve" smooth="yes"/>
      <point x="1265" y="1391"/>
      <point x="1219" y="1393"/>
      <point x="1186" y="1393" type="curve" smooth="yes"/>
      <point x="1094" y="1393"/>
      <point x="1011" y="1325"/>
      <point x="1011" y="1239" type="curve" smooth="yes"/>
      <point x="1011" y="1167"/>
      <point x="1007" y="1107"/>
      <point x="1007" y="1013" type="curve" smooth="yes"/>
      <point x="1007" y="733"/>
      <point x="1022" y="660"/>
      <point x="1022" y="380" type="curve" smooth="yes"/>
      <point x="1022" y="247"/>
      <point x="1021" y="195"/>
      <point x="1021" y="154" type="curve" smooth="yes"/>
      <point x="1021" y="68"/>
      <point x="1094" y="0"/>
      <point x="1186" y="0" type="curve" smooth="yes"/>
      <point x="1219" y="0"/>
      <point x="1345" y="4"/>
      <point x="1409" y="4" type="curve" smooth="yes"/>
      <point x="1465" y="4"/>
      <point x="1592" y="0"/>
      <point x="1641" y="0" type="curve" smooth="yes"/>
      <point x="1728" y="0"/>
      <point x="1764" y="86"/>
      <point x="1764" y="150" type="curve" smooth="yes"/>
      <point x="1764" y="218"/>
      <point x="1736" y="254"/>
      <point x="1688" y="254" type="curve" smooth="yes"/>
      <point x="1655" y="254"/>
      <point x="1592" y="246"/>
      <point x="1566" y="246" type="curve" smooth="yes"/>
      <point x="1537" y="246"/>
      <point x="1361" y="246"/>
      <point x="1338" y="247" type="curve"/>
      <point x="1341" y="292"/>
      <point x="1342" y="321"/>
      <point x="1342" y="380" type="curve" smooth="yes"/>
      <point x="1342" y="607"/>
      <point x="1325" y="790"/>
      <point x="1325" y="1042" type="curve" smooth="yes"/>
      <point x="1325" y="1080"/>
      <point x="1326" y="1112"/>
      <point x="1328" y="1145" type="curve"/>
      <point x="1362" y="1147"/>
      <point x="1525" y="1147"/>
      <point x="1556" y="1147" type="curve" smooth="yes"/>
      <point x="1603" y="1147"/>
      <point x="1645" y="1138"/>
      <point x="1678" y="1138" type="curve" smooth="yes"/>
      <point x="1726" y="1138"/>
      <point x="1754" y="1174"/>
    </contour>
    <contour>
      <point x="100" y="150" type="curve" smooth="yes"/>
      <point x="100" y="86"/>
      <point x="136" y="0"/>
      <point x="223" y="0" type="curve" smooth="yes"/>
      <point x="272" y="0"/>
      <point x="469" y="2"/>
      <point x="525" y="2" type="curve" smooth="yes"/>
      <point x="589" y="2"/>
      <point x="635" y="0"/>
      <point x="668" y="0" type="curve" smooth="yes"/>
      <point x="760" y="0"/>
      <point x="843" y="68"/>
      <point x="843" y="154" type="curve" smooth="yes"/>
      <point x="843" y="226"/>
      <point x="847" y="286"/>
      <point x="847" y="380" type="curve" smooth="yes"/>
      <point x="847" y="660"/>
      <point x="832" y="733"/>
      <point x="832" y="1013" type="curve" smooth="yes"/>
      <point x="832" y="1146"/>
      <point x="833" y="1198"/>
      <point x="833" y="1239" type="curve" smooth="yes"/>
      <point x="833" y="1325"/>
      <point x="760" y="1393"/>
      <point x="668" y="1393" type="curve" smooth="yes"/>
      <point x="635" y="1393"/>
      <point x="509" y="1389"/>
      <point x="445" y="1389" type="curve" smooth="yes"/>
      <point x="389" y="1389"/>
      <point x="262" y="1393"/>
      <point x="213" y="1393" type="curve" smooth="yes"/>
      <point x="126" y="1393"/>
      <point x="90" y="1306"/>
      <point x="90" y="1242" type="curve" smooth="yes"/>
      <point x="90" y="1174"/>
      <point x="118" y="1138"/>
      <point x="166" y="1138" type="curve" smooth="yes"/>
      <point x="199" y="1138"/>
      <point x="262" y="1146"/>
      <point x="288" y="1146" type="curve" smooth="yes"/>
      <point x="317" y="1146"/>
      <point x="493" y="1146"/>
      <point x="516" y="1145" type="curve"/>
      <point x="513" y="1100"/>
      <point x="512" y="1082"/>
      <point x="512" y="1013" type="curve" smooth="yes"/>
      <point x="512" y="786"/>
      <point x="529" y="603"/>
      <point x="529" y="351" type="curve" smooth="yes"/>
      <point x="529" y="313"/>
      <point x="528" y="280"/>
      <point x="526" y="247" type="curve"/>
      <point x="492" y="245"/>
      <point x="329" y="245"/>
      <point x="298" y="245" type="curve" smooth="yes"/>
      <point x="251" y="245"/>
      <point x="209" y="254"/>
      <point x="176" y="254" type="curve" smooth="yes"/>
      <point x="128" y="254"/>
      <point x="100" y="218"/>
    </contour>
  </outline>
</glyph>
<glyph name="yah-tifi" format="2">
  <advance width="1438"/>
  <unicode hex="2D40"/>
  <anchor x="720" y="1393" name="T"/>
  <outline>
    <contour>
      <point x="699" y="-30" type="curve" smooth="yes"/>
      <point x="1071" y="-30"/>
      <point x="1348" y="288"/>
      <point x="1348" y="715" type="curve" smooth="yes"/>
      <point x="1348" y="1142"/>
      <point x="1091" y="1420"/>
      <point x="719" y="1420" type="curve" smooth="yes"/>
      <point x="347" y="1420"/>
      <point x="74" y="1102"/>
      <point x="74" y="675" type="curve" smooth="yes"/>
      <point x="74" y="248"/>
      <point x="327" y="-30"/>
    </contour>
    <contour>
      <point x="598" y="248" type="curve"/>
      <point x="472" y="321"/>
      <point x="394" y="500"/>
      <point x="394" y="717" type="curve" smooth="yes"/>
      <point x="394" y="954"/>
      <point x="459" y="1118"/>
      <point x="597" y="1167" type="curve"/>
      <point x="595" y="1160"/>
      <point x="594" y="1154"/>
      <point x="594" y="1147" type="curve" smooth="yes"/>
      <point x="590" y="1084"/>
      <point x="588" y="1012"/>
      <point x="588" y="922" type="curve" smooth="yes"/>
      <point x="588" y="698"/>
      <point x="599" y="666"/>
      <point x="599" y="442" type="curve" smooth="yes"/>
      <point x="599" y="323"/>
      <point x="598" y="291"/>
    </contour>
    <contour>
      <point x="830" y="229" type="curve"/>
      <point x="833" y="291"/>
      <point x="835" y="362"/>
      <point x="835" y="450" type="curve" smooth="yes"/>
      <point x="835" y="674"/>
      <point x="824" y="706"/>
      <point x="824" y="930" type="curve" smooth="yes"/>
      <point x="824" y="1026"/>
      <point x="824" y="1123"/>
      <point x="827" y="1145" type="curve"/>
      <point x="951" y="1070"/>
      <point x="1028" y="893"/>
      <point x="1028" y="677" type="curve" smooth="yes"/>
      <point x="1028" y="443"/>
      <point x="964" y="280"/>
    </contour>
  </outline>
</glyph>
<glyph name="yaq-tifi" format="2">
  <advance width="1319"/>
  <unicode hex="2D47"/>
  <anchor x="676" y="1393" name="T"/>
  <outline>
    <contour>
      <point x="603" y="237" type="curve"/>
      <point x="648" y="312"/>
      <point x="685" y="374"/>
      <point x="785" y="565" type="curve" smooth="yes"/>
      <point x="917" y="817"/>
      <point x="994" y="978"/>
      <point x="1057" y="1100" type="curve" smooth="yes"/>
      <point x="1098" y="1180"/>
      <point x="1129" y="1249"/>
      <point x="1129" y="1297" type="curve" smooth="yes"/>
      <point x="1129" y="1348"/>
      <point x="1083" y="1380"/>
      <point x="1016" y="1389" type="curve" smooth="yes"/>
      <point x="995" y="1392"/>
      <point x="957" y="1393"/>
      <point x="892" y="1393" type="curve" smooth="yes"/>
      <point x="854" y="1393"/>
      <point x="787" y="1392"/>
      <point x="746" y="1392" type="curve" smooth="yes"/>
      <point x="698" y="1392"/>
      <point x="631" y="1389"/>
      <point x="583" y="1389" type="curve" smooth="yes"/>
      <point x="489" y="1389"/>
      <point x="443" y="1390"/>
      <point x="404" y="1390" type="curve" smooth="yes"/>
      <point x="298" y="1390"/>
      <point x="221" y="1329"/>
      <point x="200" y="1254" type="curve" smooth="yes"/>
      <point x="191" y="1222"/>
      <point x="190" y="1125"/>
      <point x="190" y="1013" type="curve" smooth="yes"/>
      <point x="190" y="733"/>
      <point x="201" y="660"/>
      <point x="201" y="380" type="curve" smooth="yes"/>
      <point x="201" y="286"/>
      <point x="200" y="242"/>
      <point x="200" y="153" type="curve" smooth="yes"/>
      <point x="200" y="63"/>
      <point x="286" y="0"/>
      <point x="369" y="0" type="curve" smooth="yes"/>
      <point x="428" y="0"/>
      <point x="544" y="4"/>
      <point x="622" y="4" type="curve" smooth="yes"/>
      <point x="678" y="4"/>
      <point x="925" y="0"/>
      <point x="974" y="0" type="curve" smooth="yes"/>
      <point x="1061" y="0"/>
      <point x="1097" y="77"/>
      <point x="1097" y="141" type="curve" smooth="yes"/>
      <point x="1097" y="209"/>
      <point x="1069" y="241"/>
      <point x="1021" y="241" type="curve" smooth="yes"/>
      <point x="988" y="241"/>
      <point x="946" y="233"/>
      <point x="899" y="233" type="curve" smooth="yes"/>
      <point x="840" y="233"/>
      <point x="762" y="239"/>
      <point x="668" y="239" type="curve" smooth="yes"/>
      <point x="625" y="239"/>
      <point x="638" y="237"/>
    </contour>
    <contour>
      <point x="493" y="380" type="curve" smooth="yes"/>
      <point x="493" y="660"/>
      <point x="492" y="733"/>
      <point x="488" y="1013" type="curve" smooth="yes"/>
      <point x="487" y="1086"/>
      <point x="489" y="1134"/>
      <point x="491" y="1158" type="curve"/>
      <point x="509" y="1159"/>
      <point x="552" y="1160"/>
      <point x="589" y="1160" type="curve" smooth="yes"/>
      <point x="637" y="1160"/>
      <point x="694" y="1161"/>
      <point x="732" y="1161" type="curve" smooth="yes"/>
      <point x="756" y="1161"/>
      <point x="799" y="1162"/>
      <point x="808" y="1162" type="curve"/>
      <point x="766" y="1081"/>
      <point x="737" y="1022"/>
      <point x="651" y="846" type="curve" smooth="yes"/>
      <point x="518" y="573"/>
      <point x="403" y="338"/>
      <point x="364" y="263" type="curve"/>
      <point x="489" y="263" type="line"/>
      <point x="493" y="306"/>
      <point x="493" y="328"/>
    </contour>
  </outline>
</glyph>
<glyph name="TifLtrYi" format="2">
  <advance width="1199"/>
  <unicode hex="2D49"/>
  <anchor x="570" y="1393" name="T"/>
  <outline>
    <contour>
      <point x="965" y="1411" type="curve" smooth="yes"/>
      <point x="934" y="1411"/>
      <point x="870" y="1378"/>
      <point x="762" y="1335" type="curve" smooth="yes"/>
      <point x="723" y="1319"/>
      <point x="464" y="1229"/>
      <point x="303" y="1165" type="curve" smooth="yes"/>
      <point x="173" y="1113"/>
      <point x="132" y="1071"/>
      <point x="132" y="1007" type="curve" smooth="yes"/>
      <point x="132" y="961"/>
      <point x="151" y="929"/>
      <point x="193" y="908" type="curve" smooth="yes"/>
      <point x="315" y="845"/>
      <point x="553" y="718"/>
      <point x="633" y="678" type="curve"/>
      <point x="664" y="783" type="line"/>
      <point x="571" y="738"/>
      <point x="352" y="627"/>
      <point x="208" y="559" type="curve" smooth="yes"/>
      <point x="124" y="520"/>
      <point x="90" y="477"/>
      <point x="90" y="429" type="curve" smooth="yes"/>
      <point x="90" y="383"/>
      <point x="106" y="360"/>
      <point x="194" y="314" type="curve" smooth="yes"/>
      <point x="352" y="232"/>
      <point x="503" y="157"/>
      <point x="676" y="73" type="curve" smooth="yes"/>
      <point x="781" y="22"/>
      <point x="869" y="-31"/>
      <point x="920" y="-31" type="curve" smooth="yes"/>
      <point x="984" y="-31"/>
      <point x="1123" y="42"/>
      <point x="1123" y="166" type="curve" smooth="yes"/>
      <point x="1123" y="194"/>
      <point x="1111" y="212"/>
      <point x="1093" y="223" type="curve" smooth="yes"/>
      <point x="1054" y="245"/>
      <point x="1053" y="228"/>
      <point x="962" y="266" type="curve" smooth="yes"/>
      <point x="847" y="314"/>
      <point x="578" y="464"/>
      <point x="435" y="542" type="curve"/>
      <point x="355" y="379" type="line"/>
      <point x="458" y="431"/>
      <point x="684" y="541"/>
      <point x="878" y="630" type="curve" smooth="yes"/>
      <point x="946" y="662"/>
      <point x="974" y="715"/>
      <point x="974" y="763" type="curve" smooth="yes"/>
      <point x="974" y="820"/>
      <point x="961" y="866"/>
      <point x="898" y="899" type="curve" smooth="yes"/>
      <point x="732" y="986"/>
      <point x="522" y="1091"/>
      <point x="485" y="1110" type="curve"/>
      <point x="394" y="962" type="line"/>
      <point x="550" y="1022"/>
      <point x="886" y="1138"/>
      <point x="952" y="1168" type="curve" smooth="yes"/>
      <point x="1026" y="1202"/>
      <point x="1038" y="1273"/>
      <point x="1038" y="1313" type="curve" smooth="yes"/>
      <point x="1038" y="1349"/>
      <point x="1012" y="1411"/>
    </contour>
  </outline>
</glyph>
<glyph name="yi-tifi" format="2">
  <advance width="1209"/>
  <unicode hex="2D49"/>
  <anchor x="575" y="1393" name="T"/>
  <outline>
    <contour>
      <point x="958" y="1396" type="curve" smooth="yes"/>
      <point x="912" y="1396"/>
      <point x="848" y="1373"/>
      <point x="767" y="1339" type="curve" smooth="yes"/>
      <point x="728" y="1323"/>
      <point x="469" y="1226"/>
      <point x="308" y="1162" type="curve" smooth="yes"/>
      <point x="178" y="1110"/>
      <point x="137" y="1071"/>
      <point x="137" y="1007" type="curve" smooth="yes"/>
      <point x="137" y="961"/>
      <point x="156" y="930"/>
      <point x="198" y="908" type="curve" smooth="yes"/>
      <point x="320" y="844"/>
      <point x="558" y="718"/>
      <point x="638" y="678" type="curve"/>
      <point x="669" y="783" type="line"/>
      <point x="576" y="738"/>
      <point x="357" y="628"/>
      <point x="213" y="559" type="curve" smooth="yes"/>
      <point x="129" y="519"/>
      <point x="95" y="477"/>
      <point x="95" y="429" type="curve" smooth="yes"/>
      <point x="95" y="383"/>
      <point x="111" y="360"/>
      <point x="199" y="314" type="curve" smooth="yes"/>
      <point x="357" y="232"/>
      <point x="510" y="159"/>
      <point x="681" y="73" type="curve" smooth="yes"/>
      <point x="850" y="-12"/>
      <point x="888" y="-31"/>
      <point x="925" y="-31" type="curve" smooth="yes"/>
      <point x="989" y="-31"/>
      <point x="1128" y="42"/>
      <point x="1128" y="166" type="curve" smooth="yes"/>
      <point x="1128" y="194"/>
      <point x="1116" y="213"/>
      <point x="1098" y="223" type="curve" smooth="yes"/>
      <point x="1058" y="245"/>
      <point x="1058" y="228"/>
      <point x="967" y="266" type="curve" smooth="yes"/>
      <point x="879" y="303"/>
      <point x="537" y="479"/>
      <point x="440" y="542" type="curve"/>
      <point x="360" y="379" type="line"/>
      <point x="463" y="441"/>
      <point x="689" y="540"/>
      <point x="883" y="630" type="curve" smooth="yes"/>
      <point x="951" y="662"/>
      <point x="979" y="715"/>
      <point x="979" y="763" type="curve" smooth="yes"/>
      <point x="979" y="820"/>
      <point x="966" y="866"/>
      <point x="903" y="899" type="curve" smooth="yes"/>
      <point x="737" y="986"/>
      <point x="559" y="1065"/>
      <point x="490" y="1110" type="curve"/>
      <point x="399" y="962" type="line"/>
      <point x="535" y="1022"/>
      <point x="889" y="1141"/>
      <point x="948" y="1167" type="curve" smooth="yes"/>
      <point x="1005" y="1192"/>
      <point x="1046" y="1244"/>
      <point x="1046" y="1298" type="curve" smooth="yes"/>
      <point x="1046" y="1351"/>
      <point x="1017" y="1396"/>
    </contour>
  </outline>
</glyph>
<glyph name="TifLtrYazh" format="2">
  <advance width="1121"/>
  <unicode hex="2D4B"/>
  <anchor x="576" y="1393" name="T"/>
  <outline>
    <contour>
      <point x="262" y="65" type="curve" smooth="yes"/>
      <point x="276" y="117"/>
      <point x="370" y="355"/>
      <point x="545" y="355" type="curve" smooth="yes"/>
      <point x="707" y="355"/>
      <point x="828" y="200"/>
      <point x="828" y="37" type="curve" smooth="yes"/>
      <point x="828" y="22"/>
      <point x="840" y="0"/>
      <point x="885" y="0" type="curve" smooth="yes"/>
      <point x="961" y="0"/>
      <point x="998" y="61"/>
      <point x="998" y="100" type="curve" smooth="yes"/>
      <point x="998" y="319"/>
      <point x="821" y="493"/>
      <point x="611" y="493" type="curve" smooth="yes"/>
      <point x="277" y="493"/>
      <point x="100" y="124"/>
      <point x="100" y="47" type="curve" smooth="yes"/>
      <point x="100" y="25"/>
      <point x="113" y="0"/>
      <point x="168" y="0" type="curve" smooth="yes"/>
      <point x="196" y="0"/>
      <point x="251" y="23"/>
    </contour>
    <contour>
      <point x="576" y="1118" type="curve" smooth="yes"/>
      <point x="474" y="1118"/>
      <point x="373" y="1233"/>
      <point x="373" y="1326" type="curve" smooth="yes"/>
      <point x="373" y="1371"/>
      <point x="331" y="1393"/>
      <point x="286" y="1393" type="curve" smooth="yes"/>
      <point x="160" y="1393"/>
      <point x="83" y="1322"/>
      <point x="83" y="1243" type="curve" smooth="yes"/>
      <point x="83" y="1044"/>
      <point x="250" y="860"/>
      <point x="510" y="860" type="curve" smooth="yes"/>
      <point x="874" y="860"/>
      <point x="1061" y="1239"/>
      <point x="1061" y="1316" type="curve" smooth="yes"/>
      <point x="1061" y="1368"/>
      <point x="1028" y="1393"/>
      <point x="953" y="1393" type="curve" smooth="yes"/>
      <point x="875" y="1393"/>
      <point x="785" y="1351"/>
      <point x="766" y="1283" type="curve" smooth="yes"/>
      <point x="743" y="1197"/>
      <point x="681" y="1118"/>
    </contour>
    <component base="_VerticalBarMedium" xOffset="472" yOffset="359"/>
  </outline>
</glyph>
<glyph name="yazhAhaggar-tifi" format="2">
  <advance width="1158"/>
  <unicode hex="2D4B"/>
  <anchor x="583" y="1393" name="T"/>
  <outline>
    <component base="_VerticalBarMedium" xOffset="479" yOffset="359"/>
    <contour>
      <point x="583" y="1118" type="curve" smooth="yes"/>
      <point x="481" y="1118"/>
      <point x="380" y="1233"/>
      <point x="380" y="1326" type="curve" smooth="yes"/>
      <point x="380" y="1371"/>
      <point x="338" y="1393"/>
      <point x="293" y="1393" type="curve" smooth="yes"/>
      <point x="167" y="1393"/>
      <point x="90" y="1322"/>
      <point x="90" y="1243" type="curve" smooth="yes"/>
      <point x="90" y="1044"/>
      <point x="257" y="860"/>
      <point x="517" y="860" type="curve" smooth="yes"/>
      <point x="881" y="860"/>
      <point x="1068" y="1239"/>
      <point x="1068" y="1316" type="curve" smooth="yes"/>
      <point x="1068" y="1368"/>
      <point x="1035" y="1393"/>
      <point x="960" y="1393" type="curve" smooth="yes"/>
      <point x="882" y="1393"/>
      <point x="792" y="1351"/>
      <point x="773" y="1283" type="curve" smooth="yes"/>
      <point x="750" y="1197"/>
      <point x="688" y="1118"/>
    </contour>
    <contour>
      <point x="575" y="275" type="curve" smooth="yes"/>
      <point x="677" y="275"/>
      <point x="778" y="160"/>
      <point x="778" y="67" type="curve" smooth="yes"/>
      <point x="778" y="22"/>
      <point x="820" y="0"/>
      <point x="865" y="0" type="curve" smooth="yes"/>
      <point x="991" y="0"/>
      <point x="1068" y="71"/>
      <point x="1068" y="150" type="curve" smooth="yes"/>
      <point x="1068" y="349"/>
      <point x="901" y="533"/>
      <point x="641" y="533" type="curve" smooth="yes"/>
      <point x="277" y="533"/>
      <point x="90" y="154"/>
      <point x="90" y="77" type="curve" smooth="yes"/>
      <point x="90" y="25"/>
      <point x="123" y="0"/>
      <point x="198" y="0" type="curve" smooth="yes"/>
      <point x="276" y="0"/>
      <point x="366" y="42"/>
      <point x="385" y="110" type="curve" smooth="yes"/>
      <point x="409" y="196"/>
      <point x="470" y="275"/>
    </contour>
  </outline>
</glyph>
<glyph name="yazhTuareg-tifi" format="2">
  <advance width="1433"/>
  <unicode hex="2D4C"/>
  <anchor x="715" y="1393" name="T"/>
  <outline>
    <contour>
      <point x="352" y="0" type="curve" smooth="yes"/>
      <point x="438" y="0"/>
      <point x="507" y="53"/>
      <point x="526" y="119" type="curve" smooth="yes"/>
      <point x="535" y="151"/>
      <point x="535" y="268"/>
      <point x="535" y="380" type="curve" smooth="yes"/>
      <point x="535" y="660"/>
      <point x="520" y="733"/>
      <point x="520" y="1013" type="curve" smooth="yes"/>
      <point x="520" y="1107"/>
      <point x="521" y="1156"/>
      <point x="521" y="1195" type="curve" smooth="yes"/>
      <point x="521" y="1263"/>
      <point x="531" y="1264"/>
      <point x="531" y="1317" type="curve" smooth="yes"/>
      <point x="531" y="1377"/>
      <point x="481" y="1393"/>
      <point x="403" y="1393" type="curve" smooth="yes"/>
      <point x="317" y="1393"/>
      <point x="238" y="1340"/>
      <point x="219" y="1274" type="curve" smooth="yes"/>
      <point x="210" y="1242"/>
      <point x="210" y="1125"/>
      <point x="210" y="1013" type="curve" smooth="yes"/>
      <point x="210" y="733"/>
      <point x="225" y="660"/>
      <point x="225" y="380" type="curve" smooth="yes"/>
      <point x="225" y="286"/>
      <point x="224" y="237"/>
      <point x="224" y="198" type="curve" smooth="yes"/>
      <point x="224" y="130"/>
      <point x="214" y="129"/>
      <point x="214" y="76" type="curve" smooth="yes"/>
      <point x="214" y="16"/>
      <point x="274" y="0"/>
    </contour>
    <contour>
      <point x="1019" y="0" type="curve" smooth="yes"/>
      <point x="1105" y="0"/>
      <point x="1184" y="53"/>
      <point x="1203" y="119" type="curve" smooth="yes"/>
      <point x="1212" y="151"/>
      <point x="1212" y="268"/>
      <point x="1212" y="380" type="curve" smooth="yes"/>
      <point x="1212" y="660"/>
      <point x="1197" y="733"/>
      <point x="1197" y="1013" type="curve" smooth="yes"/>
      <point x="1197" y="1107"/>
      <point x="1198" y="1156"/>
      <point x="1198" y="1195" type="curve" smooth="yes"/>
      <point x="1198" y="1263"/>
      <point x="1208" y="1264"/>
      <point x="1208" y="1317" type="curve" smooth="yes"/>
      <point x="1208" y="1377"/>
      <point x="1148" y="1393"/>
      <point x="1070" y="1393" type="curve" smooth="yes"/>
      <point x="984" y="1393"/>
      <point x="915" y="1340"/>
      <point x="896" y="1274" type="curve" smooth="yes"/>
      <point x="887" y="1242"/>
      <point x="887" y="1125"/>
      <point x="887" y="1013" type="curve" smooth="yes"/>
      <point x="887" y="733"/>
      <point x="902" y="660"/>
      <point x="902" y="380" type="curve" smooth="yes"/>
      <point x="902" y="286"/>
      <point x="901" y="237"/>
      <point x="901" y="198" type="curve" smooth="yes"/>
      <point x="901" y="130"/>
      <point x="891" y="129"/>
      <point x="891" y="76" type="curve" smooth="yes"/>
      <point x="891" y="16"/>
      <point x="941" y="0"/>
    </contour>
    <contour>
      <point x="1333" y="1015" type="curve" smooth="yes"/>
      <point x="1333" y="1091"/>
      <point x="1277" y="1142"/>
      <point x="1214" y="1156" type="curve" smooth="yes"/>
      <point x="1180" y="1164"/>
      <point x="1061" y="1162"/>
      <point x="949" y="1160" type="curve" smooth="yes"/>
      <point x="709" y="1155"/>
      <point x="658" y="1146"/>
      <point x="438" y="1141" type="curve" smooth="yes"/>
      <point x="344" y="1139"/>
      <point x="315" y="1139"/>
      <point x="276" y="1139" type="curve" smooth="yes"/>
      <point x="208" y="1139"/>
      <point x="199" y="1146"/>
      <point x="156" y="1146" type="curve" smooth="yes"/>
      <point x="96" y="1146"/>
      <point x="80" y="1115"/>
      <point x="80" y="1057" type="curve" smooth="yes"/>
      <point x="80" y="981"/>
      <point x="136" y="930"/>
      <point x="199" y="916" type="curve" smooth="yes"/>
      <point x="236" y="908"/>
      <point x="332" y="909"/>
      <point x="444" y="911" type="curve" smooth="yes"/>
      <point x="664" y="915"/>
      <point x="715" y="925"/>
      <point x="955" y="930" type="curve" smooth="yes"/>
      <point x="1049" y="932"/>
      <point x="1098" y="933"/>
      <point x="1137" y="933" type="curve" smooth="yes"/>
      <point x="1205" y="933"/>
      <point x="1216" y="926"/>
      <point x="1259" y="926" type="curve" smooth="yes"/>
      <point x="1319" y="926"/>
      <point x="1333" y="957"/>
    </contour>
    <contour>
      <point x="1333" y="339" type="curve" smooth="yes"/>
      <point x="1333" y="415"/>
      <point x="1277" y="466"/>
      <point x="1214" y="480" type="curve" smooth="yes"/>
      <point x="1180" y="488"/>
      <point x="1061" y="486"/>
      <point x="949" y="484" type="curve" smooth="yes"/>
      <point x="709" y="479"/>
      <point x="658" y="470"/>
      <point x="438" y="465" type="curve" smooth="yes"/>
      <point x="344" y="463"/>
      <point x="315" y="463"/>
      <point x="276" y="463" type="curve" smooth="yes"/>
      <point x="208" y="463"/>
      <point x="199" y="470"/>
      <point x="156" y="470" type="curve" smooth="yes"/>
      <point x="96" y="470"/>
      <point x="80" y="439"/>
      <point x="80" y="381" type="curve" smooth="yes"/>
      <point x="80" y="305"/>
      <point x="136" y="254"/>
      <point x="199" y="240" type="curve" smooth="yes"/>
      <point x="236" y="232"/>
      <point x="332" y="233"/>
      <point x="444" y="235" type="curve" smooth="yes"/>
      <point x="664" y="239"/>
      <point x="715" y="249"/>
      <point x="955" y="254" type="curve" smooth="yes"/>
      <point x="1049" y="256"/>
      <point x="1098" y="257"/>
      <point x="1137" y="257" type="curve" smooth="yes"/>
      <point x="1205" y="257"/>
      <point x="1216" y="250"/>
      <point x="1259" y="250" type="curve" smooth="yes"/>
      <point x="1319" y="250"/>
      <point x="1333" y="281"/>
    </contour>
  </outline>
</glyph>
<glyph name="TifLtrYam" format="2">
  <advance width="1257"/>
  <unicode hex="2D4E"/>
  <anchor x="670" y="1393" name="T"/>
  <outline>
    <contour>
      <point x="1011" y="1393"/>
      <point x="934" y="1393" type="curve" smooth="yes"/>
      <point x="885" y="1393"/>
      <point x="598" y="1389"/>
      <point x="542" y="1389" type="curve" smooth="yes"/>
      <point x="478" y="1389"/>
      <point x="382" y="1393"/>
      <point x="349" y="1393" type="curve" smooth="yes"/>
      <point x="257" y="1393"/>
      <point x="154" y="1355"/>
      <point x="154" y="1269" type="curve" smooth="yes"/>
      <point x="154" y="1197"/>
      <point x="150" y="1107"/>
      <point x="150" y="1013" type="curve" smooth="yes"/>
      <point x="150" y="733"/>
      <point x="165" y="660"/>
      <point x="165" y="380" type="curve" smooth="yes"/>
      <point x="165" y="217"/>
      <point x="164" y="165"/>
      <point x="164" y="124" type="curve" smooth="yes"/>
      <point x="164" y="38"/>
      <point x="267" y="0"/>
      <point x="359" y="0" type="curve" smooth="yes"/>
      <point x="392" y="0"/>
      <point x="488" y="4"/>
      <point x="552" y="4" type="curve" smooth="yes"/>
      <point x="608" y="4"/>
      <point x="885" y="0"/>
      <point x="934" y="0" type="curve" smooth="yes"/>
      <point x="1011" y="0"/>
      <point x="1057" y="77"/>
      <point x="1057" y="141" type="curve" smooth="yes"/>
      <point x="1057" y="177"/>
      <point x="1043" y="266"/>
      <point x="1012" y="266" type="curve" smooth="yes"/>
      <point x="979" y="266"/>
      <point x="977" y="258"/>
      <point x="930" y="258" type="curve" smooth="yes"/>
      <point x="891" y="258"/>
      <point x="682" y="264"/>
      <point x="588" y="264" type="curve" smooth="yes"/>
      <point x="525" y="264"/>
      <point x="536" y="259"/>
      <point x="481" y="259" type="curve"/>
      <point x="485" y="328"/>
      <point x="485" y="311"/>
      <point x="485" y="380" type="curve" smooth="yes"/>
      <point x="485" y="607"/>
      <point x="468" y="820"/>
      <point x="468" y="1072" type="curve" smooth="yes"/>
      <point x="468" y="1130"/>
      <point x="469" y="1071"/>
      <point x="471" y="1134" type="curve"/>
      <point x="526" y="1134"/>
      <point x="515" y="1129"/>
      <point x="578" y="1129" type="curve" smooth="yes"/>
      <point x="672" y="1129"/>
      <point x="891" y="1135"/>
      <point x="930" y="1135" type="curve" smooth="yes"/>
      <point x="977" y="1135"/>
      <point x="979" y="1127"/>
      <point x="1012" y="1127" type="curve" smooth="yes"/>
      <point x="1043" y="1127"/>
      <point x="1057" y="1216"/>
      <point x="1057" y="1252" type="curve" smooth="yes"/>
      <point x="1057" y="1316"/>
    </contour>
  </outline>
</glyph>
<glyph name="yam-tifi" format="2">
  <advance width="1257"/>
  <unicode hex="2D4E"/>
  <anchor x="670" y="1393" name="T"/>
  <outline>
    <contour>
      <point x="1057" y="1232" type="curve" smooth="yes"/>
      <point x="1057" y="1296"/>
      <point x="1021" y="1393"/>
      <point x="934" y="1393" type="curve" smooth="yes"/>
      <point x="885" y="1393"/>
      <point x="598" y="1389"/>
      <point x="542" y="1389" type="curve" smooth="yes"/>
      <point x="478" y="1389"/>
      <point x="362" y="1393"/>
      <point x="329" y="1393" type="curve" smooth="yes"/>
      <point x="237" y="1393"/>
      <point x="154" y="1325"/>
      <point x="154" y="1239" type="curve" smooth="yes"/>
      <point x="154" y="1167"/>
      <point x="150" y="1107"/>
      <point x="150" y="1013" type="curve" smooth="yes"/>
      <point x="150" y="733"/>
      <point x="165" y="660"/>
      <point x="165" y="380" type="curve" smooth="yes"/>
      <point x="165" y="247"/>
      <point x="164" y="195"/>
      <point x="164" y="154" type="curve" smooth="yes"/>
      <point x="164" y="68"/>
      <point x="237" y="0"/>
      <point x="329" y="0" type="curve" smooth="yes"/>
      <point x="362" y="0"/>
      <point x="488" y="4"/>
      <point x="552" y="4" type="curve" smooth="yes"/>
      <point x="608" y="4"/>
      <point x="885" y="0"/>
      <point x="934" y="0" type="curve" smooth="yes"/>
      <point x="1021" y="0"/>
      <point x="1057" y="97"/>
      <point x="1057" y="161" type="curve" smooth="yes"/>
      <point x="1057" y="229"/>
      <point x="1029" y="265"/>
      <point x="981" y="265" type="curve" smooth="yes"/>
      <point x="948" y="265"/>
      <point x="906" y="257"/>
      <point x="859" y="257" type="curve" smooth="yes"/>
      <point x="800" y="257"/>
      <point x="682" y="263"/>
      <point x="588" y="263" type="curve" smooth="yes"/>
      <point x="545" y="263"/>
      <point x="516" y="258"/>
      <point x="481" y="258" type="curve"/>
      <point x="484" y="307"/>
      <point x="485" y="321"/>
      <point x="485" y="380" type="curve" smooth="yes"/>
      <point x="485" y="607"/>
      <point x="468" y="790"/>
      <point x="468" y="1042" type="curve" smooth="yes"/>
      <point x="468" y="1080"/>
      <point x="469" y="1102"/>
      <point x="471" y="1135" type="curve"/>
      <point x="506" y="1135"/>
      <point x="535" y="1130"/>
      <point x="578" y="1130" type="curve" smooth="yes"/>
      <point x="672" y="1130"/>
      <point x="800" y="1136"/>
      <point x="859" y="1136" type="curve" smooth="yes"/>
      <point x="906" y="1136"/>
      <point x="948" y="1128"/>
      <point x="981" y="1128" type="curve" smooth="yes"/>
      <point x="1029" y="1128"/>
      <point x="1057" y="1164"/>
    </contour>
  </outline>
</glyph>
<glyph name="yap-tifi" format="2">
  <advance width="1116"/>
  <unicode hex="2D52"/>
  <anchor x="560" y="1393" name="T"/>
  <outline>
    <contour>
      <point x="513" y="-30" type="curve" smooth="yes"/>
      <point x="803" y="-30"/>
      <point x="1026" y="186"/>
      <point x="1026" y="445" type="curve" smooth="yes"/>
      <point x="1026" y="688"/>
      <point x="762" y="814"/>
      <point x="605" y="814" type="curve" smooth="yes"/>
      <point x="409" y="814"/>
      <point x="313" y="726"/>
      <point x="261" y="672" type="curve" smooth="yes"/>
      <point x="205" y="613"/>
      <point x="208" y="571"/>
      <point x="225" y="552" type="curve" smooth="yes"/>
      <point x="242" y="532"/>
      <point x="295" y="512"/>
      <point x="337" y="543" type="curve" smooth="yes"/>
      <point x="372" y="569"/>
      <point x="460" y="621"/>
      <point x="525" y="621" type="curve" smooth="yes"/>
      <point x="634" y="621"/>
      <point x="754" y="553"/>
      <point x="754" y="392" type="curve" smooth="yes"/>
      <point x="754" y="277"/>
      <point x="683" y="172"/>
      <point x="586" y="172" type="curve" smooth="yes"/>
      <point x="477" y="172"/>
      <point x="361" y="226"/>
      <point x="361" y="378" type="curve" smooth="yes"/>
      <point x="361" y="470"/>
      <point x="389" y="551"/>
      <point x="435" y="625" type="curve" smooth="yes"/>
      <point x="555" y="820"/>
      <point x="796" y="973"/>
      <point x="970" y="1178" type="curve" smooth="yes"/>
      <point x="993" y="1206"/>
      <point x="1017" y="1249"/>
      <point x="1017" y="1275" type="curve" smooth="yes"/>
      <point x="1017" y="1328"/>
      <point x="978" y="1392"/>
      <point x="885" y="1396" type="curve" smooth="yes"/>
      <point x="710" y="1403"/>
      <point x="578" y="1398"/>
      <point x="399" y="1390" type="curve" smooth="yes"/>
      <point x="335" y="1387"/>
      <point x="325" y="1388"/>
      <point x="286" y="1388" type="curve" smooth="yes"/>
      <point x="238" y="1388"/>
      <point x="217" y="1395"/>
      <point x="164" y="1395" type="curve" smooth="yes"/>
      <point x="104" y="1395"/>
      <point x="90" y="1354"/>
      <point x="90" y="1296" type="curve" smooth="yes"/>
      <point x="90" y="1205"/>
      <point x="146" y="1172"/>
      <point x="213" y="1164" type="curve" smooth="yes"/>
      <point x="304" y="1153"/>
      <point x="360" y="1158"/>
      <point x="443" y="1160" type="curve" smooth="yes"/>
      <point x="537" y="1162"/>
      <point x="701" y="1179"/>
      <point x="821" y="1172" type="curve"/>
      <point x="736" y="1274" type="line"/>
      <point x="642" y="1149"/>
      <point x="374" y="968"/>
      <point x="215" y="738" type="curve" smooth="yes"/>
      <point x="132" y="618"/>
      <point x="96" y="504"/>
      <point x="96" y="370" type="curve" smooth="yes"/>
      <point x="96" y="131"/>
      <point x="263" y="-30"/>
    </contour>
  </outline>
</glyph>
<glyph name="yarr-tifi" format="2">
  <advance width="1454"/>
  <unicode hex="2D55"/>
  <anchor x="736" y="1393" name="T"/>
  <outline>
    <component base="_VerticalOval" xOffset="-8"/>
    <contour>
      <point x="1240" y="-33" type="curve" smooth="yes"/>
      <point x="1276" y="3"/>
      <point x="1292" y="45"/>
      <point x="1292" y="86" type="curve" smooth="yes"/>
      <point x="1292" y="114"/>
      <point x="1284" y="142"/>
      <point x="1270" y="166" type="curve" smooth="yes"/>
      <point x="1255" y="192"/>
      <point x="1240" y="210"/>
      <point x="1218" y="232" type="curve" smooth="yes"/>
      <point x="1177" y="273"/>
      <point x="1062" y="380"/>
      <point x="1021" y="421" type="curve" smooth="yes"/>
      <point x="1000" y="442"/>
      <point x="984" y="459"/>
      <point x="971" y="472" type="curve" smooth="yes"/>
      <point x="929" y="517"/>
      <point x="921" y="536"/>
      <point x="900" y="558" type="curve" smooth="yes"/>
      <point x="884" y="575"/>
      <point x="868" y="582"/>
      <point x="851" y="582" type="curve" smooth="yes"/>
      <point x="825" y="582"/>
      <point x="797" y="563"/>
      <point x="768" y="534" type="curve" smooth="yes"/>
      <point x="734" y="500"/>
      <point x="721" y="463"/>
      <point x="721" y="427" type="curve" smooth="yes"/>
      <point x="721" y="398"/>
      <point x="730" y="368"/>
      <point x="745" y="342" type="curve" smooth="yes"/>
      <point x="760" y="316"/>
      <point x="782" y="291"/>
      <point x="804" y="268" type="curve" smooth="yes"/>
      <point x="845" y="227"/>
      <point x="968" y="114"/>
      <point x="1009" y="73" type="curve" smooth="yes"/>
      <point x="1025" y="57"/>
      <point x="1038" y="44"/>
      <point x="1048" y="32" type="curve" smooth="yes"/>
      <point x="1087" y="-9"/>
      <point x="1092" y="-27"/>
      <point x="1115" y="-50" type="curve" smooth="yes"/>
      <point x="1133" y="-68"/>
      <point x="1149" y="-76"/>
      <point x="1166" y="-76" type="curve" smooth="yes"/>
      <point x="1189" y="-76"/>
      <point x="1212" y="-61"/>
    </contour>
  </outline>
</glyph>
<glyph name="yagh-tifi" format="2">
  <advance width="1311"/>
  <unicode hex="2D56"/>
  <anchor x="682" y="1393" name="T"/>
  <outline>
    <contour>
      <point x="762" y="621" type="curve" smooth="yes"/>
      <point x="882" y="621"/>
      <point x="1015" y="619"/>
      <point x="1047" y="619" type="curve" smooth="yes"/>
      <point x="1124" y="619"/>
      <point x="1168" y="662"/>
      <point x="1168" y="777" type="curve" smooth="yes"/>
      <point x="1168" y="870"/>
      <point x="1162" y="1040"/>
      <point x="1162" y="1167" type="curve" smooth="yes"/>
      <point x="1162" y="1246"/>
      <point x="1171" y="1288"/>
      <point x="1171" y="1326" type="curve" smooth="yes"/>
      <point x="1171" y="1365"/>
      <point x="1124" y="1392"/>
      <point x="1058" y="1392" type="curve" smooth="yes"/>
      <point x="944" y="1392"/>
      <point x="843" y="1344"/>
      <point x="843" y="1225" type="curve" smooth="yes"/>
      <point x="843" y="1103"/>
      <point x="847" y="982"/>
      <point x="847" y="860" type="curve"/>
      <point x="823" y="861"/>
      <point x="807" y="861"/>
      <point x="772" y="861" type="curve" smooth="yes"/>
      <point x="692" y="861"/>
      <point x="599" y="854"/>
      <point x="519" y="854" type="curve" smooth="yes"/>
      <point x="484" y="854"/>
      <point x="477" y="854"/>
      <point x="464" y="855" type="curve"/>
      <point x="464" y="1027"/>
      <point x="460" y="1098"/>
      <point x="460" y="1220" type="curve" smooth="yes"/>
      <point x="460" y="1271"/>
      <point x="466" y="1271"/>
      <point x="466" y="1327" type="curve" smooth="yes"/>
      <point x="466" y="1366"/>
      <point x="423" y="1393"/>
      <point x="357" y="1393" type="curve" smooth="yes"/>
      <point x="240" y="1393"/>
      <point x="140" y="1342"/>
      <point x="140" y="1200" type="curve" smooth="yes"/>
      <point x="140" y="1061"/>
      <point x="143" y="921"/>
      <point x="143" y="782" type="curve" smooth="yes"/>
      <point x="143" y="622"/>
      <point x="151" y="613"/>
      <point x="334" y="613" type="curve" smooth="yes"/>
      <point x="414" y="613"/>
      <point x="682" y="621"/>
    </contour>
    <contour>
      <point x="636" y="0" type="curve" smooth="yes"/>
      <point x="722" y="0"/>
      <point x="799" y="53"/>
      <point x="818" y="119" type="curve" smooth="yes"/>
      <point x="825" y="144"/>
      <point x="826" y="197"/>
      <point x="826" y="256" type="curve" smooth="yes"/>
      <point x="826" y="337"/>
      <point x="818" y="440"/>
      <point x="818" y="514" type="curve" smooth="yes"/>
      <point x="818" y="560"/>
      <point x="819" y="596"/>
      <point x="819" y="642" type="curve" smooth="yes"/>
      <point x="819" y="710"/>
      <point x="830" y="711"/>
      <point x="830" y="764" type="curve" smooth="yes"/>
      <point x="830" y="824"/>
      <point x="767" y="840"/>
      <point x="689" y="840" type="curve" smooth="yes"/>
      <point x="603" y="840"/>
      <point x="526" y="787"/>
      <point x="507" y="721" type="curve" smooth="yes"/>
      <point x="500" y="696"/>
      <point x="499" y="643"/>
      <point x="499" y="584" type="curve" smooth="yes"/>
      <point x="499" y="503"/>
      <point x="507" y="400"/>
      <point x="507" y="326" type="curve" smooth="yes"/>
      <point x="507" y="264"/>
      <point x="506" y="244"/>
      <point x="506" y="198" type="curve" smooth="yes"/>
      <point x="506" y="130"/>
      <point x="495" y="129"/>
      <point x="495" y="76" type="curve" smooth="yes"/>
      <point x="495" y="16"/>
      <point x="558" y="0"/>
    </contour>
  </outline>
</glyph>
<glyph name="yash-tifi" format="2">
  <advance width="982"/>
  <unicode hex="2D5B"/>
  <anchor x="601" y="1393" name="T"/>
  <outline>
    <contour>
      <point x="902" y="1160" type="curve" smooth="yes"/>
      <point x="902" y="1299"/>
      <point x="785" y="1408"/>
      <point x="639" y="1408" type="curve" smooth="yes"/>
      <point x="313" y="1408"/>
      <point x="80" y="1047"/>
      <point x="80" y="675" type="curve" smooth="yes"/>
      <point x="80" y="303"/>
      <point x="263" y="-30"/>
      <point x="578" y="-30" type="curve" smooth="yes"/>
      <point x="763" y="-30"/>
      <point x="902" y="102"/>
      <point x="902" y="301" type="curve" smooth="yes"/>
      <point x="902" y="420"/>
      <point x="766" y="560"/>
      <point x="642" y="560" type="curve" smooth="yes"/>
      <point x="518" y="560"/>
      <point x="294" y="450"/>
      <point x="294" y="277" type="curve" smooth="yes"/>
      <point x="294" y="134"/>
      <point x="401" y="7"/>
      <point x="434" y="7" type="curve" smooth="yes"/>
      <point x="467" y="7"/>
      <point x="544" y="42"/>
      <point x="544" y="93" type="curve" smooth="yes"/>
      <point x="544" y="114"/>
      <point x="490" y="115"/>
      <point x="490" y="239" type="curve" smooth="yes"/>
      <point x="490" y="294"/>
      <point x="548" y="320"/>
      <point x="609" y="320" type="curve" smooth="yes"/>
      <point x="670" y="320"/>
      <point x="710" y="280"/>
      <point x="710" y="204" type="curve" smooth="yes"/>
      <point x="710" y="138"/>
      <point x="685" y="102"/>
      <point x="629" y="102" type="curve" smooth="yes"/>
      <point x="493" y="102"/>
      <point x="389" y="296"/>
      <point x="389" y="698" type="curve" smooth="yes"/>
      <point x="389" y="1037"/>
      <point x="465" y="1236"/>
      <point x="594" y="1236" type="curve" smooth="yes"/>
      <point x="663" y="1236"/>
      <point x="716" y="1182"/>
      <point x="716" y="1115" type="curve" smooth="yes"/>
      <point x="716" y="1071"/>
      <point x="708" y="1017"/>
      <point x="632" y="1017" type="curve" smooth="yes"/>
      <point x="550" y="1017"/>
      <point x="477" y="1066"/>
      <point x="477" y="1142" type="curve" smooth="yes"/>
      <point x="477" y="1218"/>
      <point x="577" y="1260"/>
      <point x="577" y="1318" type="curve" smooth="yes"/>
      <point x="577" y="1347"/>
      <point x="527" y="1358"/>
      <point x="490" y="1358" type="curve" smooth="yes"/>
      <point x="456" y="1358"/>
      <point x="297" y="1200"/>
      <point x="297" y="1031" type="curve" smooth="yes"/>
      <point x="297" y="882"/>
      <point x="460" y="818"/>
      <point x="572" y="818" type="curve" smooth="yes"/>
      <point x="721" y="818"/>
      <point x="902" y="961"/>
    </contour>
  </outline>
</glyph>
<glyph name="yach-tifi" format="2">
  <advance width="1387"/>
  <unicode hex="2D5E"/>
  <anchor x="795" y="1393" name="T"/>
  <outline>
    <contour>
      <point x="1297" y="1160" type="curve" smooth="yes"/>
      <point x="1297" y="1279"/>
      <point x="1180" y="1408"/>
      <point x="944" y="1408" type="curve" smooth="yes"/>
      <point x="598" y="1408"/>
      <point x="95" y="1217"/>
      <point x="95" y="675" type="curve" smooth="yes"/>
      <point x="95" y="153"/>
      <point x="528" y="-30"/>
      <point x="913" y="-30" type="curve" smooth="yes"/>
      <point x="1168" y="-30"/>
      <point x="1297" y="112"/>
      <point x="1297" y="281" type="curve" smooth="yes"/>
      <point x="1297" y="420"/>
      <point x="1161" y="530"/>
      <point x="1007" y="530" type="curve" smooth="yes"/>
      <point x="843" y="530"/>
      <point x="669" y="350"/>
      <point x="669" y="227" type="curve" smooth="yes"/>
      <point x="669" y="84"/>
      <point x="786" y="7"/>
      <point x="819" y="7" type="curve" smooth="yes"/>
      <point x="852" y="7"/>
      <point x="939" y="42"/>
      <point x="939" y="93" type="curve" smooth="yes"/>
      <point x="939" y="134"/>
      <point x="894" y="200"/>
      <point x="894" y="259" type="curve" smooth="yes"/>
      <point x="894" y="307"/>
      <point x="936" y="350"/>
      <point x="994" y="350" type="curve" smooth="yes"/>
      <point x="1055" y="350"/>
      <point x="1095" y="310"/>
      <point x="1095" y="254" type="curve" smooth="yes"/>
      <point x="1095" y="188"/>
      <point x="1060" y="162"/>
      <point x="984" y="162" type="curve" smooth="yes"/>
      <point x="808" y="162"/>
      <point x="414" y="266"/>
      <point x="414" y="698" type="curve" smooth="yes"/>
      <point x="414" y="1140"/>
      <point x="836" y="1209"/>
      <point x="945" y="1209" type="curve" smooth="yes"/>
      <point x="1034" y="1209"/>
      <point x="1084" y="1171"/>
      <point x="1084" y="1098" type="curve" smooth="yes"/>
      <point x="1084" y="1055"/>
      <point x="1065" y="1017"/>
      <point x="1006" y="1017" type="curve" smooth="yes"/>
      <point x="927" y="1017"/>
      <point x="877" y="1056"/>
      <point x="877" y="1142" type="curve" smooth="yes"/>
      <point x="877" y="1202"/>
      <point x="942" y="1283"/>
      <point x="942" y="1328" type="curve" smooth="yes"/>
      <point x="942" y="1356"/>
      <point x="909" y="1358"/>
      <point x="875" y="1358" type="curve" smooth="yes"/>
      <point x="841" y="1358"/>
      <point x="682" y="1260"/>
      <point x="682" y="1091" type="curve" smooth="yes"/>
      <point x="682" y="942"/>
      <point x="825" y="848"/>
      <point x="957" y="848" type="curve" smooth="yes"/>
      <point x="1126" y="848"/>
      <point x="1297" y="981"/>
    </contour>
    <contour>
      <point x="363" y="592" type="curve" smooth="yes"/>
      <point x="483" y="592"/>
      <point x="585" y="601"/>
      <point x="696" y="601" type="curve" smooth="yes"/>
      <point x="848" y="601"/>
      <point x="824" y="592"/>
      <point x="853" y="592" type="curve" smooth="yes"/>
      <point x="888" y="592"/>
      <point x="902" y="630"/>
      <point x="902" y="660" type="curve" smooth="yes"/>
      <point x="902" y="727"/>
      <point x="861" y="771"/>
      <point x="799" y="771" type="curve" smooth="yes"/>
      <point x="679" y="771"/>
      <point x="577" y="762"/>
      <point x="466" y="762" type="curve" smooth="yes"/>
      <point x="314" y="762"/>
      <point x="338" y="771"/>
      <point x="309" y="771" type="curve" smooth="yes"/>
      <point x="274" y="771"/>
      <point x="260" y="738"/>
      <point x="260" y="708" type="curve" smooth="yes"/>
      <point x="260" y="641"/>
      <point x="301" y="592"/>
    </contour>
    <contour>
      <point x="602" y="405" type="curve" smooth="yes"/>
      <point x="671" y="405"/>
      <point x="713" y="440"/>
      <point x="713" y="581" type="curve" smooth="yes"/>
      <point x="713" y="698"/>
      <point x="705" y="667"/>
      <point x="705" y="750" type="curve" smooth="yes"/>
      <point x="705" y="892"/>
      <point x="714" y="878"/>
      <point x="714" y="907" type="curve" smooth="yes"/>
      <point x="714" y="942"/>
      <point x="666" y="956"/>
      <point x="636" y="956" type="curve" smooth="yes"/>
      <point x="567" y="956"/>
      <point x="535" y="921"/>
      <point x="535" y="780" type="curve" smooth="yes"/>
      <point x="535" y="663"/>
      <point x="543" y="707"/>
      <point x="543" y="624" type="curve" smooth="yes"/>
      <point x="543" y="472"/>
      <point x="534" y="483"/>
      <point x="534" y="454" type="curve" smooth="yes"/>
      <point x="534" y="419"/>
      <point x="572" y="405"/>
    </contour>
  </outline>
</glyph>
<glyph name="TifLtrYatt" format="2">
  <advance width="1258"/>
  <unicode hex="2D5F"/>
  <anchor x="670" y="1393" name="T"/>
  <outline>
    <contour>
      <point x="668" y="672"/>
      <point x="668" y="589" type="curve" smooth="yes"/>
      <point x="668" y="427"/>
      <point x="659" y="448"/>
      <point x="659" y="409" type="curve" smooth="yes"/>
      <point x="659" y="384"/>
      <point x="682" y="370"/>
      <point x="712" y="370" type="curve" smooth="yes"/>
      <point x="803" y="371"/>
      <point x="813" y="445"/>
      <point x="813" y="546" type="curve" smooth="yes"/>
      <point x="813" y="663"/>
      <point x="805" y="732"/>
      <point x="805" y="815" type="curve" smooth="yes"/>
      <point x="805" y="977"/>
      <point x="814" y="943"/>
      <point x="814" y="982" type="curve" smooth="yes"/>
      <point x="814" y="1007"/>
      <point x="791" y="1021"/>
      <point x="761" y="1021" type="curve" smooth="yes"/>
      <point x="670" y="1020"/>
      <point x="660" y="946"/>
      <point x="660" y="845" type="curve" smooth="yes"/>
      <point x="660" y="728"/>
    </contour>
    <component base="TifLtrYam"/>
    <component base="_HorizontalBarMedShort1.5" xOffset="298" yOffset="614"/>
  </outline>
</glyph>
<glyph name="yatt-tifi" format="2">
  <advance width="1258"/>
  <unicode hex="2D5F"/>
  <anchor x="670" y="1393" name="T"/>
  <outline>
    <contour>
      <point x="606" y="906" type="curve" smooth="yes"/>
      <point x="606" y="789"/>
      <point x="614" y="660"/>
      <point x="614" y="577" type="curve" smooth="yes"/>
      <point x="614" y="415"/>
      <point x="605" y="449"/>
      <point x="605" y="410" type="curve" smooth="yes"/>
      <point x="605" y="355"/>
      <point x="662" y="341"/>
      <point x="722" y="341" type="curve" smooth="yes"/>
      <point x="813" y="341"/>
      <point x="887" y="396"/>
      <point x="887" y="487" type="curve" smooth="yes"/>
      <point x="887" y="604"/>
      <point x="879" y="733"/>
      <point x="879" y="816" type="curve" smooth="yes"/>
      <point x="879" y="978"/>
      <point x="888" y="944"/>
      <point x="888" y="983" type="curve" smooth="yes"/>
      <point x="888" y="1038"/>
      <point x="831" y="1052"/>
      <point x="771" y="1052" type="curve" smooth="yes"/>
      <point x="680" y="1052"/>
      <point x="606" y="997"/>
    </contour>
    <component base="yam-tifi"/>
    <component base="_HorizontalBarMedShort1.5" xOffset="298" yOffset="614"/>
  </outline>
</glyph>
